<svg width="55" height="53" viewBox="0 0 55 53" fill="none" xmlns="http://www.w3.org/2000/svg">
<path d="M54.3125 45.4375C54.1875 46.0208 53.9167 46.5 53.5 46.875C53.125 47.2083 52.6667 47.4792 52.125 47.6875C51.5833 47.8958 51.0208 48.0417 50.4375 48.125C49.8958 48.1667 49.3958 48.1875 48.9375 48.1875C48.7292 48.1875 48.5208 48.1875 48.3125 48.1875C48.1458 48.1458 47.9583 48.125 47.75 48.125C47.5417 48.125 47.4375 48.2292 47.4375 48.4375C47.4375 48.6458 47.3333 48.7917 47.125 48.875C46.9167 48.7917 46.7083 48.7292 46.5 48.6875C46.2917 48.6458 46.0833 48.625 45.875 48.625C45.5833 48.625 45.2917 48.6458 45 48.6875C44.75 48.7292 44.5 48.75 44.25 48.75C43.9167 48.75 43.6667 48.7083 43.5 48.625C43.375 48.5417 43.25 48.4583 43.125 48.375C43.0417 48.25 42.9375 48.125 42.8125 48C42.7292 47.875 42.5833 47.7708 42.375 47.6875C42.0833 47.5625 41.8333 47.5417 41.625 47.625C41.4583 47.7083 41.1875 47.5833 40.8125 47.25C40.3125 46.8333 39.875 46.3333 39.5 45.75C39.1667 45.125 38.8333 44.4792 38.5 43.8125C38.1667 43.1458 37.8125 42.4792 37.4375 41.8125C37.0625 41.1458 36.625 40.5625 36.125 40.0625H35.625C34.875 40.0625 34.3542 40.375 34.0625 41C33.8542 40.875 33.6458 40.7292 33.4375 40.5625C33.2292 40.3542 33 40.1875 32.75 40.0625C31.7917 40.3542 30.7917 40.6042 29.75 40.8125C28.7083 41.0208 27.6667 41.125 26.625 41.125H25.75C25.5 41.125 25.2292 41.0833 24.9375 41C24.5208 41.1667 24.1458 41.375 23.8125 41.625C23.4792 41.8333 23.1042 41.9375 22.6875 41.9375C22.4375 41.9375 22.1458 41.8542 21.8125 41.6875C21.5625 41.6875 21.4375 41.7917 21.4375 42C21.4792 42.2083 21.3542 42.3125 21.0625 42.3125H20.5C19.9167 42.3125 19.3333 42.3333 18.75 42.375C18.2083 42.4167 17.6458 42.4375 17.0625 42.4375C16.2708 42.4375 15.4583 42.3333 14.625 42.125C14.4167 42.25 14.1875 42.3125 13.9375 42.3125C13.7708 42.3958 13.6458 42.5417 13.5625 42.75C13.4792 42.9167 13.3958 43.0833 13.3125 43.25C13.2292 43.375 13.1042 43.5 12.9375 43.625C12.8125 43.7083 12.625 43.7292 12.375 43.6875C12.2917 44.1875 12.0833 44.5833 11.75 44.875C11.4167 45.1667 11.25 45.6042 11.25 46.1875C10.7917 46.4375 10.4167 46.75 10.125 47.125C9.83333 47.5 9.54167 47.8958 9.25 48.3125C8.95833 48.7292 8.64583 49.125 8.3125 49.5C8.02083 49.875 7.64583 50.1667 7.1875 50.375C6.97917 50.625 6.91667 51.0208 7 51.5625C6.54167 51.9375 5.97917 52.2708 5.3125 52.5625C4.64583 52.8542 4.02083 53 3.4375 53C2.22917 53 1.39583 52.3542 0.9375 51.0625C0.9375 50.6458 0.979167 50.2083 1.0625 49.75C1.10417 49.25 1.1875 48.7917 1.3125 48.375C1.4375 47.9167 1.625 47.5208 1.875 47.1875C2.125 46.8125 2.47917 46.5417 2.9375 46.375C2.9375 46 2.8125 45.75 2.5625 45.625C2.3125 45.4583 2.20833 45.1875 2.25 44.8125C3.375 44.2708 4.35417 43.5625 5.1875 42.6875C6.02083 41.8125 6.77083 40.8958 7.4375 39.9375C8.14583 38.9375 8.85417 37.9375 9.5625 36.9375C10.2708 35.9375 11.0625 35.0417 11.9375 34.25V32.9375C13.1875 31.6042 14 30.1042 14.375 28.4375C14.8333 28.3542 15.125 28.1458 15.25 27.8125C15.4167 27.4792 15.5 27.0833 15.5 26.625C15.7083 26.625 15.8333 26.5417 15.875 26.375C15.9583 26.1667 16.1458 26.1042 16.4375 26.1875C16.8125 25.1875 17.2292 24.2708 17.6875 23.4375C18.1458 22.6042 18.6042 21.7708 19.0625 20.9375C19.5208 20.0625 19.9167 19.1667 20.25 18.25C20.625 17.3333 20.8958 16.3125 21.0625 15.1875C21.6458 15.1458 21.9583 14.875 22 14.375C22.0833 13.8333 22.1667 13.3542 22.25 12.9375C22.875 12.3542 23.3333 11.6667 23.625 10.875C23.9583 10.0833 24.25 9.27083 24.5 8.4375C24.75 7.5625 25.0208 6.70833 25.3125 5.875C25.6458 5 26.1042 4.22917 26.6875 3.5625V3.375C26.6875 3.16667 26.6042 3.04167 26.4375 3C26.2708 2.91667 26.1875 2.77083 26.1875 2.5625C26.2292 2.52083 26.25 2.47917 26.25 2.4375C26.75 2.22917 27.125 1.89583 27.375 1.4375C27.625 0.9375 28 0.583333 28.5 0.375C29.375 1.08333 30.1458 1.52083 30.8125 1.6875C31.4792 1.8125 32.3542 1.91667 33.4375 2C33.9792 2.58333 34.2708 3.29167 34.3125 4.125C34.3958 4.91667 34.5417 5.70833 34.75 6.5C35.0833 7.83333 35.4375 9.14583 35.8125 10.4375C36.2292 11.6875 36.5417 12.9792 36.75 14.3125C36.875 15.1042 37.1042 15.8542 37.4375 16.5625C37.7708 17.2708 38 18 38.125 18.75C38.2083 19.3333 38.2083 20 38.125 20.75C38.0417 21.4583 38.125 22.0833 38.375 22.625L38.8125 23.625C39.0208 24.0833 39.1875 24.5625 39.3125 25.0625C39.4792 25.5625 39.625 26.0625 39.75 26.5625C40.0833 27.8125 40.375 29.1667 40.625 30.625C40.9167 32.0417 41.3542 33.3333 41.9375 34.5C42.1458 34.9167 42.4583 35.2083 42.875 35.375C43.3333 35.5417 43.8333 35.6667 44.375 35.75C44.9167 35.7917 45.4375 35.8125 45.9375 35.8125C46.4792 35.7708 46.9375 35.75 47.3125 35.75H47.9375C48.1875 35.75 48.4375 35.7917 48.6875 35.875C48.8542 36.2083 48.9375 36.5 48.9375 36.75C48.9375 37.25 48.7708 37.6458 48.4375 37.9375C48.1042 38.2292 47.9375 38.5625 47.9375 38.9375C47.9375 39.1458 48.0208 39.375 48.1875 39.625C48.0208 39.5833 47.7708 39.5625 47.4375 39.5625C46.4792 39.5625 45.5417 39.7292 44.625 40.0625C44.9583 40.7708 45.3958 41.375 45.9375 41.875C46.5208 42.3333 47.125 42.7708 47.75 43.1875C48.1667 42.8542 48.6042 42.6875 49.0625 42.6875C49.5625 42.6875 50.0208 42.8125 50.4375 43.0625C50.8958 43.2708 51.375 43.375 51.875 43.375C52.25 43.375 52.5208 43.3125 52.6875 43.1875C53.0208 43.5625 53.2917 43.9583 53.5 44.375C53.7083 44.75 53.9792 45.1042 54.3125 45.4375ZM34.75 35.4375C34.6667 34.7292 34.5208 34.2292 34.3125 33.9375C34.1458 33.6042 34 33.2083 33.875 32.75C33.7083 32.1667 33.5833 31.5417 33.5 30.875C33.4583 30.2083 33.375 29.5625 33.25 28.9375C32.9583 27.5208 32.625 26.1042 32.25 24.6875C31.9167 23.2708 31.4792 21.8958 30.9375 20.5625C31.1042 20.3125 31.1875 20.0833 31.1875 19.875V19.6875C30.8125 19.2708 30.5417 18.7708 30.375 18.1875C30.2083 17.5625 30.0417 16.9583 29.875 16.375C29.75 15.75 29.5625 15.1875 29.3125 14.6875C29.1042 14.1458 28.75 13.7083 28.25 13.375C28.125 13.625 28.0625 13.9167 28.0625 14.25C28.0625 14.5417 28.0833 14.8125 28.125 15.0625C28.2083 15.3125 28.25 15.5833 28.25 15.875C27.8333 16.0833 27.5208 16.4167 27.3125 16.875C27.1458 17.2917 26.8542 17.625 26.4375 17.875C26.1042 19.2083 25.625 20.4792 25 21.6875C24.375 22.8542 23.7083 24.0208 23 25.1875C22.3333 26.3542 21.6875 27.5417 21.0625 28.75C20.4375 29.9167 19.9375 31.1458 19.5625 32.4375C19.0208 32.8125 18.6458 33.2917 18.4375 33.875C18.2708 34.4583 18.1875 35.0417 18.1875 35.625C18.5625 35.8333 18.9792 35.9583 19.4375 36C19.9375 36 20.4167 36 20.875 36C21.3333 36 21.7708 36.0417 22.1875 36.125C22.6042 36.2083 22.9792 36.4167 23.3125 36.75C23.8542 36.5833 24.4375 36.4792 25.0625 36.4375C25.7292 36.3542 26.2708 36.1667 26.6875 35.875C27.5208 36.1667 28.4167 36.3125 29.375 36.3125C29.875 36.3125 30.3542 36.2708 30.8125 36.1875C31.3125 36.1042 31.7917 36 32.25 35.875C32.625 35.9583 32.9167 36.1042 33.125 36.3125C33.3333 36.4792 33.6458 36.5417 34.0625 36.5C34.2708 36.3333 34.3958 36.1667 34.4375 36C34.4792 35.7917 34.5833 35.6042 34.75 35.4375Z" fill="black"/>
</svg>
