<svg width="48" height="55" viewBox="0 0 48 55" fill="none" xmlns="http://www.w3.org/2000/svg">
<path d="M0.4375 54C1.02083 54 1.64583 53.8542 2.3125 53.5625C2.97917 53.2708 3.54167 52.9375 4 52.5625C3.91667 52.0208 3.97917 51.625 4.1875 51.375C3.9375 51.2083 5.95833 48.5625 6 48.1875C7.125 47.6458 8.10417 44.375 8.9375 43.5C11.6268 37.1875 8.83333 36.4583 9.5 35.5C10.75 34.1667 12.5 33.1667 12.875 31.5C13.3333 31.4167 14.375 29.7708 14.5 29.4375C14.875 28.4375 16.1042 24.8333 16.5625 24C17.0208 23.1667 17.9792 21.7083 18.4375 20.875C18.8958 20 19.3542 18.7917 19.6875 17.875C19.7708 17.3333 20.7292 15.6667 20.8125 15.25C21.4375 14.6667 22.4583 13.2917 22.75 12.5C23.0833 11.7083 24.0625 7.70833 24.3125 6.875C24.5625 6.375 25 1.58333 25.5 1.375C26.375 2.08333 27.1458 2.52083 27.8125 2.6875C28.4792 2.8125 28.1667 5.04167 29.25 5.125C29.7917 5.70833 29.25 8 29.25 8C29.3333 8.79167 29.75 10.5 29.75 10.5C30.0833 11.8333 30.9375 14.0833 31.3125 15.375C31.6458 16.0833 33.125 21.9375 33.125 21.9375C33.2083 22.5208 33.8333 24.9375 33.75 25.6875C34.0833 26.9375 33.75 25.9375 34.4375 29.9375C34.7292 31.3542 36.1667 35.6458 36.75 36.8125M36.75 36.8125C36.9583 37.2292 42.4583 37.5833 42.875 37.75C43.3333 37.9167 47.5 36.375 47.5 36.375L44.9375 36.75M36.75 36.8125C37.0833 37.5208 38.8333 41.5 39.375 42C39.9583 42.4583 40.625 44.9583 41.25 45.375C41.6667 45.0417 42.4167 46.75 42.875 46.75C43.375 46.75 44.5208 48.4375 44.9375 48.6875C45.3958 48.8958 47 50.75 47.5 50.75M36.75 36.8125C36.5833 36.9792 33.1667 37.1042 33.125 37.3125C33.0833 37.4792 31.2708 37.3333 31.0625 37.5C30.6458 37.5417 30.3333 37.4792 30.125 37.3125C29.9167 37.1042 29.625 36.9583 29.25 36.875C28.7917 37 28.3125 37.1042 27.8125 37.1875C27.3542 37.2708 26.875 37.3125 26.375 37.3125C25.4167 37.3125 24.5208 37.1667 23.6875 36.875C23.2708 37.1667 22.7292 37.3542 22.0625 37.4375C21.4375 37.4792 20.8542 37.5833 20.3125 37.75C19.9792 37.4167 18.4792 37.8333 18.0625 37.75C17.6458 37.6667 16.2083 37.75 15.75 37.75C15.2917 37.75 13.375 37.5 12.875 37.5C10.9375 37.125 10.3125 36.5833 9.9375 36.375" stroke="black"/>
</svg>
