<svg width="73" height="89" viewBox="0 0 73 89" fill="none" xmlns="http://www.w3.org/2000/svg">
<path d="M38.2812 0.375C38.2812 1.29167 38.9583 1.75 40.3125 1.75L41.6562 1.0625C42.3229 1.52083 43.6771 1.75 45.7188 1.75L45.0312 3.09375C48.1771 3.09375 49.75 4.89583 49.75 8.5C52.9167 16.2083 55.625 24.0938 57.875 32.1562H59.2188C62.1771 30.3438 65.5521 29.4375 69.3438 29.4375H72.0625C72.0625 32.2292 69.8125 34.0312 65.3125 34.8438V35.5312H66.6562C66.6562 35.0729 66.8854 34.8438 67.3438 34.8438C67.3438 35.7396 68.4688 36.1875 70.7188 36.1875V37.5625C66.6562 38.9375 64.625 40.5104 64.625 42.2812V45L63.2812 44.3125V45C63.7188 45 63.9375 45.2188 63.9375 45.6562H61.25C61.25 48.0521 62.1458 53.0104 63.9375 60.5312C63.5 60.5312 63.2812 60.75 63.2812 61.1875H63.9375C63.9375 60.75 64.1667 60.5312 64.625 60.5312L69.3438 80.125C69.3438 82.2708 67.7708 84.0729 64.625 85.5312C62.6667 85.5312 60.8646 84.4062 59.2188 82.1562C58.8854 82.1562 57.5312 82.375 55.1562 82.8125C53.5312 82.8125 51.9583 78.7604 50.4375 70.6562C49.9792 70.6562 49.75 70.2083 49.75 69.3125H50.4375C49.9792 67.5208 49.3021 65.9479 48.4062 64.5938C48.4062 64.1354 48.6354 63.9062 49.0938 63.9062C48.1979 61.9688 47.2917 58.8125 46.375 54.4375C42.0625 54.4375 38.6875 56.4688 36.25 60.5312H33.5312C33.5312 59.5104 33.3125 58.6042 32.875 57.8125C28.375 59.1667 25.8958 60.5208 25.4375 61.875L24.75 63.2188L25.4375 64.5938C24.5417 66.4271 24.0938 67.7708 24.0938 68.625L24.75 70C24.1667 72.5417 22.1458 75.2396 18.6875 78.0938C15.5417 85.1771 13.7396 88.7812 13.2812 88.9062H9.90625C8.98958 88.9062 8.53125 88.4583 8.53125 87.5625V82.1562H7.875L9.21875 80.125V77.4062C8.73958 77.4062 8.0625 77.1875 7.1875 76.75C7.1875 77.1875 6.96875 77.4062 6.53125 77.4062L7.1875 78.7812C5.8125 83.7188 4.6875 86.1875 3.8125 86.1875H3.125C2.6875 86.1875 2.46875 85.9688 2.46875 85.5312L1.125 86.1875H0.4375V83.5L3.8125 73.375L5.15625 74.0312H5.84375V73.375H4.5V72.6875C5.39583 71.5417 6.96875 65.6875 9.21875 55.125V54.4375C9.21875 53.5417 7.86458 52.6458 5.15625 51.75V49.7188C9.69792 49.7188 12.4062 47.4688 13.2812 42.9688C13.8229 42.9688 14.7188 40.9375 15.9688 36.875H15.3125C15.75 35.5208 16.1979 34.8438 16.6562 34.8438L15.9688 33.5V32.8125C15.9688 32 17.0938 29.0729 19.3438 24.0312C18.9062 24.0312 18.6875 23.8125 18.6875 23.375H20.0312C20.0312 22.9167 19.8021 22.6875 19.3438 22.6875C19.8021 19.5417 20.4792 17.9688 21.375 17.9688L20.7188 16.5938C23.1354 9.38542 24.7083 5.78125 25.4375 5.78125H26.7812L28.125 6.46875C28.9167 2.86458 31.3958 1.0625 35.5625 1.0625C35.7917 1.0625 36.6979 0.833333 38.2812 0.375ZM39.625 12.5625C38.7292 15.9375 38.2812 17.9583 38.2812 18.625C39.6354 18.625 40.3125 19.5312 40.3125 21.3438H42.3438V20.6562C40.9896 18.8646 40.3125 16.1667 40.3125 12.5625H39.625ZM36.25 22C36.25 23.0208 36.0208 23.9271 35.5625 24.7188C36.0208 25.5938 36.25 26.2708 36.25 26.75C35.5417 26.9167 33.9688 31.1979 31.5312 39.5938L35.5625 40.25C35.5625 38.8958 37.3646 38 40.9688 37.5625V36.875C40.9688 35.25 39.625 30.2917 36.9375 22H36.25Z" fill="black"/>
</svg>
