<svg width="52" height="50" viewBox="0 0 52 50" fill="none" xmlns="http://www.w3.org/2000/svg">
<path d="M48.7812 17.4375C47.9062 17.7292 47.1354 18.1875 46.4688 18.8125C45.8021 19.3959 43.8438 20.5 43.8438 20.5C41.6354 21.4167 39.6354 21.6667 37.7188 23C35.8021 24.3334 18.3021 27.8334 16.7188 29.625C17.4688 29.625 34.7604 28.8959 35.4688 29.0625C36.2188 29.2292 36.9479 29.4167 37.6562 29.625C38.4062 29.7917 39.1354 29.9584 39.8438 30.125C40.5521 30.25 41.2812 30.2709 42.0312 30.1875C42.5729 30.6875 43.1771 31.1042 43.8438 31.4375C44.5521 31.7709 45.2396 32.0834 45.9062 32.3751C46.6146 32.6667 47.2812 33.0001 47.9062 33.3751C48.5729 33.7501 49.1562 34.2084 49.6562 34.7501C49.6562 34.8334 49.6354 34.9167 49.5938 35.0001C49.5938 35.0417 49.5938 35.1042 49.5938 35.1876C49.5938 35.5209 49.6771 35.8542 49.8438 36.1876C50.0104 36.4792 50.0938 36.7917 50.0938 37.1251C49.8854 37.4584 49.6979 37.8126 49.5312 38.1876C49.3646 38.5626 49.1562 38.8959 48.9062 39.1876C48.6979 39.4792 48.4479 39.7292 48.1562 39.9376C47.8646 40.1459 47.4688 40.2709 46.9688 40.3126C46.7604 41.0209 46.4271 41.5834 45.9688 42.0001C45.5104 42.3751 44.9896 42.7292 44.4062 43.0626C43.8646 43.3542 43.3229 43.6667 42.7812 44.0001C42.2396 44.2917 41.7812 44.6876 41.4062 45.1876C40.1562 45.4792 38.9271 45.8959 37.7188 46.4376C36.5521 46.9376 35.5104 47.6667 34.5938 48.6251C33.9688 48.7084 33.3229 48.8126 32.6562 48.9376C32.0312 49.0209 13.4688 46.4376 13.4688 46.4376M12.9062 44.3126L12.5312 49.0626C12.5312 47.6042 12.7812 41.1667 12.5312 39.7501C12.3229 38.3334 12.2188 36.8959 12.2188 35.4376C12.2188 34.7709 12.2396 34.1042 12.2812 33.4376C12.3646 32.7292 12.5729 32.0834 12.9062 31.5001C12.7812 30.5001 12.7188 29.4584 12.7188 28.375C12.7188 26.2084 12.8438 24.0417 13.0938 21.875C13.3438 19.7084 13.4688 17.5 13.4688 15.25C13.4688 14.7917 13.4479 14.3334 13.4062 13.875C13.4062 13.4167 13.3854 12.9584 13.3438 12.5L12.0938 7.31255M12.0938 7.31255C11.8438 7.31255 11.5938 7.25005 11.3438 7.12505C9.92708 7.79171 8.55208 8.31255 7.21875 8.68755C5.88542 9.02088 4.40625 9.16672 2.78125 9.12505C2.19792 9.41672 1.57292 9.66672 0.90625 9.87505M12.0938 7.31255C12.3021 7.31255 12.5104 7.29171 12.7188 7.25005L13.3438 7.12505C13.8438 6.70838 14.3854 6.43755 14.9688 6.31255C15.5521 6.18755 16.1354 6.08338 16.7188 6.00005C17.3021 5.91671 17.8646 5.83338 18.4062 5.75005C18.9479 5.62505 19.4271 5.39588 19.8438 5.06255H20.0938C21.0938 5.06255 22.0938 4.89588 23.0938 4.56255C24.1354 4.22922 25.1354 4.10422 26.0938 4.18755C26.9271 3.72922 27.6979 3.43755 28.4062 3.31255C29.1146 3.18755 29.9271 3.12505 30.8438 3.12505C31.0521 3.12505 31.3021 3.04172 31.5938 2.87505C31.8854 2.66672 32.2396 2.56255 32.6562 2.56255C32.7396 2.56255 32.8021 2.58338 32.8438 2.62505C32.9271 2.62505 33.0104 2.62505 33.0938 2.62505C33.4688 2.62505 33.7188 2.50005 33.8438 2.25005C34.0104 2.00005 34.4062 1.87505 35.0312 1.87505C35.3229 1.87505 35.5938 1.89588 35.8438 1.93755M35.8438 1.93755C36.0938 1.93755 36.3438 1.93755 36.5938 1.93755C36.8854 1.93755 37.0729 1.83338 37.1562 1.62505C37.2396 1.37505 37.4271 1.27088 37.7188 1.31255C37.8438 1.47922 38.0521 1.56255 38.3438 1.56255M35.8438 1.93755C36.5104 1.52088 40.9271 1.06255 41.7188 0.93755C42.5521 0.81255 48.1562 7.40601 44.4062 3.31253M44.4062 4.18755C44.6979 4.18755 47.9062 6.31255 48.9062 8.68755C53.3125 12.875 48.7812 17.4375 47.9062 17.8022" stroke="black"/>
</svg>
