<svg width="60" height="50" viewBox="0 0 60 50" fill="none" xmlns="http://www.w3.org/2000/svg">
<path d="M59.8438 7.9375C59.8438 8.3125 59.7604 8.66667 59.5938 9L59.1562 9.9375C59.0312 10.2292 58.9062 10.5417 58.7812 10.875C58.6562 11.2083 58.6146 11.6042 58.6562 12.0625C58.0729 12.7292 57.4896 13.375 56.9062 14C56.3229 14.625 55.8021 15.3333 55.3438 16.125C54.8854 16.0833 54.5312 16.1875 54.2812 16.4375C54.0729 16.6875 53.9062 17.0208 53.7812 17.4375C52.9062 17.7292 52.1354 18.1875 51.4688 18.8125C50.8021 19.3958 50.2188 20.0417 49.7188 20.75C47.5104 21.6667 45.4479 22.7917 43.5312 24.125C41.6146 25.4583 39.8646 27.0208 38.2812 28.8125C39.0312 28.8125 39.7604 28.8958 40.4688 29.0625C41.2188 29.2292 41.9479 29.4167 42.6562 29.625C43.4062 29.7917 44.1354 29.9583 44.8438 30.125C45.5521 30.25 46.2812 30.2708 47.0312 30.1875C47.5729 30.6875 48.1771 31.1042 48.8438 31.4375C49.5521 31.7708 50.2396 32.0833 50.9062 32.375C51.6146 32.6667 52.2812 33 52.9062 33.375C53.5729 33.75 54.1562 34.2083 54.6562 34.75C54.6562 34.8333 54.6354 34.9167 54.5938 35C54.5938 35.0417 54.5938 35.1042 54.5938 35.1875C54.5938 35.5208 54.6771 35.8542 54.8438 36.1875C55.0104 36.4792 55.0938 36.7917 55.0938 37.125C54.8854 37.4583 54.6979 37.8125 54.5312 38.1875C54.3646 38.5625 54.1562 38.8958 53.9062 39.1875C53.6979 39.4792 53.4479 39.7292 53.1562 39.9375C52.8646 40.1458 52.4688 40.2708 51.9688 40.3125C51.7604 41.0208 51.4271 41.5833 50.9688 42C50.5104 42.375 49.9896 42.7292 49.4062 43.0625C48.8646 43.3542 48.3229 43.6667 47.7812 44C47.2396 44.2917 46.7812 44.6875 46.4062 45.1875C45.1562 45.4792 43.9271 45.8958 42.7188 46.4375C41.5521 46.9375 40.5104 47.6667 39.5938 48.625C38.9688 48.7083 38.3229 48.8125 37.6562 48.9375C37.0312 49.0208 36.4062 49.0625 35.7812 49.0625C34.9062 49.0625 34.1979 48.8958 33.6562 48.5625C33.1146 48.1875 32.8021 47.5208 32.7188 46.5625C32.8438 46.2708 33.0312 46.0208 33.2812 45.8125L34.0938 45.1875C34.3854 44.9792 34.6354 44.7708 34.8438 44.5625C35.0938 44.3125 35.2812 44.0208 35.4062 43.6875C35.4896 43.6875 35.5938 43.7083 35.7188 43.75C35.8438 43.75 35.9688 43.75 36.0938 43.75C36.5938 43.75 36.9896 43.6458 37.2812 43.4375C37.5729 43.2292 37.8438 43.0208 38.0938 42.8125C38.3854 42.6042 38.6979 42.4167 39.0312 42.25C39.3646 42.0833 39.8021 42.0208 40.3438 42.0625C40.6354 41.5208 41.0729 41.125 41.6562 40.875C42.2396 40.5833 42.8438 40.3333 43.4688 40.125C44.0938 39.875 44.6771 39.6042 45.2188 39.3125C45.8021 38.9792 46.1979 38.5 46.4062 37.875C46.1979 37.5417 45.9271 37.2917 45.5938 37.125C45.2604 36.9167 44.8854 36.75 44.4688 36.625L43.2812 36.25C42.9062 36.125 42.5729 35.9792 42.2812 35.8125C41.8229 35.9375 41.3854 36 40.9688 36C40.0938 36 39.2396 35.9167 38.4062 35.75C37.5729 35.5833 36.7188 35.5 35.8438 35.5C35.0521 35.5 34.3646 35.6042 33.7812 35.8125C33.5729 35.7708 33.3438 35.7083 33.0938 35.625C32.8854 35.5417 32.6771 35.4583 32.4688 35.375C31.5104 35.75 30.5104 35.9375 29.4688 35.9375H25.4062C25.0729 35.9375 24.7396 35.9792 24.4062 36.0625C23.9479 36.8958 23.7188 37.7917 23.7188 38.75C23.7188 39.4583 23.8229 40.1458 24.0312 40.8125C24.2396 41.4375 24.4479 42.1042 24.6562 42.8125C25.4896 43.5625 26.2604 44.4583 26.9688 45.5C27.6771 46.5 28.0312 47.6042 28.0312 48.8125C28.0312 49.1042 28.0104 49.3333 27.9688 49.5C27.5521 49.2083 27.0104 49.0625 26.3438 49.0625C25.7604 49.0625 25.1979 49.1458 24.6562 49.3125C24.1562 49.4792 23.6146 49.6042 23.0312 49.6875C22.5729 49.4792 22.0938 49.2708 21.5938 49.0625C21.0938 48.8125 20.6146 48.5208 20.1562 48.1875C19.8229 47.4792 19.4896 46.8125 19.1562 46.1875C18.8229 45.5208 18.4062 44.8958 17.9062 44.3125V44.0625C17.9062 42.6042 17.7812 41.1667 17.5312 39.75C17.3229 38.3333 17.2188 36.8958 17.2188 35.4375C17.2188 34.7708 17.2396 34.1042 17.2812 33.4375C17.3646 32.7292 17.5729 32.0833 17.9062 31.5C17.7812 30.5 17.7188 29.4583 17.7188 28.375C17.7188 26.2083 17.8438 24.0417 18.0938 21.875C18.3438 19.7083 18.4688 17.5 18.4688 15.25C18.4688 14.7917 18.4479 14.3333 18.4062 13.875C18.4062 13.4167 18.3854 12.9583 18.3438 12.5H18.0938C17.5521 12.5 17.0312 12.5833 16.5312 12.75C16.0312 12.875 15.5312 13.0208 15.0312 13.1875C14.5312 13.3542 14.0104 13.5208 13.4688 13.6875C12.9271 13.8125 12.3854 13.875 11.8438 13.875C11.5104 14.0417 11.2396 14.2083 11.0312 14.375C10.8229 14.5417 10.6146 14.6875 10.4062 14.8125C10.1979 14.9375 9.96875 15.0417 9.71875 15.125C9.42708 15.2083 9.09375 15.2292 8.71875 15.1875C8.26042 15.4792 7.90625 15.7083 7.65625 15.875C7.36458 16 6.96875 16.1458 6.46875 16.3125C6.21875 16.3958 6.01042 16.5208 5.84375 16.6875L5.34375 17.125C5.17708 17.25 4.98958 17.375 4.78125 17.5C4.57292 17.625 4.30208 17.6875 3.96875 17.6875C3.67708 17.6875 3.46875 17.6667 3.34375 17.625C3.09375 17.4167 2.88542 17.1667 2.71875 16.875C2.51042 16.5833 2.32292 16.3125 2.15625 16.0625C1.94792 15.7708 1.73958 15.5208 1.53125 15.3125C1.28125 15.0625 0.989583 14.875 0.65625 14.75C0.822917 14.5417 0.90625 14.375 0.90625 14.25C0.864583 14.0833 0.84375 13.8958 0.84375 13.6875C0.84375 13.5625 0.864583 13.4792 0.90625 13.4375C1.11458 12.6875 1.48958 12.1042 2.03125 11.6875C2.57292 11.2292 3.17708 10.875 3.84375 10.625C4.51042 10.3333 5.19792 10.0833 5.90625 9.875C6.57292 9.66667 7.19792 9.41667 7.78125 9.125C9.40625 9.16667 10.8854 9.02083 12.2188 8.6875C13.5521 8.3125 14.9271 7.79167 16.3438 7.125C16.5938 7.25 16.8438 7.3125 17.0938 7.3125C17.3021 7.3125 17.5104 7.29167 17.7188 7.25L18.3438 7.125C18.8438 6.70833 19.3854 6.4375 19.9688 6.3125C20.5521 6.1875 21.1354 6.08333 21.7188 6C22.3021 5.91667 22.8646 5.83333 23.4062 5.75C23.9479 5.625 24.4271 5.39583 24.8438 5.0625H25.0938C26.0938 5.0625 27.0938 4.89583 28.0938 4.5625C29.1354 4.22917 30.1354 4.10417 31.0938 4.1875C31.9271 3.72917 32.6979 3.4375 33.4062 3.3125C34.1146 3.1875 34.9271 3.125 35.8438 3.125C36.0521 3.125 36.3021 3.04167 36.5938 2.875C36.8854 2.66667 37.2396 2.5625 37.6562 2.5625C37.7396 2.5625 37.8021 2.58333 37.8438 2.625C37.9271 2.625 38.0104 2.625 38.0938 2.625C38.4688 2.625 38.7188 2.5 38.8438 2.25C39.0104 2 39.4062 1.875 40.0312 1.875C40.3229 1.875 40.5938 1.89583 40.8438 1.9375C41.0938 1.9375 41.3438 1.9375 41.5938 1.9375C41.8854 1.9375 42.0729 1.83333 42.1562 1.625C42.2396 1.375 42.4271 1.27083 42.7188 1.3125C42.8438 1.47917 43.0521 1.5625 43.3438 1.5625C43.6354 1.52083 43.8646 1.5 44.0312 1.5C44.3229 1.5 44.4896 1.58333 44.5312 1.75C45.1979 1.33333 45.9271 1.0625 46.7188 0.9375C47.5521 0.8125 48.3438 0.75 49.0938 0.75C49.3854 0.75 49.6771 0.770833 49.9688 0.8125C50.2604 0.8125 50.5729 0.833333 50.9062 0.875C51.2812 0.625 51.7188 0.5 52.2188 0.5C52.5104 0.5 52.9688 0.625 53.5938 0.875C54.2604 1.125 54.9479 1.41667 55.6562 1.75C56.3646 2.08333 57.0104 2.4375 57.5938 2.8125C58.1771 3.1875 58.5312 3.5 58.6562 3.75C58.7396 3.83333 58.7812 4.02083 58.7812 4.3125C58.8229 4.60417 58.8854 4.85417 58.9688 5.0625C59.1771 5.5625 59.3646 6.04167 59.5312 6.5C59.7396 6.91667 59.8438 7.39583 59.8438 7.9375ZM52.9062 8.625C52.9062 8.54167 52.8854 8.45833 52.8438 8.375C52.8438 8.25 52.8438 8.14583 52.8438 8.0625C52.6354 7.8125 52.3438 7.625 51.9688 7.5C51.6354 7.375 51.2604 7.27083 50.8438 7.1875C50.4688 7.10417 50.0729 7.04167 49.6562 7C49.2812 6.91667 48.9479 6.8125 48.6562 6.6875C47.7812 6.97917 46.8229 7.125 45.7812 7.125C44.8229 7.125 43.9688 6.97917 43.2188 6.6875C42.8438 7.0625 42.3646 7.35417 41.7812 7.5625C41.1979 7.77083 40.5729 7.9375 39.9062 8.0625C39.2812 8.14583 38.6354 8.20833 37.9688 8.25C37.3438 8.25 36.7812 8.25 36.2812 8.25C36.1146 8.25 35.8229 8.375 35.4062 8.625C34.9896 8.875 34.6146 9 34.2812 9C34.0312 9 33.8021 8.89583 33.5938 8.6875C33.2188 8.97917 32.6979 9.22917 32.0312 9.4375C31.3646 9.64583 30.6771 9.83333 29.9688 10C29.2604 10.125 28.5312 10.2708 27.7812 10.4375C27.0729 10.6042 26.4688 10.7708 25.9688 10.9375C25.4688 12.0208 25.1979 13.2083 25.1562 14.5C25.1146 15.75 25.0938 16.9792 25.0938 18.1875C25.0938 18.8958 25.0521 19.5833 24.9688 20.25C24.8854 20.9167 24.8438 21.6042 24.8438 22.3125C24.8438 22.6458 24.8646 23 24.9062 23.375C24.9479 23.7083 25.0729 24.0417 25.2812 24.375C24.9479 24.625 24.7188 24.9583 24.5938 25.375C24.5104 25.75 24.4688 26.125 24.4688 26.5C24.4688 26.9583 24.5104 27.375 24.5938 27.75C24.6771 28.125 24.7604 28.4792 24.8438 28.8125C26.1771 28.6875 27.3854 28.4375 28.4688 28.0625C29.5938 27.6875 30.6354 27.2292 31.5938 26.6875C32.5938 26.1458 33.5521 25.5208 34.4688 24.8125C35.3854 24.1042 36.3438 23.3542 37.3438 22.5625C37.7604 22.4792 38.0938 22.3542 38.3438 22.1875C38.6354 22.0208 38.9896 21.9375 39.4062 21.9375C39.5729 21.3542 39.8854 20.9583 40.3438 20.75C40.8021 20.5 41.1562 20.1458 41.4062 19.6875C41.9062 19.5625 42.3229 19.3958 42.6562 19.1875C43.0312 18.9375 43.3854 18.7083 43.7188 18.5C44.0521 18.25 44.4062 18.0208 44.7812 17.8125C45.1979 17.6042 45.6562 17.4792 46.1562 17.4375C46.8646 16.6042 47.5938 15.7708 48.3438 14.9375C49.1354 14.1042 50.0521 13.4375 51.0938 12.9375C51.2604 12.5208 51.4479 12.1667 51.6562 11.875C51.8646 11.5417 52.0521 11.2292 52.2188 10.9375C52.4271 10.6042 52.5938 10.2708 52.7188 9.9375C52.8438 9.5625 52.9062 9.125 52.9062 8.625Z" fill="black"/>
</svg>
