<svg width="50" height="40" viewBox="0 0 50 40" fill="none" xmlns="http://www.w3.org/2000/svg">
<path d="M49.125 32.8125C48.9167 33.0625 48.6458 33.2917 48.3125 33.5C48.0208 33.7083 47.7083 33.8958 47.375 34.0625C47.0833 34.2292 46.8125 34.4375 46.5625 34.6875C46.3958 34.8542 46.2708 35.0625 46.1875 35.3125C46.1458 35.5208 46.0417 35.6667 45.875 35.75C45.625 35.9583 45.3542 36.0833 45.0625 36.125C44.7708 36.1667 44.4583 36.2292 44.125 36.3125C43.8333 36.3542 43.5417 36.4375 43.25 36.5625C42.9583 36.6458 42.7083 36.8333 42.5 37.125C40.5417 37.3333 38.6042 37.6042 36.6875 37.9375C34.8125 38.2708 32.875 38.4375 30.875 38.4375C30.5 38.4375 30.0833 38.4792 29.625 38.5625C29.2083 38.6042 28.8125 38.6458 28.4375 38.6875C27.5625 38.7708 26.6875 38.8333 25.8125 38.875C24.9792 38.9167 24.125 38.9375 23.25 38.9375C22.0417 38.9375 20.8333 38.8958 19.625 38.8125C18.4167 38.6875 17.2292 38.5 16.0625 38.25C15.7708 38.0417 15.4375 37.875 15.0625 37.75C14.6875 37.625 14.2917 37.5 13.875 37.375C13.5 37.25 13.1458 37.1042 12.8125 36.9375C12.4792 36.7708 12.2292 36.5208 12.0625 36.1875C11.4375 36.1458 10.875 36.0208 10.375 35.8125C9.91667 35.6042 9.47917 35.375 9.0625 35.125C8.6875 34.8333 8.29167 34.5417 7.875 34.25C7.45833 33.9583 6.97917 33.7083 6.4375 33.5C6.02083 32.9167 5.58333 32.3542 5.125 31.8125C4.70833 31.2292 4.1875 30.75 3.5625 30.375C3.4375 29.5833 3.22917 28.7917 2.9375 28C2.6875 27.2083 2.41667 26.4375 2.125 25.6875C1.875 24.8958 1.66667 24.1042 1.5 23.3125C1.29167 22.5208 1.1875 21.7083 1.1875 20.875C1.1875 20.2917 1.27083 19.5833 1.4375 18.75C1.60417 17.9167 1.8125 17.0833 2.0625 16.25C2.35417 15.375 2.6875 14.5625 3.0625 13.8125C3.4375 13.0625 3.8125 12.4583 4.1875 12C4.3125 11.875 4.45833 11.7708 4.625 11.6875C4.79167 11.6042 4.9375 11.4792 5.0625 11.3125C5.4375 10.8958 5.83333 10.5625 6.25 10.3125C6.66667 10.0208 7.10417 9.6875 7.5625 9.3125C7.72917 9.14583 7.85417 8.95833 7.9375 8.75C8.0625 8.54167 8.22917 8.35417 8.4375 8.1875C8.5625 8.10417 8.72917 8.08333 8.9375 8.125C9.1875 8.16667 9.39583 8.125 9.5625 8C9.72917 7.875 9.8125 7.72917 9.8125 7.5625C9.8125 7.39583 9.875 7.25 10 7.125C10.0417 7.08333 10.1667 7.08333 10.375 7.125C10.5833 7.125 10.7083 7.125 10.75 7.125C11.0417 7.125 11.375 6.9375 11.75 6.5625C12.125 6.14583 12.4375 5.875 12.6875 5.75C12.9792 5.58333 13.2708 5.47917 13.5625 5.4375C13.8542 5.35417 14.1667 5.22917 14.5 5.0625C14.9583 4.8125 15.3958 4.625 15.8125 4.5C16.2708 4.33333 16.7292 4.14583 17.1875 3.9375C17.4375 3.85417 17.6667 3.70833 17.875 3.5C18.0833 3.29167 18.2917 3.14583 18.5 3.0625C18.875 2.9375 19.2708 2.85417 19.6875 2.8125C20.1458 2.72917 20.5625 2.66667 20.9375 2.625C21.3542 2.54167 21.75 2.45833 22.125 2.375C22.5417 2.25 22.9167 2.04167 23.25 1.75H23.75C24.5 1.75 25.2292 1.64583 25.9375 1.4375C26.6458 1.22917 27.375 1.125 28.125 1.125C28.3333 1.125 28.6458 1.16667 29.0625 1.25C29.3958 1.04167 29.7708 0.9375 30.1875 0.9375C30.8958 0.9375 31.6042 1.125 32.3125 1.5C33.0208 1.83333 33.75 2 34.5 2H34.875C35.0417 2 35.2083 1.97917 35.375 1.9375C35.8333 2.39583 36.375 2.64583 37 2.6875C37.6667 2.72917 38.2292 2.91667 38.6875 3.25C38.9792 3.5 39.2083 3.79167 39.375 4.125C39.5833 4.45833 39.75 4.8125 39.875 5.1875L40.25 6.3125C40.375 6.6875 40.5417 7.02083 40.75 7.3125C40.5417 8.8125 39.9167 10.0208 38.875 10.9375" stroke="black"/>
</svg>
