<svg width="48" height="47" viewBox="0 0 48 47" fill="none" xmlns="http://www.w3.org/2000/svg">
<path d="M47.4375 16.1875C47.4375 16.6042 47.2917 16.875 47 17C46.7083 17.125 46.5625 17.375 46.5625 17.75C46.5625 17.875 46.6042 17.9792 46.6875 18.0625C46.7708 18.1458 46.8125 18.2708 46.8125 18.4375V18.6875C46.3125 21.1042 45.5833 23.2083 44.625 25C43.7083 26.7917 42.625 28.4375 41.375 29.9375C40.125 31.4375 38.7083 32.8542 37.125 34.1875C35.5833 35.5208 33.9167 36.9167 32.125 38.375C31.625 38.7917 31.1042 39.2083 30.5625 39.625C30.0625 40.0417 29.5833 40.4792 29.125 40.9375L27.75 42.25C27.7083 42.2917 27.4792 42.3958 27.0625 42.5625C26.6458 42.6875 26.3958 42.7708 26.3125 42.8125C25.7292 43.0625 25.1042 43.3542 24.4375 43.6875C23.8125 44.0208 23.2708 44.4375 22.8125 44.9375C21.9792 44.9375 21.2708 45.0625 20.6875 45.3125C20.1042 45.5625 19.4583 45.8958 18.75 46.3125C18.5417 46.3125 18.3542 46.2708 18.1875 46.1875C18.0625 46.1042 17.9167 46.0208 17.75 45.9375C17.5833 45.8542 17.3958 45.8125 17.1875 45.8125C17.0208 45.7708 16.7917 45.7917 16.5 45.875C16 45.0417 15.4583 44.3333 14.875 43.75C14.2917 43.1667 13.5 42.8125 12.5 42.6875C12.375 41.9792 12.0833 41.4375 11.625 41.0625C11.1667 40.6458 10.7083 40.2083 10.25 39.75C10.1667 39.5 10.1042 39.2083 10.0625 38.875C10.0208 38.5417 9.9375 38.2292 9.8125 37.9375C9.6875 37.6458 9.52083 37.3958 9.3125 37.1875C9.10417 36.9792 8.8125 36.875 8.4375 36.875C8.39583 36.625 8.5 36.5 8.75 36.5C9 36.5 9.125 36.3958 9.125 36.1875C9.125 35.9375 9.08333 35.6875 9 35.4375C8.91667 35.1875 8.875 34.9167 8.875 34.625C8.875 34.4167 8.89583 34.2292 8.9375 34.0625C8.97917 33.8958 9.04167 33.7083 9.125 33.5C9 32.375 8.9375 31.2292 8.9375 30.0625C8.9375 27.8125 9.08333 25.6042 9.375 23.4375C9.70833 21.2292 9.875 19 9.875 16.75C9.875 15.75 9.8125 14.75 9.6875 13.75C9.60417 12.75 9.41667 11.7708 9.125 10.8125C8.16667 11.0208 7.20833 11.2708 6.25 11.5625C5.29167 11.8125 4.39583 12.1667 3.5625 12.625C3.10417 12.3333 2.625 12.1667 2.125 12.125C1.58333 12.0417 1.0625 11.9167 0.5625 11.75C0.270833 11.1667 0.125 10.5625 0.125 9.9375C0.125 9.35417 0.229167 8.79167 0.4375 8.25L1.0625 6.625C2.0625 6.41667 3.0625 6.10417 4.0625 5.6875C5.02083 5.27083 6 4.89583 7 4.5625C7.33333 4.47917 7.75 4.375 8.25 4.25C8.79167 4.125 9.16667 4.02083 9.375 3.9375C9.66667 3.8125 9.85417 3.58333 9.9375 3.25C10.0625 2.875 10.2292 2.5625 10.4375 2.3125H11.5C11.75 2.3125 12.0208 2.33333 12.3125 2.375C12.6042 2.375 12.875 2.4375 13.125 2.5625C14.625 2.1875 16.125 1.95833 17.625 1.875C19.125 1.75 20.6667 1.58333 22.25 1.375C22.4167 1.375 22.6667 1.35417 23 1.3125L24.0625 1.125C24.4375 1.04167 24.7708 0.979167 25.0625 0.9375C25.3958 0.854167 25.625 0.8125 25.75 0.8125C25.875 0.8125 25.9375 0.875 25.9375 1H27C28.7917 1 30.5417 1.22917 32.25 1.6875L37.375 3.0625C38.0833 3.64583 38.7917 4.20833 39.5 4.75C40.2083 5.29167 41 5.77083 41.875 6.1875C42.0833 6.85417 42.3958 7.39583 42.8125 7.8125C43.2708 8.1875 43.7708 8.60417 44.3125 9.0625C44.5208 9.60417 44.7917 10.1875 45.125 10.8125C45.5 11.3958 45.8542 12 46.1875 12.625C46.5208 13.25 46.8125 13.875 47.0625 14.5C47.3125 15.0833 47.4375 15.6458 47.4375 16.1875Z"/>
</svg>
