<svg width="48" height="47" viewBox="0 0 48 47" fill="none" xmlns="http://www.w3.org/2000/svg">
<path d="M10.1875 4C10.3125 5 9.625 15.5 9.625 16.5C9.625 18.75 9.45833 20.9792 9.125 23.1875C8.83333 25.3542 8.6875 27.5625 8.6875 29.8125C8.6875 30.9792 8.75 32.125 8.875 33.25C8.79167 33.4583 8.72917 33.6458 8.6875 33.8125C8.64583 33.9792 8.625 34.1667 8.625 34.375C8.625 34.6667 8.66667 34.9375 8.75 35.1875C8.83333 35.4375 8.875 35.6875 8.875 35.9375C8.875 36.1458 8.75 36.25 8.5 36.25C8.25 36.25 8.14583 36.375 8.1875 36.625C8.5625 36.625 8.85417 36.7292 9.0625 36.9375C9.27083 37.1458 9.4375 37.3958 9.5625 37.6875C9.6875 37.9792 9.77083 38.2917 9.8125 38.625C9.85417 38.9583 9.91667 39.25 10 39.5C10.4583 39.9583 10.9167 40.3958 11.375 40.8125C11.8333 41.1875 12.125 41.7292 12.25 42.4375C13.25 42.5625 14.0417 42.9167 14.625 43.5C15.2083 44.0833 15.75 44.7917 16.25 45.625C16.5417 45.5417 16.7708 45.5208 16.9375 45.5625C17.1458 45.5625 17.3333 45.6042 17.5 45.6875C17.6667 45.7708 17.8125 45.8542 17.9375 45.9375C18.1042 46.0208 18.2917 46.0625 18.5 46.0625C19.2083 45.6458 19.8542 45.3125 20.4375 45.0625C21.0208 44.8125 21.7292 44.6875 22.5625 44.6875C23.0208 44.1875 23.5625 43.7708 24.1875 43.4375C24.8542 43.1042 25.4792 42.8125 26.0625 42.5625C26.1458 42.5208 26.3958 42.4375 26.8125 42.3125C27.2292 42.1458 27.4583 42.0417 27.5 42L28.875 40.6875C29.3333 40.2292 29.8125 39.7917 30.3125 39.375C30.8542 38.9583 31.375 38.5417 31.875 38.125C33.6667 36.6667 35.3333 35.2708 36.875 33.9375C38.4583 32.6042 39.875 31.1875 41.125 29.6875C42.375 28.1875 43.4583 26.5417 44.375 24.75C45.3333 22.9583 46.0625 20.8542 46.5625 18.4375V18.1875C46.5625 18.0208 46.5208 17.8958 46.4375 17.8125C46.3542 17.7292 46.3125 17.625 46.3125 17.5C46.3125 17.125 46.4583 16.875 46.75 16.75C47.0417 16.625 47.1875 16.3542 47.1875 15.9375C47.1875 15.3958 47.0625 14.8333 46.8125 14.25C46.5625 13.625 46.2708 13 45.9375 12.375C45.6042 11.75 45.25 11.1458 44.875 10.5625C44.5417 9.9375 44.2708 9.35417 44.0625 8.8125C43.5208 8.35417 43.0208 7.9375 42.5625 7.5625C42.1458 7.14583 41.8333 6.60417 41.625 5.9375C40.75 5.52083 39.9583 5.04167 39.25 4.5C38.5417 3.95833 37.8333 3.39583 37.125 2.8125L32 1.4375C30.2917 0.979167 28.5417 0.75 26.75 0.75H25.6875C25.6875 0.625 25.625 0.5625 25.5 0.5625C25.375 0.5625 25.1458 0.604167 24.8125 0.6875C24.5208 0.729167 24.1875 0.791667 23.8125 0.875L22.75 1.0625C22.4167 1.10417 22.1667 1.125 22 1.125C20.4167 1.33333 18.875 1.5 17.375 1.625C15.875 1.70833 14.375 1.9375 12.875 2.3125C12.625 2.1875 12.3542 2.125 12.0625 2.125C11.7708 2.08333 11.5 2.0625 11.25 2.0625H10.1875C9.97917 2.3125 9.8125 2.625 9.6875 3C9.60417 3.33333 9.41667 3.5625 9.125 3.6875C8.91667 3.77083 8.54167 3.875 8 4C7.5 4.125 7.08333 4.22917 6.75 4.3125C5.75 4.64583 4.77083 5.02083 3.8125 5.4375C2.8125 5.85417 1.8125 6.16667 0.8125 6.375" stroke="black"/>
</svg>
