<svg width="42" height="52" viewBox="0 0 42 52" fill="none" xmlns="http://www.w3.org/2000/svg">
<path d="M30.7188 21.75H30.0312C29.0312 21.75 28.0521 21.8958 27.0938 22.1875C26.1771 22.4375 25.2396 22.75 24.2812 23.125C23.3646 23.4583 22.4271 23.7708 21.4688 24.0625C20.5521 24.3125 19.5938 24.4375 18.5938 24.4375C18.4271 24.4375 18.3229 24.5417 18.2812 24.75C18.2812 24.9167 18.2396 25.0417 18.1562 25.125C17.9479 25.0833 17.6354 25.0625 17.2188 25.0625C16.2604 25.0625 15.3438 25.1667 14.4688 25.375C13.5938 25.5833 12.6979 25.6875 11.7812 25.6875C11.5312 25.6875 11.2812 25.6875 11.0312 25.6875C10.7812 25.6458 2.21875 26.0417 1.96875 26M1.96875 26C1.88542 26.2917 1.82292 26.625 1.78125 27C1.78125 27.375 1.76042 27.75 1.71875 28.125C1.67708 28.5 1.61458 28.875 1.53125 29.25C1.40625 29.5833 1.26042 29.8542 1.09375 30.0625C1.26042 30.5625 1.34375 31.1458 1.34375 31.8125C1.34375 32.4792 1.30208 33.1458 1.21875 33.8125C1.13542 34.4375 1.09375 35.0833 1.09375 35.75C1.09375 36.2083 1.13542 36.6042 1.21875 36.9375C1.30208 37.2708 1.40625 37.6667 1.53125 38.125C1.57292 38.1667 1.59375 38.2292 1.59375 38.3125C1.59375 38.5208 1.51042 38.6458 1.34375 38.6875C1.17708 38.7292 1.09375 38.8542 1.09375 39.0625V39.25C1.51042 40.3333 1.90625 41.4583 2.28125 42.625C2.65625 43.7917 3.13542 44.875 3.71875 45.875C4.34375 46.875 5.09375 47.7083 5.96875 48.375C6.84375 49.0833 7.98958 49.4792 9.40625 49.5625C9.32292 49.9375 9.42708 50.1458 9.71875 50.1875C10.0521 50.2708 10.3021 50.4167 10.4688 50.625C11.0521 50.625 11.5938 50.5833 12.0938 50.5C12.5938 50.4583 13.0938 50.4375 13.5938 50.4375C14.1771 50.4375 14.7188 50.5 15.2188 50.625C16.3021 50.0417 17.3854 49.4375 18.4688 48.8125C19.5938 48.1875 20.7604 47.6875 21.9688 47.3125C22.3021 46.8958 22.6562 46.5208 23.0312 46.1875C23.4062 45.8958 23.8229 45.5833 24.2812 45.25C24.6979 45.0833 24.9688 44.9375 25.0938 44.8125C25.7188 44.3125 26.3438 43.6042 26.9688 42.6875C27.6354 41.7292 28.2604 40.7292 28.8438 39.6875C29.4271 38.6458 29.9688 37.6042 30.4688 36.5625C30.9688 35.5208 31.4062 34.625 31.7812 33.875M1.96875 26C1.80208 25.5417 1.65625 25.1458 1.53125 24.8125C1.40625 24.4375 1.34375 24 1.34375 23.5V23.0625C1.76042 22.3542 2.11458 21.625 2.40625 20.875C2.69792 20.125 3.01042 19.3542 3.34375 18.5625V18.375C3.34375 17.1667 3.30208 15.9583 3.21875 14.75C3.13542 13.5417 3.09375 12.3333 3.09375 11.125V9.9375C3.09375 9.52083 3.11458 9.125 3.15625 8.75C3.48958 8.58333 3.73958 8.35417 3.90625 8.0625C4.07292 7.77083 4.32292 7.54167 4.65625 7.375H6.71875L7.09375 6.75C7.21875 6.54167 7.30208 6.3125 7.34375 6.0625C7.80208 5.9375 8.23958 5.77083 8.65625 5.5625C9.11458 5.3125 9.53125 5.0625 9.90625 4.8125C10.4896 4.47917 11.0104 4.1875 11.4688 3.9375C11.9688 3.64583 12.4479 3.41667 12.9062 3.25C13.4062 3.04167 13.9271 2.875 14.4688 2.75C15.0104 2.625 15.6354 2.52083 16.3438 2.4375C16.6771 2.4375 16.8854 2.375 16.9688 2.25C17.0938 2.125 17.2604 1.97917 17.4688 1.8125C17.9688 1.89583 18.4688 1.97917 18.9688 2.0625C19.4688 2.10417 19.9688 2.125 20.4688 2.125C21.4688 2.125 22.4062 1.9375 23.2812 1.5625C24.5312 1.5625 25.7604 1.54167 26.9688 1.5C28.2188 1.45833 29.4688 1.4375 30.7188 1.4375C31.8021 1.4375 32.8854 1.47917 33.9688 1.5625C35.0521 1.64583 36.1146 1.79167 37.1562 2C37.5312 1.875 37.9479 1.8125 38.4062 1.8125C38.9062 1.8125 39.4062 1.875 39.9062 2C40.4479 2.08333 40.9688 2.08333 41.4688 2" stroke="black"/>
</svg>
