<svg width="50" height="54" viewBox="0 0 50 54" fill="none" xmlns="http://www.w3.org/2000/svg">
<path d="M49.3438 0.625C48.3021 0.625 47.2604 0.645833 46.2188 0.6875C45.2188 0.6875 44.1979 0.708333 43.1563 0.75C40.2813 0.75 37.4479 0.854167 34.6563 1.0625C31.9063 1.22917 29.1771 1.8125 26.4688 2.8125C26.3854 2.85417 26.2812 2.875 26.1562 2.875C25.9479 2.875 25.8229 2.79167 25.7812 2.625C25.7812 2.45833 25.6771 2.375 25.4688 2.375C24.8854 2.375 24.3438 2.4375 23.8438 2.5625C23.3438 2.6875 22.8021 2.77083 22.2188 2.8125C21.5521 3.39583 20.7812 3.875 19.9062 4.25C19.0729 4.625 18.1979 5 17.2812 5.375C16.4062 5.70833 15.5521 6.08333 14.7188 6.5C13.8854 6.875 8.625 9.25 8 9.875M8 9.875C8.08333 10.375 8.45833 16.625 8.5 17.125C8.16667 18.8333 9.5 23.25 9.5 25M8 9.875C7 9.875 1.34375 13.8125 0.5 13.8125M9.5 25C9.58333 25.2083 12.1354 23.6042 12.3438 23.6875C12.5938 23.7292 12.8021 23.8125 12.9688 23.9375C13.5104 23.5625 14.0521 23.2708 14.5938 23.0625C15.1771 22.8125 15.7604 22.5833 16.3438 22.375C16.9688 22.125 17.5521 21.8958 18.0938 21.6875C18.6771 21.4375 19.2396 21.1458 19.7812 20.8125M9.5 25L9 33C9.45833 34.0417 9 37.5 8.5 40.5C8.79167 41.5417 8.5 44.5 8.5 44.5C9 49.5 8 53 8 53M9.5 25C9.08333 25.5417 2.30208 28.8542 2.21875 29.8125M19.7812 20.8125H21.5312C21.9896 20.4792 22.5312 20.2292 23.1562 20.0625M19.7812 20.8125L24.9062 19.0625C25.4062 19.0625 25.9062 18.9583 26.4062 18.75C26.9479 18.5417 27.4896 18.3333 28.0312 18.125C28.5729 17.875 29.1146 17.6458 29.6562 17.4375C30.1979 17.2292 30.7604 17.125 31.3438 17.125C31.4688 17.125 31.5729 17.1458 31.6562 17.1875C31.7812 17.1875 31.9062 17.1875 32.0312 17.1875C32.2812 16.7708 32.6354 16.4583 33.0938 16.25C33.5521 16 34.0313 15.7917 34.5313 15.625C35.0313 15.4583 35.5313 15.2917 36.0313 15.125C36.5729 14.9583 37.0313 14.75 37.4063 14.5H37.6563C37.9063 14.5 38.0938 14.5625 38.2188 14.6875C38.3854 14.7708 38.5729 14.8542 38.7813 14.9375C39.9479 14.1875 41.1354 13.8125 42.3438 13.8125" stroke="black"/>
</svg>
