<svg width="49" height="52" viewBox="0 0 49 52" fill="none" xmlns="http://www.w3.org/2000/svg">
<path d="M48.6562 18.75C47.8229 18.9167 46.9896 19.1458 46.1562 19.4375C45.3646 19.7292 44.6562 20.1875 44.0312 20.8125C43.6979 20.7292 43.4062 20.6875 43.1562 20.6875C42.6146 20.6875 42.1354 20.8125 41.7188 21.0625C41.3021 21.2708 40.8646 21.4792 40.4062 21.6875C40.1979 21.7708 39.9896 21.8125 39.7812 21.8125C39.5729 21.8125 39.3438 21.8542 39.0938 21.9375C38.8438 22.0208 35.8021 23.5417 35.7188 23.75M35.7188 23.75C35.6771 23.9167 35.9271 27.2083 35.7188 27.375C35.7188 28.875 37.2923 30.3125 37.4688 31.8125C37.5521 32.5208 38.1883 33.695 38.5 36.5C38.6875 38.1875 38.7604 40.3125 39.0938 41.1875M35.7188 23.75C35.1771 23.75 33.5041 25.6875 31.4062 24.1875C30.9896 24.4375 30.5521 24.5625 30.0938 24.5625C29.8438 24.5625 29.6354 24.5 29.4688 24.375C28.9688 24.9583 28.3646 25.3958 27.6562 25.6875C26.9479 25.9792 26.1979 26.25 25.4062 26.5C24.6146 26.7083 23.8229 26.9375 23.0312 27.1875M39.0938 41.1875C39.7188 41.8958 40.3646 45.7708 40.9062 46.5625C41.5729 47.2292 42.3229 51 43.1562 51.5M39.0938 41.1875C36.9271 41.7292 31.3229 44.1667 29.0312 44.375C26.7812 44.5417 24.5312 44.625 22.2812 44.625C22.1979 44.7083 22.0729 44.75 21.9062 44.75C21.7396 44.75 21.5729 44.7708 21.4062 44.8125C21.1979 44.8125 17.9896 44.9375 17.7812 45.0625C16.1979 44.7708 14.6562 44.375 13.1562 43.875C11.6979 43.3333 10.1979 42.8958 8.65625 42.5625C8.65625 42.2292 8.57292 42 8.40625 41.875C8.23958 41.7083 8.09375 41.4792 7.96875 41.1875C6.21875 40.1042 4.73958 38.7917 3.53125 37.25C2.36458 35.7083 1.88542 33.8333 2.09375 31.625L1.65625 30.75C1.65625 30.0833 1.80208 29.6042 2.09375 29.3125C1.92708 29.0208 1.63542 28.7292 1.21875 28.4375C1.59375 27.8542 1.92708 27.25 2.21875 26.625C2.51042 26 2.71875 25.3333 2.84375 24.625C2.88542 24.4167 2.90625 24.2292 2.90625 24.0625C2.90625 23.8958 2.94792 23.7083 3.03125 23.5C3.11458 23.25 3.23958 22.9792 3.40625 22.6875C3.53125 22.3542 3.65625 22.0625 3.78125 21.8125C4.44792 20.3958 5.17708 19.0417 5.96875 17.75C6.80208 16.4167 7.84375 15.2708 9.09375 14.3125C9.17708 13.6042 9.38542 13.0208 9.71875 12.5625C10.0521 12.0625 10.4062 11.625 10.7812 11.25C11.1979 10.8333 11.5938 10.4167 11.9688 10C12.3854 9.58333 12.6979 9.08333 12.9062 8.5C13.7396 7.79167 14.5729 7.10417 15.4062 6.4375C16.2812 5.77083 17.0104 4.97917 17.5938 4.0625C18.3438 3.8125 19.0521 3.5 19.7188 3.125C20.3854 2.70833 20.9479 2.1875 21.4062 1.5625C22.4062 1.47917 23.3854 1.29167 24.3438 1C25.3438 0.708333 26.3854 0.5625 27.4688 0.5625C27.9271 0.5625 28.4688 0.666667 29.0938 0.875C29.7604 1.04167 30.2604 1.35417 30.5938 1.8125C30.6354 1.89583 30.6562 2 30.6562 2.125L30.7188 2.4375C30.7604 2.52083 30.8021 2.60417 30.8438 2.6875C30.9271 2.72917 31.0521 2.72917 31.2188 2.6875C31.2188 3.60417 31.1146 4.54167 30.9062 5.5" stroke="black"/>
</svg>
