<svg width="42" height="55" viewBox="0 0 42 55" fill="none" xmlns="http://www.w3.org/2000/svg">
<path d="M33.2385 23.4304L33.9375 23.5C33.9375 23.5694 33.9234 23.6303 33.9049 23.6798L33.2585 23.5M33.2385 23.4304L33.4092 23.4943L33.4244 23.5H33.4121H33.2585M33.2385 23.4304L32.9475 23.4015M33.2385 23.4304L32.9683 23.3293C32.9602 23.351 32.953 23.3752 32.9475 23.4015M33.2585 23.5H32.9375C32.9375 23.469 32.9404 23.4398 32.9453 23.4128M33.2585 23.5L32.9453 23.4128M32.9475 23.4015L32.9473 23.4015L32.9451 23.4128L32.9453 23.4128M32.9475 23.4015C32.9468 23.4052 32.946 23.409 32.9453 23.4128M33.7694 23.5667L33.9281 23.5964L33.9277 23.5985L33.7694 23.5667Z" stroke="black"/>
</svg>
