<svg width="810" height="181" viewBox="0 0 810 181" fill="none" xmlns="http://www.w3.org/2000/svg">
<path d="M89.8438 79.5H92.5312L93.875 80.1875L93.2188 84.9062V86.9375C93.3438 87.8333 93.7917 88.2812 94.5625 88.2812L95.2188 86.9375V82.1875C96.1354 82.1875 96.5938 81.7396 96.5938 80.8438H97.25L98.625 81.5312C98.625 81.0729 98.8438 80.8438 99.2812 80.8438V81.5312L100.625 80.8438H102.656C102.656 82.3438 102.885 83.4688 103.344 84.2188C102.615 84.2188 101.938 84.6771 101.312 85.5938C101.312 86.0312 101.542 86.25 102 86.25C101.542 90.3125 101.083 92.3438 100.625 92.3438L101.312 93.6875V94.375C101.312 95.2708 100.865 95.7188 99.9688 95.7188C99.9688 96.1771 100.188 96.4062 100.625 96.4062L98.625 110.594C99.0625 110.594 99.2812 110.812 99.2812 111.25H98.625L97.25 110.594H96.5938V111.25H97.9375L97.25 112.594V113.969L98.625 113.281V113.969C98.625 117.115 98.1667 118.688 97.25 118.688C97.25 119.146 97.4792 119.375 97.9375 119.375C97.4792 121.938 96.3542 124.635 94.5625 127.469C95 128.344 95.2188 129.021 95.2188 129.5L94.5625 130.844L95.2188 132.188C94.3229 134.042 93.875 135.396 93.875 136.25C94.3333 137.125 94.5625 137.802 94.5625 138.281C92.3125 145.302 90.7396 151.156 89.8438 155.844C88.6771 155.844 88 156.969 87.8125 159.219H82.4062C81.9479 159.219 81.7188 159 81.7188 158.562L80.375 159.219L77 158.562V155.844C77.8958 154.76 78.3438 153.865 78.3438 153.156C78.3438 152.698 78.1146 152.469 77.6562 152.469C79.4688 144.073 80.375 135.062 80.375 125.438V122.75H81.7188C81.7188 121.854 81.2708 121.406 80.375 121.406L77.6562 122.062L76.3125 121.406C74.0417 122.302 72.4688 122.75 71.5938 122.75V122.062C60.3229 124.229 54.6875 126.031 54.6875 127.469V138.969C54.6875 139.406 54.4688 139.625 54.0312 139.625L54.6875 141L54.0312 145.719C54.4688 148.906 54.6875 151.604 54.6875 153.812H54.0312L54.6875 155.188V157.188H54.0312L50.625 156.531C48.8333 157.885 47.9375 159.24 47.9375 160.594L45.2188 159.906L43.875 160.594C41.9375 160.281 40.5833 159.375 39.8125 157.875L40.5 153.156V148.406L39.8125 145.031H41.1875C40.7292 144.594 40.2708 141.667 39.8125 136.25L40.5 132.875C40.0417 130.521 39.8125 128.271 39.8125 126.125V124.781C39.8125 124.323 40.0417 124.094 40.5 124.094C39.6042 121.823 39.1562 120.25 39.1562 119.375H39.8125L39.1562 118V107.875C39.1562 107.417 39.375 107.188 39.8125 107.188L38.4688 103.156L39.1562 101.781C38.2604 100.323 37.8125 98.9792 37.8125 97.75V95.0312C37.8125 92.6771 37.5833 88.8542 37.125 83.5625C38.0208 83.5625 38.4688 82.8854 38.4688 81.5312H41.8438L43.2188 80.8438C43.2188 81.7396 43.6667 82.1875 44.5625 82.1875V86.9375H47.25C48.7708 86.9375 50.3542 86.2604 52 84.9062H54.0312V87.5938H52.6562V88.9688H54.0312V103.156L54.6875 106.531H54.0312L54.6875 107.875V108.562L54.0312 113.281L55.375 113.969C59.1875 113.969 67.7396 112.385 81.0312 109.219H83.75V107.875H82.4062V107.188C82.5312 106.292 82.9792 105.844 83.75 105.844L83.0625 104.5C83.0625 103.146 83.7396 102.469 85.0938 102.469L84.4375 101.125H85.7812V100.438H84.4375V99.7812C84.4375 99.3229 84.6562 99.0938 85.0938 99.0938L84.4375 97.75C84.4375 97.3958 85.1042 96.7188 86.4375 95.7188C86 94.8438 85.7812 94.1667 85.7812 93.6875H86.4375C86.4375 93.2292 86.2188 93 85.7812 93L86.4375 89.625V87.5938C87.7917 87.5938 88.4688 86.0208 88.4688 82.875C88.0312 82 87.8125 81.3229 87.8125 80.8438L89.8438 79.5ZM77.6562 115.312H80.375C81.2708 115.312 81.7188 114.865 81.7188 113.969V113.281C79.0104 113.74 77.6562 114.417 77.6562 115.312ZM143.438 71.375C143.438 72.2917 144.115 72.75 145.469 72.75L146.812 72.0625C147.479 72.5208 148.833 72.75 150.875 72.75L150.188 74.0938C153.333 74.0938 154.906 75.8958 154.906 79.5C158.073 87.2083 160.781 95.0938 163.031 103.156H164.375C167.333 101.344 170.708 100.438 174.5 100.438H177.219C177.219 103.229 174.969 105.031 170.469 105.844V106.531H171.812C171.812 106.073 172.042 105.844 172.5 105.844C172.5 106.74 173.625 107.188 175.875 107.188V108.562C171.812 109.938 169.781 111.51 169.781 113.281V116L168.438 115.312V116C168.875 116 169.094 116.219 169.094 116.656H166.406C166.406 119.052 167.302 124.01 169.094 131.531C168.656 131.531 168.438 131.75 168.438 132.188H169.094C169.094 131.75 169.323 131.531 169.781 131.531L174.5 151.125C174.5 153.271 172.927 155.073 169.781 156.531C167.823 156.531 166.021 155.406 164.375 153.156C164.042 153.156 162.688 153.375 160.312 153.812C158.688 153.812 157.115 149.76 155.594 141.656C155.135 141.656 154.906 141.208 154.906 140.312H155.594C155.135 138.521 154.458 136.948 153.562 135.594C153.562 135.135 153.792 134.906 154.25 134.906C153.354 132.969 152.448 129.812 151.531 125.438C147.219 125.438 143.844 127.469 141.406 131.531H138.688C138.688 130.51 138.469 129.604 138.031 128.812C133.531 130.167 131.052 131.521 130.594 132.875L129.906 134.219L130.594 135.594C129.698 137.427 129.25 138.771 129.25 139.625L129.906 141C129.323 143.542 127.302 146.24 123.844 149.094C120.698 156.177 118.896 159.781 118.438 159.906H115.062C114.146 159.906 113.688 159.458 113.688 158.562V153.156H113.031L114.375 151.125V148.406C113.896 148.406 113.219 148.188 112.344 147.75C112.344 148.188 112.125 148.406 111.688 148.406L112.344 149.781C110.969 154.719 109.844 157.188 108.969 157.188H108.281C107.844 157.188 107.625 156.969 107.625 156.531L106.281 157.188H105.594V154.5L108.969 144.375L110.312 145.031H111V144.375H109.656V143.688C110.552 142.542 112.125 136.688 114.375 126.125V125.438C114.375 124.542 113.021 123.646 110.312 122.75V120.719C114.854 120.719 117.562 118.469 118.438 113.969C118.979 113.969 119.875 111.938 121.125 107.875H120.469C120.906 106.521 121.354 105.844 121.812 105.844L121.125 104.5V103.812C121.125 103 122.25 100.073 124.5 95.0312C124.062 95.0312 123.844 94.8125 123.844 94.375H125.188C125.188 93.9167 124.958 93.6875 124.5 93.6875C124.958 90.5417 125.635 88.9688 126.531 88.9688L125.875 87.5938C128.292 80.3854 129.865 76.7812 130.594 76.7812H131.938L133.281 77.4688C134.073 73.8646 136.552 72.0625 140.719 72.0625C140.948 72.0625 141.854 71.8333 143.438 71.375ZM144.781 83.5625C143.885 86.9375 143.438 88.9583 143.438 89.625C144.792 89.625 145.469 90.5312 145.469 92.3438H147.5V91.6562C146.146 89.8646 145.469 87.1667 145.469 83.5625H144.781ZM141.406 93C141.406 94.0208 141.177 94.9271 140.719 95.7188C141.177 96.5938 141.406 97.2708 141.406 97.75C140.698 97.9167 139.125 102.198 136.688 110.594L140.719 111.25C140.719 109.896 142.521 109 146.125 108.562V107.875C146.125 106.25 144.781 101.292 142.094 93H141.406ZM230.406 80.1875C230.406 80.625 230.635 80.8438 231.094 80.8438C231.094 80.4062 231.323 80.1875 231.781 80.1875V84.2188L235.156 84.9062H237.844C237.844 85.5729 238.521 86.4688 239.875 87.5938V88.2812C239.875 88.7396 239.646 88.9688 239.188 88.9688L239.875 90.3125V92.3438L236.5 109.219L237.156 110.594L236.5 114.625L237.156 116C236.823 117.792 236.375 118.688 235.812 118.688L236.5 120.031L235.812 121.406C236.271 121.406 236.5 121.625 236.5 122.062H235.156L235.812 123.406V124.094C235.812 126.344 235.365 127.469 234.469 127.469C234.469 127.927 234.698 128.156 235.156 128.156C234.573 142.115 233.667 149.094 232.438 149.094V155.188L229.062 155.844C227.958 154.948 227.062 154.5 226.375 154.5L225 155.188C223.646 154.875 219.594 149.24 212.844 138.281C212.844 137.51 211.042 134.812 207.438 130.188C203.833 123.646 202.031 120.042 202.031 119.375H200C200 119.812 200.229 120.031 200.688 120.031C200.354 122.74 199.906 124.094 199.344 124.094L200 125.438C200 126.333 199.552 126.781 198.656 126.781L199.344 128.156L198.656 129.5C199.115 130.375 199.344 131.052 199.344 131.531C198.885 132.885 198.427 133.562 197.969 133.562L198.656 136.938V139.625C198.656 140.083 198.427 140.312 197.969 140.312L198.656 141.656V143C198.656 143.458 198.427 143.688 197.969 143.688L198.656 145.031V151.125C196.844 155.167 194.365 157.188 191.219 157.188L187.844 155.188L187.156 159.906H185.156C184.698 159.906 184.469 159.677 184.469 159.219L183.125 159.906H181.75C181.062 159.906 180.167 159 179.062 157.188C179.062 155.688 179.74 154.115 181.094 152.469C181.094 151.594 180.646 149.344 179.75 145.719C180.479 145.719 181.146 144.146 181.75 141H182.438L181.75 139.625V138.281H183.125V137.594H181.75V135.594C181.75 134.677 182.427 134.219 183.781 134.219V133.562H181.75C181.75 131.708 182.427 129.906 183.781 128.156L183.125 126.781V122.062H184.469V123.406H185.156L184.469 120.031V118.688C184.469 115.833 186.042 111.781 189.188 106.531L188.531 105.188C189.427 105.188 189.875 104.958 189.875 104.5L189.188 101.125C190.104 101.125 190.562 100.448 190.562 99.0938L189.875 96.4062C189.875 95.9479 190.104 95.7188 190.562 95.7188L189.875 92.3438V88.9688C190.771 88.9688 191.219 88.5104 191.219 87.5938H191.906C192.344 87.5938 192.562 87.8229 192.562 88.2812L193.938 87.5938H195.281V90.3125L196.625 89.625H197.969L200.688 92.3438C201.562 91.8854 202.24 91.6562 202.719 91.6562L204.75 94.375V95.0312C204.75 96.2604 204.292 97.6146 203.375 99.0938L216.906 123.406C216.906 125.552 217.802 127.135 219.594 128.156C220.51 130.073 220.969 131.198 220.969 131.531H222.969C223.427 123.698 224.333 117.167 225.688 111.938L225 110.594C226.812 108.24 227.719 106.208 227.719 104.5C226.823 102.854 226.375 101.052 226.375 99.0938V97.75H227.719V96.4062L227.031 95.0312H227.719L227.031 93.6875V90.3125C227.031 89.8542 227.26 89.625 227.719 89.625C227.719 89.1875 227.49 88.9688 227.031 88.9688L227.719 85.5938V80.8438C227.948 80.8438 228.844 80.625 230.406 80.1875ZM285.906 82.875L287.281 84.9062C286.823 85.7812 286.594 86.4583 286.594 86.9375C287.49 87.0833 287.938 87.5312 287.938 88.2812V88.9688C284.583 89.6354 278.281 95.7083 269.031 107.188C268.573 107.188 267 110.125 264.312 116H262.938L263.625 117.344C262.083 120.948 261.177 122.75 260.906 122.75L261.594 124.094C261.135 127.365 260.688 129.396 260.25 130.188C261.146 130.312 261.594 130.76 261.594 131.531C261.594 131.969 261.365 132.188 260.906 132.188L261.594 133.562V134.219L260.906 137.594C262.719 137.594 264.521 140.073 266.312 145.031C266.958 145.031 267.635 145.708 268.344 147.062C268.802 147.062 269.031 146.844 269.031 146.406C269.906 146.406 271.479 146.854 273.75 147.75C273.75 146.854 276.229 146.177 281.188 145.719C282.5 145.365 284.073 144.01 285.906 141.656C294.031 135.615 298.094 131.333 298.094 128.812V128.156C298.094 127.719 297.635 125.917 296.719 122.75C288.594 122.75 283.865 123.875 282.531 126.125H276.469C276.469 125.312 274.885 124.188 271.719 122.75V120.719L275.094 120.031L273.094 117.344V115.312C281.323 114.854 288.073 113.948 293.344 112.594L294.719 113.281C297.031 111.927 301.302 111.25 307.531 111.25C307.531 112.146 308.438 112.594 310.25 112.594V113.969C308 115.802 306.875 116.927 306.875 117.344L309.562 119.375C309.562 123.833 307.99 128.781 304.844 134.219L299.438 147.75C295.312 157.208 288.104 161.938 277.812 161.938C271.896 161.938 263.115 157.656 251.469 149.094C248.76 145.948 247.406 142.792 247.406 139.625V132.875C247.51 127.479 247.958 124.781 248.75 124.781L248.094 123.406C248.99 122.406 249.656 119.938 250.094 116H250.781L250.094 114.625V113.969C254.698 104.677 259.438 98.1458 264.312 94.375C264.312 94.8125 264.531 95.0312 264.969 95.0312L264.312 93.6875V93L267 94.375C267 93.3542 267.229 92.4479 267.688 91.6562C267.229 91.6562 267 91.4375 267 91C267.562 91 270.49 88.7396 275.781 84.2188L280.5 84.9062C281.375 84.4479 282.052 84.2188 282.531 84.2188V85.5938H283.906L283.219 84.2188V83.5625C283.448 83.5625 284.344 83.3333 285.906 82.875ZM290.656 141.656V143.688C290.802 144.583 291.25 145.031 292 145.031C292.771 143.24 293.677 142.344 294.719 142.344V141L290.656 141.656ZM281.188 154.5L281.875 153.156L277.812 153.812V154.5H279.844V155.188C279.844 156.979 277.812 157.875 273.75 157.875C273.896 158.771 274.344 159.219 275.094 159.219H277.125C285.083 159.219 290.719 156.292 294.031 150.438V147.75C292.385 148.188 289.677 149.99 285.906 153.156L281.188 154.5ZM269.719 152.469L270.375 153.812L269.719 155.188L271.062 154.5H277.125V153.156L270.375 152.469H269.719ZM350.938 71.375C350.938 72.2917 351.615 72.75 352.969 72.75L354.312 72.0625C354.979 72.5208 356.333 72.75 358.375 72.75L357.688 74.0938C360.833 74.0938 362.406 75.8958 362.406 79.5C365.573 87.2083 368.281 95.0938 370.531 103.156H371.875C374.833 101.344 378.208 100.438 382 100.438H384.719C384.719 103.229 382.469 105.031 377.969 105.844V106.531H379.312C379.312 106.073 379.542 105.844 380 105.844C380 106.74 381.125 107.188 383.375 107.188V108.562C379.312 109.938 377.281 111.51 377.281 113.281V116L375.938 115.312V116C376.375 116 376.594 116.219 376.594 116.656H373.906C373.906 119.052 374.802 124.01 376.594 131.531C376.156 131.531 375.938 131.75 375.938 132.188H376.594C376.594 131.75 376.823 131.531 377.281 131.531L382 151.125C382 153.271 380.427 155.073 377.281 156.531C375.323 156.531 373.521 155.406 371.875 153.156C371.542 153.156 370.188 153.375 367.812 153.812C366.188 153.812 364.615 149.76 363.094 141.656C362.635 141.656 362.406 141.208 362.406 140.312H363.094C362.635 138.521 361.958 136.948 361.062 135.594C361.062 135.135 361.292 134.906 361.75 134.906C360.854 132.969 359.948 129.812 359.031 125.438C354.719 125.438 351.344 127.469 348.906 131.531H346.188C346.188 130.51 345.969 129.604 345.531 128.812C341.031 130.167 338.552 131.521 338.094 132.875L337.406 134.219L338.094 135.594C337.198 137.427 336.75 138.771 336.75 139.625L337.406 141C336.823 143.542 334.802 146.24 331.344 149.094C328.198 156.177 326.396 159.781 325.938 159.906H322.562C321.646 159.906 321.188 159.458 321.188 158.562V153.156H320.531L321.875 151.125V148.406C321.396 148.406 320.719 148.188 319.844 147.75C319.844 148.188 319.625 148.406 319.188 148.406L319.844 149.781C318.469 154.719 317.344 157.188 316.469 157.188H315.781C315.344 157.188 315.125 156.969 315.125 156.531L313.781 157.188H313.094V154.5L316.469 144.375L317.812 145.031H318.5V144.375H317.156V143.688C318.052 142.542 319.625 136.688 321.875 126.125V125.438C321.875 124.542 320.521 123.646 317.812 122.75V120.719C322.354 120.719 325.062 118.469 325.938 113.969C326.479 113.969 327.375 111.938 328.625 107.875H327.969C328.406 106.521 328.854 105.844 329.312 105.844L328.625 104.5V103.812C328.625 103 329.75 100.073 332 95.0312C331.562 95.0312 331.344 94.8125 331.344 94.375H332.688C332.688 93.9167 332.458 93.6875 332 93.6875C332.458 90.5417 333.135 88.9688 334.031 88.9688L333.375 87.5938C335.792 80.3854 337.365 76.7812 338.094 76.7812H339.438L340.781 77.4688C341.573 73.8646 344.052 72.0625 348.219 72.0625C348.448 72.0625 349.354 71.8333 350.938 71.375ZM352.281 83.5625C351.385 86.9375 350.938 88.9583 350.938 89.625C352.292 89.625 352.969 90.5312 352.969 92.3438H355V91.6562C353.646 89.8646 352.969 87.1667 352.969 83.5625H352.281ZM348.906 93C348.906 94.0208 348.677 94.9271 348.219 95.7188C348.677 96.5938 348.906 97.2708 348.906 97.75C348.198 97.9167 346.625 102.198 344.188 110.594L348.219 111.25C348.219 109.896 350.021 109 353.625 108.562V107.875C353.625 106.25 352.281 101.292 349.594 93H348.906ZM468.969 82.875L470.344 84.9062C469.885 85.7812 469.656 86.4583 469.656 86.9375C470.552 87.0833 471 87.5312 471 88.2812V88.9688C467.646 89.6354 461.344 95.7083 452.094 107.188C451.635 107.188 450.062 110.125 447.375 116H446L446.688 117.344C445.146 120.948 444.24 122.75 443.969 122.75L444.656 124.094C444.198 127.365 443.75 129.396 443.312 130.188C444.208 130.312 444.656 130.76 444.656 131.531C444.656 131.969 444.427 132.188 443.969 132.188L444.656 133.562V134.219L443.969 137.594C445.781 137.594 447.583 140.073 449.375 145.031C450.021 145.031 450.698 145.708 451.406 147.062C451.865 147.062 452.094 146.844 452.094 146.406C452.969 146.406 454.542 146.854 456.812 147.75C456.812 146.854 459.292 146.177 464.25 145.719C465.562 145.365 467.135 144.01 468.969 141.656C477.094 135.615 481.156 131.333 481.156 128.812V128.156C481.156 127.719 480.698 125.917 479.781 122.75C471.656 122.75 466.927 123.875 465.594 126.125H459.531C459.531 125.312 457.948 124.188 454.781 122.75V120.719L458.156 120.031L456.156 117.344V115.312C464.385 114.854 471.135 113.948 476.406 112.594L477.781 113.281C480.094 111.927 484.365 111.25 490.594 111.25C490.594 112.146 491.5 112.594 493.312 112.594V113.969C491.062 115.802 489.938 116.927 489.938 117.344L492.625 119.375C492.625 123.833 491.052 128.781 487.906 134.219L482.5 147.75C478.375 157.208 471.167 161.938 460.875 161.938C454.958 161.938 446.177 157.656 434.531 149.094C431.823 145.948 430.469 142.792 430.469 139.625V132.875C430.573 127.479 431.021 124.781 431.812 124.781L431.156 123.406C432.052 122.406 432.719 119.938 433.156 116H433.844L433.156 114.625V113.969C437.76 104.677 442.5 98.1458 447.375 94.375C447.375 94.8125 447.594 95.0312 448.031 95.0312L447.375 93.6875V93L450.062 94.375C450.062 93.3542 450.292 92.4479 450.75 91.6562C450.292 91.6562 450.062 91.4375 450.062 91C450.625 91 453.552 88.7396 458.844 84.2188L463.562 84.9062C464.438 84.4479 465.115 84.2188 465.594 84.2188V85.5938H466.969L466.281 84.2188V83.5625C466.51 83.5625 467.406 83.3333 468.969 82.875ZM473.719 141.656V143.688C473.865 144.583 474.312 145.031 475.062 145.031C475.833 143.24 476.74 142.344 477.781 142.344V141L473.719 141.656ZM464.25 154.5L464.938 153.156L460.875 153.812V154.5H462.906V155.188C462.906 156.979 460.875 157.875 456.812 157.875C456.958 158.771 457.406 159.219 458.156 159.219H460.188C468.146 159.219 473.781 156.292 477.094 150.438V147.75C475.448 148.188 472.74 149.99 468.969 153.156L464.25 154.5ZM452.781 152.469L453.438 153.812L452.781 155.188L454.125 154.5H460.188V153.156L453.438 152.469H452.781ZM511.156 84.9062H511.844C512.927 85.8021 513.823 86.25 514.531 86.25V89.625L517.25 90.3125V91C517.25 91.4375 517.021 91.6562 516.562 91.6562L517.25 93V93.6875L515.875 93C515.875 93.4583 515.656 93.6875 515.219 93.6875L515.875 97.0625V98.4062C514.083 98.4062 513.188 99.5312 513.188 101.781C513.625 101.781 513.844 102.01 513.844 102.469C512.948 102.615 512.5 103.062 512.5 103.812H514.531V104.5C512.76 105.812 511.635 108.969 511.156 113.969C511.823 113.969 512.719 114.646 513.844 116L513.188 119.375C513.625 121.396 513.844 123.198 513.844 124.781H513.188V125.438C514.542 125.438 515.219 125.885 515.219 126.781H514.531C516.635 130.823 517.99 133.76 518.594 135.594H519.25V136.938H517.906L520.625 139.625L519.938 141C524.146 142.792 526.844 143.688 528.031 143.688C528.031 144.146 527.812 144.375 527.375 144.375C527.812 145.25 528.031 145.927 528.031 146.406H528.719V145.031C528.26 145.031 528.031 144.812 528.031 144.375C529.177 144.375 530.312 143.917 531.438 143H532.781V144.375H533.438C534.062 142.125 534.969 141 536.156 141C538.26 138.438 539.833 135.729 540.875 132.875H541.562C541.562 128.521 542.688 124.698 544.938 121.406H546.969V122.062L545.625 124.094H546.281C547.385 123.198 548.292 122.75 549 122.75V122.062C549 121.167 547.198 120.49 543.594 120.031L545.625 113.969C544.708 112.198 544.25 109.719 544.25 106.531V105.844C544.25 105.406 544.479 105.188 544.938 105.188L541.562 97.0625V86.9375L544.938 86.25L546.281 86.9375C547.156 86.4792 547.833 86.25 548.312 86.25L549 87.5938L550.344 86.9375C553.49 87.6458 555.062 88.7708 555.062 90.3125C556.542 90.9792 557.896 94.5833 559.125 101.125C558.229 103.438 557.781 105.24 557.781 106.531H559.125C559.125 107.531 558.896 108.427 558.438 109.219C558.438 109.677 558.667 109.906 559.125 109.906L557.781 122.062C558.219 122.938 558.438 123.615 558.438 124.094L552.375 145.719C546.812 153.823 541.406 157.875 536.156 157.875C536.156 158.771 535.708 159.219 534.812 159.219H534.125L532.781 158.562L533.438 159.906V160.594C533.021 160.594 531.448 161.26 528.719 162.594V160.594H528.031V162.594H524.656L522.656 161.25V162.594H519.25C518.604 162.594 517.938 161.927 517.25 160.594L515.875 161.25H515.219C514.302 161.25 513.844 160.802 513.844 159.906L514.531 158.562C512.74 158.333 511.844 157.656 511.844 156.531L510.469 157.188H509.812V155.844C511.167 155.844 511.844 154.5 511.844 151.812H509.812V153.156H506.438V150.438H510.469V149.781C509.573 146.177 508.677 144.375 507.781 144.375V139.625H507.094C507.094 141.438 506.646 142.344 505.75 142.344C504.958 141.885 504.052 141.656 503.031 141.656V137.594H504.406L505.062 141C505.979 141 506.438 140.542 506.438 139.625L505.75 138.281C506.646 138.281 507.094 137.833 507.094 136.938C507.094 136.167 505.969 135.49 503.719 134.906C503.719 135.365 503.49 135.594 503.031 135.594L502.375 132.875L503.719 132.188C503.719 132.646 503.948 132.875 504.406 132.875L505.062 131.531C504.292 131.073 503.396 130.844 502.375 130.844V126.781C502.375 125.781 502.146 124.885 501.688 124.094C501.688 123.635 501.917 123.406 502.375 123.406C501.021 117.385 500.344 113.333 500.344 111.25V107.188L502.375 104.5C501.479 104.5 501.031 104.052 501.031 103.156C501.031 102.448 501.698 99.9688 503.031 95.7188L502.375 94.375L503.031 91H508.438C509.188 86.9375 510.094 84.9062 511.156 84.9062ZM519.25 158.562C522.125 159.458 523.927 159.906 524.656 159.906C525.344 159.906 527.375 159.458 530.75 158.562V157.875C530.75 156.979 530.302 156.531 529.406 156.531H524.656C521.344 156.531 519.542 157.208 519.25 158.562ZM576.75 78.8125C579.896 79.5833 581.469 81.1667 581.469 83.5625C590.906 83.1042 596.312 82.6458 597.688 82.1875V82.875C598.146 82.875 598.375 82.6458 598.375 82.1875C618.646 82.1875 628.781 83.9896 628.781 87.5938H629.469C629.469 93.8854 625.635 99.75 617.969 105.188C613.177 109.979 607.542 114.479 601.062 118.688V119.375H602.438C605.271 119.375 608.646 119.146 612.562 118.688C620.604 119.583 626.24 121.156 629.469 123.406L630.812 122.75H631.469C632.823 125.354 633.5 126.927 633.5 127.469C632.604 127.615 632.156 128.062 632.156 128.812C633.969 128.812 634.875 129.271 634.875 130.188C634.812 131.125 632.552 132.927 628.094 135.594C628.094 137.99 625.396 140.01 620 141.656V143H618.656L617.281 142.344C614.885 145.844 611.958 147.865 608.5 148.406C604.896 149.969 603.094 151.104 603.094 151.812L588.906 161.25C587.906 161.542 586.104 162.667 583.5 164.625C582.854 164.625 582.177 163.948 581.469 162.594C582.948 160.344 584.75 159.219 586.875 159.219V157.875C585.667 157.875 583.198 155.396 579.469 150.438C578.115 150.438 577.438 148.865 577.438 145.719V141L576.062 138.969V138.281L577.438 138.969V138.281C576.521 138.281 575.396 134.229 574.062 126.125C574.958 126.125 575.406 125.677 575.406 124.781C574.719 124.781 574.042 123.875 573.375 122.062H575.406V121.406C573.594 121.406 572.688 120.271 572.688 118C573.146 117.146 573.375 116.479 573.375 116V111.938H574.719C574.427 109.688 573.302 108.562 571.344 108.562L572.031 105.188L570.656 105.844L570 101.125V100.438C570 100 570.219 99.7812 570.656 99.7812C568.865 95.3854 567.969 92.6771 567.969 91.6562C568.865 91.6562 569.312 92.5625 569.312 94.375H570V93.6875L569.312 89.625L570 86.25C570.438 86.25 570.656 86.4792 570.656 86.9375L574.719 84.9062L574.062 81.5312V79.5C575.062 79.5 575.958 79.2708 576.75 78.8125ZM584.188 96.4062C584.938 97.3021 585.615 101.125 586.219 107.875H585.531C585.99 108.667 586.438 110.698 586.875 113.969C587.333 113.969 593.417 107.885 605.125 95.7188V93.6875L601.75 94.375C599.896 94.375 598.094 94.1458 596.344 93.6875C589.135 94.5833 585.083 95.4896 584.188 96.4062ZM588.25 128.156C588.25 129.656 588.469 130.781 588.906 131.531C588.469 133.969 588.25 135.99 588.25 137.594L588.906 142.344H591.625C591.625 140.823 592.969 139.698 595.656 138.969C601.677 134.552 609.792 130.271 620 126.125V124.094C618.979 124.094 618.073 123.865 617.281 123.406C600.719 124.948 591.042 126.531 588.25 128.156ZM650.125 78.8125C653.271 79.5833 654.844 81.1667 654.844 83.5625C664.281 83.1042 669.688 82.6458 671.062 82.1875V82.875C671.521 82.875 671.75 82.6458 671.75 82.1875C692.021 82.1875 702.156 83.9896 702.156 87.5938H702.844C702.844 93.8854 699.01 99.75 691.344 105.188C686.552 109.979 680.917 114.479 674.438 118.688V119.375H675.812C678.646 119.375 682.021 119.146 685.938 118.688C693.979 119.583 699.615 121.156 702.844 123.406L704.188 122.75H704.844C706.198 125.354 706.875 126.927 706.875 127.469C705.979 127.615 705.531 128.062 705.531 128.812C707.344 128.812 708.25 129.271 708.25 130.188C708.188 131.125 705.927 132.927 701.469 135.594C701.469 137.99 698.771 140.01 693.375 141.656V143H692.031L690.656 142.344C688.26 145.844 685.333 147.865 681.875 148.406C678.271 149.969 676.469 151.104 676.469 151.812L662.281 161.25C661.281 161.542 659.479 162.667 656.875 164.625C656.229 164.625 655.552 163.948 654.844 162.594C656.323 160.344 658.125 159.219 660.25 159.219V157.875C659.042 157.875 656.573 155.396 652.844 150.438C651.49 150.438 650.812 148.865 650.812 145.719V141L649.438 138.969V138.281L650.812 138.969V138.281C649.896 138.281 648.771 134.229 647.438 126.125C648.333 126.125 648.781 125.677 648.781 124.781C648.094 124.781 647.417 123.875 646.75 122.062H648.781V121.406C646.969 121.406 646.062 120.271 646.062 118C646.521 117.146 646.75 116.479 646.75 116V111.938H648.094C647.802 109.688 646.677 108.562 644.719 108.562L645.406 105.188L644.031 105.844L643.375 101.125V100.438C643.375 100 643.594 99.7812 644.031 99.7812C642.24 95.3854 641.344 92.6771 641.344 91.6562C642.24 91.6562 642.688 92.5625 642.688 94.375H643.375V93.6875L642.688 89.625L643.375 86.25C643.812 86.25 644.031 86.4792 644.031 86.9375L648.094 84.9062L647.438 81.5312V79.5C648.438 79.5 649.333 79.2708 650.125 78.8125ZM657.562 96.4062C658.312 97.3021 658.99 101.125 659.594 107.875H658.906C659.365 108.667 659.812 110.698 660.25 113.969C660.708 113.969 666.792 107.885 678.5 95.7188V93.6875L675.125 94.375C673.271 94.375 671.469 94.1458 669.719 93.6875C662.51 94.5833 658.458 95.4896 657.562 96.4062ZM661.625 128.156C661.625 129.656 661.844 130.781 662.281 131.531C661.844 133.969 661.625 135.99 661.625 137.594L662.281 142.344H665C665 140.823 666.344 139.698 669.031 138.969C675.052 134.552 683.167 130.271 693.375 126.125V124.094C692.354 124.094 691.448 123.865 690.656 123.406C674.094 124.948 664.417 126.531 661.625 128.156ZM759.25 77.4688H759.938L758.594 79.5L759.938 78.8125H761.969C761.969 81.0625 760.615 82.1875 757.906 82.1875V82.875C758.802 82.875 759.25 83.1042 759.25 83.5625L760.625 82.875C761.479 83.3333 762.146 83.5625 762.625 83.5625L761.969 82.1875H766.031L765.344 83.5625C768.156 83.5625 770.177 84.6875 771.406 86.9375V87.5938C764.823 88.9479 751.542 93.6771 731.562 101.781C731.562 102.698 731.115 103.156 730.219 103.156L730.875 104.5V105.844C730.875 106.302 730.656 106.531 730.219 106.531L730.875 107.875V110.594L730.219 113.969L731.562 114.625H732.906L736.281 113.969C736.281 114.406 736.51 114.625 736.969 114.625C736.969 112.146 745.073 109.448 761.281 106.531H762.625L764 107.188V105.188H766.031L766.688 108.562L765.344 107.875V110.594H766.688V111.938C763.729 114.646 761.25 116 759.25 116C759.25 116.604 760.604 117.271 763.312 118C763.312 118.479 763.542 119.156 764 120.031C759.562 121.365 751.448 125.198 739.656 131.531C738.635 131.531 736.385 132.427 732.906 134.219V141C732.906 141.438 732.677 141.656 732.219 141.656C733.135 143.427 733.594 145.906 733.594 149.094V151.125H734.25C737.583 148.188 748.844 143.677 768.031 137.594C768.031 136.698 769.156 136.25 771.406 136.25C772.885 137.146 774.021 137.594 774.812 137.594V140.312H773.438C774.354 141.792 774.812 143.146 774.812 144.375C773.438 144.375 770.281 145.719 765.344 148.406L766.688 150.438V151.125C766.688 152.479 764.667 153.604 760.625 154.5L759.25 153.812V155.188H758.594L757.219 154.5C757.219 155.396 755.646 155.844 752.5 155.844V156.531H753.844C753.844 157.427 753.396 157.875 752.5 157.875H751.812L750.469 157.188V157.875C750.927 157.875 751.156 158.104 751.156 158.562C749.656 159.458 744.25 161.479 734.938 164.625V165.312C734.479 165.312 734.25 165.083 734.25 164.625C732.812 164.792 729.885 166.146 725.469 168.688H721.406V165.312C723.615 165.312 727.448 163.74 732.906 160.594V159.219C731.615 159.219 729.812 158.542 727.5 157.188C723.896 157.188 722.094 156.062 722.094 153.812C721.198 147.354 720.521 143.531 720.062 142.344L720.75 141C718.938 135.583 718.031 130.625 718.031 126.125L718.719 124.781C717.365 124.781 716.688 122.979 716.688 119.375H718.031V118.688C716.677 118.688 716 116.656 716 112.594L716.688 111.25C716.229 109.458 715.552 107.885 714.656 106.531L715.344 105.188H714C714 104.438 713.771 101.729 713.312 97.0625C713.312 95.2708 716.01 93.9167 721.406 93C721.406 91.2083 722.76 90.3125 725.469 90.3125C725.469 90.7708 725.698 91 726.156 91C726.469 89.1875 727.823 88.2812 730.219 88.2812C730.219 88.7396 730.438 88.9688 730.875 88.9688C731.896 87.6146 736.625 85.3542 745.062 82.1875C746.229 81.1458 749.833 80.0208 755.875 78.8125C755.875 79.2708 756.104 79.5 756.562 79.5V78.8125C756.104 78.8125 755.875 78.5938 755.875 78.1562L759.25 77.4688ZM731.562 120.719H734.25C736.958 119.51 738.312 118.604 738.312 118C733.812 119.125 731.562 120.031 731.562 120.719Z" fill="#1B1A1A"/>
<path d="M165.742 48.7545C165.9 49.8052 165.271 51.7218 163.856 54.5042C163.973 55.2871 163.504 56.7267 162.45 58.8231L161.801 58.9204L160.339 58.4445C160.475 59.351 159.657 59.9372 157.885 60.203L157.982 60.852L159.311 60.6526C159.303 61.5808 158.928 62.1005 158.186 62.2118C152.714 59.1564 149.927 57.2887 149.825 56.6088C150.278 56.5409 150.473 56.2905 150.408 55.8579C147.575 55.2295 145.968 53.6482 145.588 51.1141C144.249 51.315 143.412 50.3029 143.079 48.0777L142.578 44.7401C142.442 43.8336 142.817 43.3139 143.703 43.181L142.855 41.9494L142.655 40.6206C143.583 36.8368 146.211 34.6205 150.537 33.9715C151.795 33.9303 154.061 35.4126 157.335 38.4186C157.267 37.9653 157.459 37.7047 157.913 37.6367C158.046 38.5226 159.686 40.3305 162.834 43.0604C163.035 44.3996 163.579 45.0027 164.464 44.8698L163.437 47.0779L163.534 47.7269L164.183 47.6296L163.984 46.3007L164.664 46.1987C164.698 46.4253 165.057 47.2772 165.742 48.7545ZM132.457 59.2141C132.029 63.3862 129.652 65.7968 125.326 66.4458C116.705 60.5132 111.921 54.3947 110.975 48.0902L110.878 47.4412C110.81 46.988 110.992 46.7289 111.425 46.664C111.357 46.2107 111.107 46.0166 110.674 46.0815C110.05 41.9197 111.875 38.9178 116.149 37.0759C120.457 39.2526 125.016 43.8038 129.825 50.7294L130.127 52.7382C130.559 52.6733 130.81 52.8674 130.878 53.3207L132.457 59.2141Z" fill="#1B1A1A"/>
</svg>
