<svg width="5" height="55" viewBox="0 0 5 55" fill="none" xmlns="http://www.w3.org/2000/svg">
<path d="M3.08 54C2.44 52.8222 2.54667 43.524 1.96 42.4702C1.90667 40.1766 1.74667 37.852 1.48 35.4965C1.42667 34.9386 1.34667 34.3807 1.24 33.8228C1.13333 33.2649 1.05333 32.738 1 32.2421C1 31.6222 1.02667 31.0333 1.08 30.4754C1.18667 29.8556 1.26667 29.2977 1.32 28.8018C1.53333 27.0041 1.77333 25.2374 2.04 23.5018C2.30667 21.7661 2.54667 19.9994 2.76 18.2018C2.97333 16.5901 3.08 14.9164 3.08 13.1807C3.08 11.383 2.84 9.70936 2.36 8.15965L2.28 7.69474C2.38667 7.19883 2.49333 6.79591 2.6 6.48597C2.76 6.11404 2.86667 5.71111 2.92 5.27719C3.02667 4.59532 2.89333 4.09942 2.52 3.78947C2.68 3.29357 2.94667 2.98363 3.32 2.85965C3.69333 2.67368 3.90667 2.30175 3.96 1.74386C4.01333 1.49591 4.01333 1.24795 3.96 1" stroke="black"/>
</svg>
