<svg width="49" height="46" viewBox="0 0 49 46" fill="none" xmlns="http://www.w3.org/2000/svg">
<path d="M48.4688 4.5625C48.1771 4.3125 47.8438 4.08333 47.4688 3.875C47.0938 3.625 46.9062 3.27083 46.9062 2.8125C46.9062 2.5625 46.9688 2.33333 47.0938 2.125C46.5521 2.04167 46.0521 1.875 45.5938 1.625C45.1771 1.33333 44.6979 1.125 44.1562 1C44.0729 1.16667 44.0312 1.29167 44.0312 1.375C44.0312 1.5 44.1562 1.60417 44.4062 1.6875C43.5729 1.72917 42.7396 1.79167 41.9062 1.875C41.1146 1.91667 40.3021 1.9375 39.4688 1.9375C38.8021 1.9375 38.1354 1.91667 37.4688 1.875C36.8438 1.79167 36.2396 1.64583 35.6562 1.4375C35.1979 1.85417 34.5938 2.10417 33.8438 2.1875C33.0938 2.27083 32.3021 2.33333 31.4688 2.375C30.6771 2.375 29.9062 2.41667 29.1562 2.5C28.4062 2.58333 27.8021 2.83333 27.3438 3.25C27.1771 3.20833 27.0938 3.14583 27.0938 3.0625C27.1354 2.9375 27.0729 2.83333 26.9062 2.75C25.7812 3.25 24.5104 3.64583 23.0938 3.9375C21.6771 4.22917 20.3646 4.375 19.1562 4.375H18.6562C17.4479 4.75 16.2604 5.10417 15.0938 5.4375C13.9271 5.77083 12.7188 5.9375 11.4688 5.9375C10.6354 5.9375 9.88542 5.875 9.21875 5.75C8.59375 5.95833 8.09375 6.3125 7.71875 6.8125C7.34375 7.27083 7.05208 7.8125 6.84375 8.4375C6.63542 9.0625 6.48958 9.70833 6.40625 10.375C6.32292 11.0417 6.21875 11.6458 6.09375 12.1875M30.4062 3.875C30.5312 4.25 32.0521 9.83333 32.0938 10.25C32.1771 10.625 32.2604 11 32.3438 11.375C32.4688 11.75 32.6146 12.1042 32.7812 12.4375C32.9896 12.7708 33.2604 13.0625 33.5938 13.3125C33.5938 13.7708 33.6354 14.1875 33.7188 14.5625C33.8021 14.9375 33.8438 15.3333 33.8438 15.75C34.5521 17.3333 35.3021 18.9375 36.0938 20.5625C36.8854 22.1875 37.4271 23.875 37.7188 25.625C37.8021 26.0833 37.9479 26.375 38.1562 26.5C38.4062 26.5833 38.5521 26.7292 38.5938 26.9375V29C39.0521 29.5 39.3646 30.0625 39.5312 30.6875C39.7396 31.2708 39.8854 31.8958 39.9688 32.5625C40.0521 33.1875 40.1146 33.8333 40.1562 34.5C40.1979 35.1667 40.2812 35.8125 40.4062 36.4375C40.1562 36.7708 39.9062 37.125 39.6562 37.5C39.4479 37.875 39.3438 38.2917 39.3438 38.75C39.3438 39.125 39.3854 39.3958 39.4688 39.5625C39.0104 39.5208 38.6979 39.6458 38.5312 39.9375C38.3646 40.2292 38.2396 40.5625 38.1562 40.9375C37.4896 41.3958 36.8229 41.8542 36.1562 42.3125C35.4896 42.7292 34.8646 43.2292 34.2812 43.8125C33.8229 43.8542 33.4062 43.9583 33.0312 44.125C32.6979 44.2917 32.3021 44.4792 31.8438 44.6875C31.3854 44.7708 30.9062 44.8125 30.4062 44.8125H29.0312C27.6146 44.8125 26.1979 44.75 24.7812 44.625C23.4062 44.4583 22.0104 44.2708 20.5938 44.0625C20.0104 43.6042 19.3438 43.2917 18.5938 43.125C17.8438 42.9167 17.1146 42.7708 16.4062 42.6875C15.6979 42.1875 14.8646 41.6875 13.9062 41.1875C12.9479 40.6875 12.0521 40.4583 11.2188 40.5C10.9688 39.8333 10.5729 39.375 10.0312 39.125C9.48958 38.875 8.92708 38.7292 8.34375 38.6875C8.38542 38.5625 8.40625 38.375 8.40625 38.125C8.40625 37.8333 8.32292 37.625 8.15625 37.5C7.98958 37.3333 7.80208 37.2083 7.59375 37.125C7.38542 37 7.15625 36.8958 6.90625 36.8125C6.65625 36.6875 6.44792 36.5625 6.28125 36.4375C5.82292 36.1042 5.42708 35.7292 5.09375 35.3125C4.76042 34.8542 4.42708 34.3958 4.09375 33.9375C3.76042 33.4792 3.40625 33.0417 3.03125 32.625C2.65625 32.2083 2.23958 31.8333 1.78125 31.5C1.61458 30.5417 1.42708 29.6042 1.21875 28.6875C1.01042 27.7292 0.90625 26.7708 0.90625 25.8125C0.90625 25.4792 1.01042 25.1667 1.21875 24.875C1.42708 24.5833 1.65625 24.3125 1.90625 24.0625C2.15625 23.8125 2.40625 23.5417 2.65625 23.25C2.90625 22.9583 3.07292 22.6458 3.15625 22.3125" stroke="black"/>
</svg>
