<svg width="37" height="43" viewBox="0 0 37 43" fill="none" xmlns="http://www.w3.org/2000/svg">
<path d="M3.5625 42.3125V42.0625C3.5625 41.5625 3.45833 41.1667 3.25 40.875C3.08333 40.5833 2.875 40.3125 2.625 40.0625C2.41667 39.7708 2.20833 39.4792 2 39.1875C1.83333 38.8958 1.75 38.5 1.75 38C1.625 38.0833 1.47917 38.1458 1.3125 38.1875C1.1875 38.2292 1.10417 38.3125 1.0625 38.4375C0.979167 38.0208 0.9375 37.6667 0.9375 37.375C0.9375 36.5417 1.0625 35.75 1.3125 35C1.60417 34.25 1.75 33.4583 1.75 32.625V31.6875C1.75 30.7292 1.72917 29.7917 1.6875 28.875C1.64583 27.9583 1.625 27.0417 1.625 26.125C1.625 25.3333 1.64583 24.5625 1.6875 23.8125C1.72917 23.0208 1.8125 22.2292 1.9375 21.4375C2.39583 18.6875 2.77083 15.9583 3.0625 13.25C3.39583 10.5 3.91667 7.77083 4.625 5.0625C4.58333 4.85417 4.52083 4.64583 4.4375 4.4375C4.39583 4.22917 4.375 4.02083 4.375 3.8125C4.375 3.64583 4.39583 3.54167 4.4375 3.5C4.60417 2.66667 4.97917 1.97917 5.5625 1.4375M35.625 0.8125C35.1667 2.5625 34.4792 4.14583 33.5625 5.5625C32.6458 6.9375 31.4583 8.10417 30 9.0625C29.7917 9.52083 29.5208 9.91667 29.1875 10.25C28.8542 10.5833 28.5208 10.9167 28.1875 11.25C27.8542 11.5417 27.5208 11.8542 27.1875 12.1875C26.8542 12.5208 26.5833 12.9167 26.375 13.375C25.875 13.4583 25.4375 13.6042 25.0625 13.8125C24.7292 14.0208 24.3958 14.2708 24.0625 14.5625C23.7708 14.8125 23.4375 15.0625 23.0625 15.3125C22.7292 15.5208 22.3542 15.6875 21.9375 15.8125C21.6042 16.2292 21.2083 16.5833 20.75 16.875C20.3333 17.1667 19.8958 17.4583 19.4375 17.75C19.0208 18 18.625 18.2917 18.25 18.625C17.875 18.9167 17.6042 19.3125 17.4375 19.8125H15.8125C15.3542 20.6042 14.75 21.2708 14 21.8125C13.2917 22.3125 6.3125 23.3542 5.5625 23.8125C5.6875 24.3125 12.1667 24.1667 12.5 24.5C12.8333 24.7917 13.1875 25.0625 13.5625 25.3125C13.9792 25.5625 14.375 25.8333 14.75 26.125C15.1667 26.375 15.5208 26.6875 15.8125 27.0625C17.5625 27.7292 19.25 28.5 20.875 29.375C22.5 30.2083 24.0417 31.2292 25.5 32.4375C25.5833 32.3958 25.6875 32.375 25.8125 32.375C26.1458 32.375 26.4167 32.4792 26.625 32.6875C26.8333 32.8542 27.125 32.9167 27.5 32.875C27.6667 33.2917 27.8958 33.5833 28.1875 33.75C28.4792 33.875 28.7708 33.9792 29.0625 34.0625C29.3958 34.1458 29.7083 34.2708 30 34.4375C30.2917 34.6042 30.5 34.8958 30.625 35.3125C31.25 35.3542 31.8125 35.4792 32.3125 35.6875M32.3125 35.6875C32.8542 35.8958 31.8958 35.2292 32.3125 35.6875ZM32.3125 35.6875L34.5 36.6875C35.8333 36.6875 34.375 41.8125 35.625 42.0625" stroke="black"/>
</svg>
