<svg width="35" height="53" viewBox="0 0 35 53" fill="none" xmlns="http://www.w3.org/2000/svg">
<path d="M5 0.5C3.79167 1.04167 3.8125 5.5 2.625 12C2.25 6.5 1.25 16.2917 1.25 17.75C1.83333 18.25 2.125 18.9375 2.125 19.8125V20C2.75 20.125 3.0625 20.5625 3.0625 21.3125C3.0625 21.9792 2.89583 22.5833 2.5625 23.125C2.77083 23.6667 2.875 24.3333 2.875 25.125V26.5C2.875 26.9167 2.91667 27.3542 3 27.8125C2.41667 29.3125 2.0625 30.875 1.9375 32.5C1.85417 34.0833 1.6875 35.6667 1.4375 37.25C1.35417 37.75 1.27083 38.25 1.1875 38.75C1.14583 39.2083 1.125 39.6875 1.125 40.1875C1.125 40.3542 1.14583 40.6667 1.1875 41.125C1.27083 41.5833 1.35417 42.0625 1.4375 42.5625C1.52083 43.0625 1.60417 43.5417 1.6875 44C1.77083 44.4167 1.83333 44.7083 1.875 44.875C2.04167 45.375 2.29167 45.8333 2.625 46.25C3 46.6667 3.29167 47.1042 3.5 47.5625C3.95833 48.5625 4.45833 49.3125 5 49.8125C5.54167 50.3125 6.29167 50.8333 7.25 51.375C7.75 51.2917 8.22917 51.3125 8.6875 51.4375C9.14583 51.5625 9.60417 51.625 10.0625 51.625C10.3125 51.625 10.4583 51.5833 10.5 51.5C10.5833 51.4167 10.6458 51.3333 10.6875 51.25L10.8125 51C10.8542 50.9167 10.9375 50.875 11.0625 50.875C11.4792 50.875 11.875 50.9167 12.25 51C12.625 51.0417 13.0208 51.0625 13.4375 51.0625C14.9792 51.0625 16.375 50.6458 17.625 49.8125C17.6667 49.7708 17.75 49.75 17.875 49.75C18.0833 49.75 18.25 49.8125 18.375 49.9375C18.5417 50.0208 18.7292 50.0417 18.9375 50H19.125C19.8333 49.625 20.375 49.125 20.75 48.5C21.5 48.25 22.2292 47.9375 22.9375 47.5625C23.6458 47.1458 24.3333 46.75 25 46.375C25.7083 45.9583 26.4167 45.5833 27.125 45.25C27.875 44.875 28.6458 44.6042 29.4375 44.4375C29.6042 44.1458 29.7292 43.9375 29.8125 43.8125C29.9375 43.6458 30.0625 43.5208 30.1875 43.4375C30.3125 43.3542 30.4792 43.3125 30.6875 43.3125H31.5C31.7083 42.8542 31.9167 42.4375 32.125 42.0625C32.3333 41.6875 32.7292 41.5 33.3125 41.5C33.1458 41.25 33.0625 41.0417 33.0625 40.875C33.0625 40.5 33.2292 40.2083 33.5625 40C33.8958 39.75 34.0625 39.3958 34.0625 38.9375C34.0625 38.8125 34.0208 38.625 33.9375 38.375" stroke="black"/>
</svg>
