<svg width="56" height="32" viewBox="0 0 56 32" fill="none" xmlns="http://www.w3.org/2000/svg">
<path d="M54.6562 27.125C54.5312 27.2917 54.3854 27.3958 54.2188 27.4375C54.0521 27.4792 53.8854 27.5417 53.7188 27.625C53.5521 27.6667 53.4062 27.75 53.2812 27.875C53.1979 27.9583 53.1979 28.1458 53.2812 28.4375C51.9062 28.5208 50.5938 28.8125 49.3438 29.3125C48.0938 29.8125 46.8646 30.3542 45.6562 30.9375C45.0312 30.7292 44.4896 30.4792 44.0312 30.1875C43.5729 29.8958 42.9896 29.7083 42.2812 29.625C41.5729 28.2083 40.9062 26.7292 40.2812 25.1875C39.6979 23.6042 39.4062 22.0208 39.4062 20.4375C39.4062 19.2708 39.6146 18.2083 40.0312 17.25C40.0312 16 40.1354 14.7708 40.3438 13.5625C40.5521 12.3542 40.7812 11.1667 41.0312 10C41.3229 8.79167 41.5729 7.58333 41.7812 6.375C41.9896 5.16667 42.0938 3.9375 42.0938 2.6875V1.3125C42.0104 1.3125 41.9062 1.41667 41.7812 1.625C41.6562 1.79167 41.5312 2 41.4062 2.25C41.3229 2.45833 41.2396 2.66667 41.1562 2.875C41.0729 3.08333 41.0104 3.20833 40.9688 3.25C40.2604 3.79167 39.6979 4.47917 39.2812 5.3125C38.9062 6.10417 38.4896 6.85417 38.0312 7.5625C37.4479 8.4375 36.8229 9.29167 36.1562 10.125C35.5312 10.9583 34.7396 11.6042 33.7812 12.0625V12.1875C33.7812 12.3958 33.7188 12.5417 33.5938 12.625C33.4688 12.7083 33.4479 12.9167 33.5312 13.25C32.4896 13.5833 31.5104 14.0625 30.5938 14.6875C29.7188 15.3125 28.9896 16.1042 28.4062 17.0625C27.5729 17.2708 26.7812 17.5625 26.0312 17.9375C25.3229 18.2708 24.5938 18.6458 23.8438 19.0625C23.5104 19.2292 23.1562 19.4375 22.7812 19.6875C22.4062 19.9375 22.0312 20.1042 21.6562 20.1875C21.3229 20.3125 20.8646 20.3958 20.2812 20.4375C19.7396 20.4792 19.1562 20.5208 18.5312 20.5625C17.9479 20.6042 17.3646 20.625 16.7812 20.625H15.4062C15.1979 20.625 14.9271 20.5208 14.5938 20.3125C14.2604 20.1042 13.8854 19.875 13.4688 19.625C13.0938 19.375 12.6979 19.1458 12.2812 18.9375C11.8646 18.6875 11.4688 18.5208 11.0938 18.4375C10.7604 17.3542 10.2812 16.3958 9.65625 15.5625C9.07292 14.6875 8.44792 13.8125 7.78125 12.9375C7.57292 11.9375 7.28125 10.8958 6.90625 9.8125C6.57292 8.72917 5.96875 7.83333 5.09375 7.125C5.30208 6.83333 5.40625 6.5 5.40625 6.125C5.40625 5.66667 5.30208 5.22917 5.09375 4.8125C4.88542 4.39583 4.78125 3.9375 4.78125 3.4375C4.78125 3.10417 4.80208 2.85417 4.84375 2.6875C4.38542 3.1875 4.05208 3.83333 3.84375 4.625C3.67708 5.375 3.59375 6.0625 3.59375 6.6875C3.59375 7.1875 3.65625 7.64583 3.78125 8.0625C3.36458 8.64583 3.09375 9.375 2.96875 10.25C2.88542 11.125 2.84375 11.8958 2.84375 12.5625C2.84375 13.3958 2.90625 14.2083 3.03125 15C2.36458 15.6667 2.03125 16.4792 2.03125 17.4375C2.03125 17.9792 2.15625 18.4583 2.40625 18.875C2.40625 19.0417 2.36458 19.1667 2.28125 19.25C2.19792 19.3333 2.09375 19.3958 1.96875 19.4375C1.88542 19.4792 1.78125 19.5417 1.65625 19.625C1.57292 19.6667 1.53125 19.7708 1.53125 19.9375C1.53125 20.1458 1.53125 20.375 1.53125 20.625C1.57292 20.875 1.59375 21.125 1.59375 21.375C1.59375 21.9583 1.57292 22.5625 1.53125 23.1875C1.48958 23.8125 1.46875 24.4167 1.46875 25C1.46875 26.2083 1.57292 27.0833 1.78125 27.625C2.03125 28.125 2.32292 28.5 2.65625 28.75C3.03125 29 3.42708 29.25 3.84375 29.5C4.26042 29.75 4.67708 30.2292 5.09375 30.9375"/>
</svg>
