<svg width="31" height="56" viewBox="0 0 31 56" fill="none" xmlns="http://www.w3.org/2000/svg">
<path d="M1.75 32.875C1.75 32.6667 2.72917 28.0417 2.5625 28C2.77083 27.4583 2 25 2.125 24.5C2.25 23.9583 1.625 20.9375 1.75 20.4375C1.75 20.4375 1.1875 16.3958 1.1875 15.1875C3.25 15.1875 1.64583 9.52083 1.6875 8.3125C1.97917 7.9375 2.79167 4.97917 3.25 4.6875C4.08333 4.72917 2.72917 2.72917 3.5625 2.9375C4.39583 3.14583 5.1875 3.47917 5.9375 3.9375C6.4375 5.72917 6.77083 7.52083 6.9375 9.3125C7.14583 11.1042 7.47917 12.8958 7.9375 14.6875V14.875C7.9375 15.0833 8.04167 15.1875 8.25 15.1875C8.5 15.1458 8.6875 15.2083 8.8125 15.375C8.72917 15.5 8.66667 15.6458 8.625 15.8125C8.625 15.9792 8.625 16.1458 8.625 16.3125V17.375C8.70833 17.7083 8.8125 18.0625 8.9375 18.4375C9.0625 18.8125 9.33333 19.0417 9.75 19.125C9.95833 20.4583 10.2708 21.6875 10.6875 22.8125C11.1042 23.9375 11.5833 25.0208 12.125 26.0625C12.6667 27.1042 13.25 28.1458 13.875 29.1875C14.5 30.1875 15.1458 31.25 15.8125 32.375C16.8542 33.1667 15.8125 35.4375 15.8125 35.4375C16.5625 36.4375 17.75 37.5417 18.5 38.5C19.2917 39.4167 18.5 39.5 20.75 42.5C23 45.5 23.9167 48.3333 25.5 48.5C25.7083 48.3333 27.9167 44.6042 28 44.3125V40.25C28.125 39.9583 28.25 39.7083 28.375 39.5C28.5417 39.25 28.7708 39.0625 29.0625 38.9375C29.1458 37.7708 29.2292 36.5833 29.3125 35.375C29.4375 34.1667 29.7083 33.0208 30.125 31.9375C29.9167 31.5625 29.8125 31.1042 29.8125 30.5625C29.8125 30.1458 29.8333 29.75 29.875 29.375C29.9583 29 30 28.625 30 28.25C30 27.4583 29.8333 26.8125 29.5 26.3125C29.5 26.0208 29.5208 25.7292 29.5625 25.4375C29.6042 25.1042 29.7292 24.7917 29.9375 24.5C29.6042 23.6667 29.3333 22.7917 29.125 21.875C28.9583 20.9583 28.875 20.0208 28.875 19.0625C28.875 18.5208 28.9375 17.9583 29.0625 17.375C28.8125 16.75 28.6458 16.0208 28.5625 15.1875L28.3125 12.625C28.2292 11.75 28.1042 10.9375 27.9375 10.1875C27.7708 9.4375 27.4583 8.83333 27 8.375C27.25 8 27.375 7.5625 27.375 7.0625C27.375 6.22917 27.25 5.4375 27 4.6875C26.75 3.9375 26.625 3.14583 26.625 2.3125C26.625 1.72917 26.75 1.14583 27 0.5625M1.75 32.875C1.75 32.9167 1.72917 32.9583 1.6875 33C1.6875 33.0417 1.6875 33.0833 1.6875 33.125M1.75 32.875L1.6875 38.5C1.6875 39.7083 2.41667 40.2917 2.125 41.5C2.20833 41.75 2.5625 46.5 2.5625 46.5C2.72917 46.75 2.5625 49.7917 2.5625 50C2.77083 50.375 1.1875 54.5833 1.1875 55" stroke="black"/>
</svg>
