<svg width="46" height="46" viewBox="0 0 46 46" fill="none" xmlns="http://www.w3.org/2000/svg">
<path d="M44.8535 11.0899L44.9556 10.9368L44.9341 10.7541C44.8443 9.9909 44.6183 9.31521 44.2418 8.74266C43.9376 8.18125 43.5882 7.6785 43.1922 7.23693L42.0837 5.88216C41.7821 5.46515 41.512 4.965 41.2767 4.3768L41.1993 4.18324L41.0073 4.10202C39.9961 3.67418 39.168 3.0562 38.5136 2.2479L38.313 2.00011L38.0037 2.07743L37.5634 2.1875H37.125C36.4359 2.1875 35.7669 2.07353 35.1156 1.84511C34.352 1.53247 33.5624 1.375 32.75 1.375C32.4727 1.375 32.2101 1.39807 31.9644 1.44721C31.738 1.49249 31.4958 1.55851 31.2387 1.64342C30.5387 1.80833 29.8783 1.97344 29.2579 2.13877C28.6217 2.2767 27.958 2.54507 27.2686 2.93148C26.0425 3.52429 24.8788 4.20175 23.7779 4.9639C22.7424 5.68081 21.5849 6.22039 20.3021 6.58117L20.0892 6.64106L19.9903 6.83889C19.8543 7.11077 19.6673 7.34988 19.4246 7.55787C19.1147 7.82348 18.8808 8.14692 18.7239 8.52151C17.8992 8.95977 16.5375 9.71121 15.211 10.509C13.8096 11.352 12.3848 12.2831 11.7089 12.9589L11.5088 13.1591L11.5504 13.3256C11.5469 13.3337 11.543 13.3428 11.5385 13.3529C11.4961 13.4476 11.426 13.5806 11.3304 13.7465C11.1408 14.0756 10.8754 14.4926 10.5984 14.9119C10.0439 15.7515 9.46664 16.5653 9.4125 16.6375L9.38545 16.6736L9.36529 16.7139C9.26761 16.9092 9.2154 17.125 9.1962 17.3509C7.64817 18.9535 6.2584 20.637 5.02743 22.4014L5.02605 22.4034C3.79009 24.1934 2.79116 26.1928 2.02751 28.3989L1.99472 28.4937L2.00097 28.5937C2.03861 29.1959 1.96345 29.7508 1.78106 30.2639C1.56024 30.8394 1.40579 31.4364 1.31753 32.0543L1.30203 32.1627L1.33331 32.2677C1.91815 34.2311 2.48268 36.0085 3.0269 37.5993L3.02827 37.6032C3.58948 39.2005 4.4905 40.8474 5.72019 42.5435L5.79199 42.6425L5.90139 42.6972C6.49296 42.993 7.16669 43.3087 7.92193 43.6444L7.93275 43.6492L7.94378 43.6535C8.61459 43.9144 9.11478 44.2959 9.46813 44.7906L9.58851 44.9591L9.7928 44.9932C10.5413 45.118 11.2689 45.2427 11.9756 45.3674L11.9914 45.3702L12.0073 45.3719C12.7755 45.4573 13.5439 45.5 14.3125 45.5C14.9197 45.5 15.5267 45.4566 16.1332 45.37L16.1503 45.3675L16.1673 45.3639C16.7002 45.2497 17.2161 45.0713 17.7142 44.8298C17.969 44.9558 18.2655 45 18.5625 45H19.3125H19.4186L19.5156 44.9569C20.2339 44.6376 20.9712 44.3986 21.728 44.2393C22.5032 44.0761 23.278 43.9538 24.0523 43.8723L24.2163 43.855L24.3379 43.7436C25.2967 42.8647 26.3746 42.1659 27.5738 41.6463C28.809 41.111 30.0648 40.6375 31.341 40.2259L31.4558 40.1888L31.5411 40.1036C32.1913 39.4533 32.8604 38.8653 33.5483 38.3388C34.2609 37.8249 35.0329 37.4094 35.8655 37.0922L36.0034 37.0397L36.0907 36.9207C37.0021 35.6779 37.934 34.4768 38.8864 33.3174L38.8864 33.3174L38.8918 33.3107C39.8807 32.0637 40.6758 30.6881 41.2767 29.1857L41.3194 29.079L41.3112 28.9644C41.2716 28.4103 41.2934 27.9577 41.3653 27.5981L41.3654 27.5981L41.3669 27.5894C41.4441 27.1651 41.5584 26.7872 41.7069 26.4531L41.7107 26.4445L41.7142 26.4357L42.2066 25.2049C42.4176 24.7815 42.6276 24.3188 42.8365 23.8173L42.875 23.725V23.625V23.5C42.875 22.0229 43.1542 20.541 43.7176 19.0519L43.725 19.0324L43.7308 19.0124C43.8019 18.7632 43.9103 18.5085 44.0591 18.2481C44.2436 17.9252 44.3853 17.5966 44.4808 17.2624L44.5 17.195V17.125V16.1875C44.5 15.7216 44.4792 15.2557 44.4375 14.79V13.3125C44.4375 12.9555 44.4574 12.5543 44.4979 12.1078C44.5322 11.7306 44.6508 11.394 44.8535 11.0899ZM11.5711 13.2706C11.5708 13.2715 11.5705 13.2726 11.5701 13.274C11.5725 13.2618 11.5742 13.2596 11.5711 13.2706Z" stroke="black"/>
</svg>
