<svg width="52" height="50" viewBox="0 0 52 50" fill="none" xmlns="http://www.w3.org/2000/svg">
<path d="M9.75 32.5C10.0417 32.5417 14.4583 33.4375 14.625 33.4375C15.375 33.4375 23 31.5417 24.375 30.875C25.75 30.2083 27.125 29.5833 28.5 29C29.9167 28.375 31.3125 27.75 32.6875 27.125C34.1042 26.5 35.4583 25.7708 36.75 24.9375C37.0833 24.9792 37.3542 24.9583 37.5625 24.875C37.7708 24.7917 38.0417 24.7292 38.375 24.6875C39 24.0625 39.6667 23.5208 40.375 23.0625L42.5625 21.625C43.3125 21.125 44.0208 20.6042 44.6875 20.0625C45.3542 19.5208 45.9375 18.875 46.4375 18.125H47.3125C47.2292 17.5417 47.4583 16.9583 48 16.375C48.5833 15.7917 49.1042 15.3333 49.5625 15C49.6458 14.5417 49.8125 14.1667 50.0625 13.875C50.3542 13.5417 50.6458 13.1667 50.9375 12.75C51.0208 12.1667 51.0833 11.5833 51.125 11C51.1667 10.4167 51.1875 9.83333 51.1875 9.25V8.3125C50.9375 7.89583 50.6458 7.54167 50.3125 7.25C49.9792 6.95833 49.625 6.66667 49.25 6.375L48.1875 5.5C47.8542 5.20833 47.5625 4.875 47.3125 4.5C45.3542 3.95833 43.4583 3.33333 41.625 2.625C39.8333 1.91667 37.9167 1.5 35.875 1.375C35.8333 1.5 35.7708 1.60417 35.6875 1.6875C35.6042 1.77083 35.5208 1.875 35.4375 2C35.0625 1.83333 34.6875 1.72917 34.3125 1.6875C33.9375 1.64583 33.5625 1.625 33.1875 1.625C32.3542 1.625 31.5417 1.70833 30.75 1.875C29.9583 2 29.1458 2.0625 28.3125 2.0625C27.9792 2.0625 27.75 2.04167 27.625 2C27.4167 2.125 27.2708 2.3125 27.1875 2.5625C27.1458 2.8125 26.9583 2.9375 26.625 2.9375C26.4167 2.9375 26.2083 2.9375 26 2.9375C25.7917 2.89583 25.5833 2.875 25.375 2.875C24.7917 2.875 24.2292 2.95833 23.6875 3.125C23.1875 3.29167 22.6875 3.47917 22.1875 3.6875C21.6875 3.85417 21.1875 4.02083 20.6875 4.1875C20.1875 4.3125 19.6667 4.375 19.125 4.375C18.8333 4.375 18.5208 4.33333 18.1875 4.25C17.9792 4.54167 17.7083 4.75 17.375 4.875C17.0833 4.95833 16.75 5.0625 16.375 5.1875C16.0417 5.27083 15.7083 5.375 15.375 5.5C15.0417 5.58333 14.7917 5.77083 14.625 6.0625C14.125 6.0625 13.5833 6.10417 13 6.1875C12.4583 6.22917 11.8958 6.33333 11.3125 6.5C10.7708 6.66667 10.25 6.89583 9.75 7.1875C9.25 7.4375 8.85417 7.75 8.5625 8.125C7.72917 8.125 6.97917 8.35417 6.3125 8.8125C5.64583 9.22917 4.97917 9.4375 4.3125 9.4375H4.0625C3.8125 10.0625 3.5 10.5833 3.125 11C2.79167 11.4167 2.45833 11.8542 2.125 12.3125C1.79167 12.7292 1.52083 13.2083 1.3125 13.75C1.0625 14.25 0.9375 14.8958 0.9375 15.6875M6.3125 49.5C5.89583 48.9167 6.60417 44.875 6.3125 44.125C6.3125 44.125 5.75 42.6875 5.5 41.9375C6.3125 41.9375 6.29167 38.625 6 38C5.875 37.0833 6.3125 34.3958 6.3125 33.4375C6.3125 33.4375 6.27083 30.2917 6.3125 29.875C8 31.0625 6.22917 27.25 6.3125 26C6.60417 21.625 6.3125 22.875 6.3125 21.625C7.6875 20.5 5.0625 14.8333 4.9375 13.875" stroke="black"/>
</svg>
