<svg width="62" height="48" viewBox="0 0 62 48" fill="none" xmlns="http://www.w3.org/2000/svg">
<path d="M44.1562 47.4375C43.1562 45.8542 42.1979 44.2292 41.2812 42.5625L38.5312 37.6875C37.6146 36.0208 36.6562 34.3958 35.6562 32.8125M35.6562 32.8125L35.5312 32.75C35.1979 32.75 34.9688 32.8125 34.8438 32.9375C34.7188 33.0625 34.5938 33.125 34.4688 33.125C34.3854 33.125 34.2396 33.0208 34.0312 32.8125C32.0729 33.6458 30.0521 34.3333 27.9688 34.875C25.9271 35.4167 23.8438 35.8542 21.7188 36.1875C21.1354 36.2708 20.5729 36.3333 20.0312 36.375C19.4896 36.4167 18.9271 36.4792 18.3438 36.5625C18.0104 36.6458 17.6979 36.7917 17.4062 37C17.1562 37.1667 16.8229 37.25 16.4062 37.25C16.1562 37.25 15.9062 37.2292 15.6562 37.1875C15.4062 37.1042 15.1979 36.9792 15.0312 36.8125C14.1979 37.0625 13.3438 37.1875 12.4688 37.1875C10.9688 37.1875 9.55208 36.8542 8.21875 36.1875C6.92708 35.4792 5.67708 34.7083 4.46875 33.875C4.26042 33.5 4.07292 33.0833 3.90625 32.625C3.69792 32.1667 3.36458 31.8333 2.90625 31.625C2.78125 30.5417 2.57292 29.5 2.28125 28.5C1.98958 27.4583 1.67708 26.4167 1.34375 25.375C2.42708 22.4583 4.21875 20.0833 6.71875 18.25C7.01042 18.0417 7.30208 17.8542 7.59375 17.6875C7.88542 17.4792 8.17708 17.2708 8.46875 17.0625C8.63542 17.0208 8.71875 16.9167 8.71875 16.75C8.71875 16.625 8.69792 16.5208 8.65625 16.4375C8.61458 16.3542 8.59375 16.2708 8.59375 16.1875C8.59375 16.1042 8.65625 16.0208 8.78125 15.9375C9.82292 15.6875 10.6562 15.2292 11.2812 14.5625C11.9062 13.8542 12.6146 13.1875 13.4062 12.5625C13.9896 12.6042 14.5104 12.4792 14.9688 12.1875C15.4688 11.8542 15.9271 11.5208 16.3438 11.1875C16.5104 11.1042 16.5938 11 16.5938 10.875V10.3125C17.0104 10.2292 17.3021 10.1875 17.4688 10.1875C17.6354 10.1875 17.7812 10.1458 17.9062 10.0625C18.0312 9.97917 18.1562 9.875 18.2812 9.75L18.9062 9.125C19.8229 8.20833 20.9271 7.41667 22.2188 6.75C23.5521 6.04167 24.9271 5.41667 26.3438 4.875C27.7604 4.29167 29.1771 3.75 30.5938 3.25C32.0104 2.75 33.3021 2.20833 34.4688 1.625C35.4688 1.54167 36.4688 1.41667 37.4688 1.25C38.4688 1.08333 39.4479 1 40.4062 1C41.2396 1 42.0312 1.125 42.7812 1.375C43.5729 1.625 44.1771 2.14583 44.5938 2.9375C47.2188 3.02083 49.6354 3.54167 51.8438 4.5C54.0521 5.41667 56.1979 6.60417 58.2812 8.0625C58.4479 8.64583 58.6771 9.1875 58.9688 9.6875C59.2604 10.1875 59.5521 10.7083 59.8438 11.25C60.1354 11.75 60.3646 12.2708 60.5312 12.8125C60.7396 13.3542 60.8438 13.9375 60.8438 14.5625C60.8438 15.7292 60.6146 16.8333 60.1562 17.875C59.6979 18.9167 59.3646 19.9792 59.1562 21.0625C57.4062 22.5208 55.5521 23.7917 53.5938 24.875C51.6354 25.9583 49.6771 27.1042 47.7188 28.3125C46.6771 28.3125 45.8229 28.5 45.1562 28.875C44.5312 29.25 43.8021 29.7292 42.9688 30.3125C40.4062 32.9375 38.5312 32.75 37.0312 32.75M35.6562 32.8125L33.5 27.5C32.6875 26.375 32.4583 22.7083 32 22" stroke="black"/>
</svg>
