<svg width="75" height="42" viewBox="0 0 75 42" fill="none" xmlns="http://www.w3.org/2000/svg">
<path d="M74.4062 30.6875C73.9896 30.7708 73.5938 30.8125 73.2188 30.8125C72.8854 30.7708 72.5312 30.7917 72.1562 30.875C70.8229 31.0833 69.4062 31.25 67.9062 31.375C66.4062 31.5 64.9062 31.6667 63.4062 31.875C61.9062 32.0417 60.4271 32.2708 58.9688 32.5625C57.5521 32.8125 56.2188 33.1875 54.9688 33.6875C54.8438 33.6042 54.7188 33.5208 54.5938 33.4375C54.4688 33.3125 54.3229 33.25 54.1562 33.25C53.7396 33.25 53.3438 33.3125 52.9688 33.4375C52.5938 33.5625 52.2188 33.6042 51.8438 33.5625C51.4271 33.8125 50.9688 34 50.4688 34.125C50.0104 34.2083 49.5312 34.2917 49.0312 34.375C48.5729 34.4167 48.1146 34.5 47.6562 34.625C47.1979 34.75 46.7604 34.9792 46.3438 35.3125C46.0104 35.1458 45.5938 35.0625 45.0938 35.0625C44.6354 35.0208 44.3229 34.8542 44.1562 34.5625C43.1979 35.0208 42.1771 35.3125 41.0938 35.4375C40.0521 35.5625 38.9896 35.6042 37.9062 35.5625C37.1979 35.5208 36.3854 35.4167 35.4688 35.25C34.5521 35.0833 33.6354 34.8542 32.7188 34.5625C31.8021 34.2292 30.9479 33.8542 30.1562 33.4375C29.3646 32.9792 23.0729 29.6875 22.6562 29.0625C22.8229 28.1458 27.6146 24.6458 27.7812 23.6875C28.6146 22.9792 29.4062 22.2292 30.1562 21.4375C30.9062 20.6458 31.6146 19.8125 32.2812 18.9375C33.0729 18.5625 33.8021 18.1042 34.4688 17.5625C35.1771 17.0208 35.8646 16.4792 36.5312 15.9375C37.2396 15.3542 37.9271 14.7917 38.5938 14.25C39.3021 13.7083 40.0521 13.2292 40.8438 12.8125C40.9688 12.5208 41.1354 12.2917 41.3438 12.125C41.5938 11.9167 41.8438 11.7292 42.0938 11.5625C42.3438 11.3542 42.5729 11.1458 42.7812 10.9375C42.9896 10.6875 43.1354 10.3958 43.2188 10.0625C44.6771 9.1875 45.9479 8.08333 47.0312 6.75C48.1146 5.41667 48.8229 3.91667 49.1562 2.25C48.4479 1.66667 47.6354 1.29167 46.7188 1.125C45.8438 0.916667 44.9271 0.770833 43.9688 0.6875C43.1354 0.645833 42.2604 0.645833 41.3438 0.6875C40.4688 0.729167 39.5729 0.708333 38.6562 0.625C37.7396 0.916667 36.7812 1.10417 35.7812 1.1875C34.8229 1.27083 33.8646 1.35417 32.9062 1.4375C31.9479 1.47917 30.9896 1.60417 30.0312 1.8125C29.1146 1.97917 28.2188 2.3125 27.3438 2.8125C27.1771 2.8125 27.0104 2.79167 26.8438 2.75C26.7188 2.70833 26.5729 2.6875 26.4062 2.6875C25.0729 2.64583 23.8229 2.91667 22.6562 3.5C21.4896 4.04167 16.2812 4.95833 15.1562 5.5C15.0729 5.66667 11.875 6.69792 11.875 6.78125M14.5 40.5001C13.7812 41.0001 15 37.8751 14.5 37.5001C14.2083 36.3334 13.1979 34.1042 12.9062 32.6875C12.6562 31.2708 12.2188 30.0625 11.5938 29.0625C11.7604 28.6875 11.8438 28.2292 11.8438 27.6875C11.8854 26.8542 11.8021 26.0417 11.5938 25.25C11.4271 24.4167 11.3854 23.5833 11.4688 22.75C11.4688 22.2917 11.5104 21.8333 11.5938 21.375C11.7188 20.9167 11.8021 20.4583 11.8438 20C11.8854 19.2917 11.8021 18.6042 11.5938 17.9375C11.4271 17.2708 11.3646 16.5833 11.4062 15.875C11.4479 15.5417 11.5104 15.2292 11.5938 14.9375C11.7188 14.6042 11.8854 14.3125 12.0938 14.0625C11.8854 13.5625 11.8229 13.0833 11.9062 12.625C11.9479 11.9167 12.0312 11.25 12.1562 10.625C12.2812 10 12.3646 9.375 12.4062 8.75C12.4062 8.41667 12.3854 8.10417 12.3438 7.8125C12.3021 7.47917 12.2396 7.16667 12.1562 6.875L11.5938 6.6875C11.3438 6.6875 11.0938 6.75 10.8438 6.875C10.6354 7 10.4479 7.14583 10.2812 7.3125C10.1146 7.47917 9.96875 7.625 9.84375 7.75C9.71875 7.83333 9.59375 7.875 9.46875 7.875C9.38542 7.875 9.28125 7.875 9.15625 7.875C9.07292 7.83333 8.98958 7.8125 8.90625 7.8125C8.82292 7.8125 8.65625 7.89583 8.40625 8.0625C8.19792 8.22917 7.92708 8.41667 7.59375 8.625C7.30208 8.79167 7.01042 8.97917 6.71875 9.1875C6.42708 9.35417 1.16667 14.0208 1 14.0625" stroke="black"/>
</svg>
