<svg width="38" height="52" viewBox="0 0 38 52" fill="none" xmlns="http://www.w3.org/2000/svg">
<path d="M13.25 49.125C13.5 49.125 13.7083 49.2083 13.875 49.375C14.0833 49.5833 14.2708 49.7917 14.4375 50C14.6042 50.2083 14.7708 50.3958 14.9375 50.5625C15.1042 50.7708 15.2917 50.875 15.5 50.875C18.8333 50.875 22.0625 50.3125 25.1875 49.1875C28.3542 48.1042 31.3125 46.6667 34.0625 44.875C34.3958 44.2917 34.75 43.7292 35.125 43.1875C35.5 42.6458 35.9792 42.2083 36.5625 41.875C36.4792 41.125 36.6042 40.5 36.9375 40C37.3125 39.4583 37.5 38.8333 37.5 38.125C37.5 36.9583 37.3125 35.9375 36.9375 35.0625C36.5625 34.1458 36.0417 33.3542 35.375 32.6875C34.7083 31.9792 33.9375 31.375 33.0625 30.875C32.2292 30.375 31.3333 29.9167 30.375 29.5C29.9167 29.2917 29.4583 29.1042 29 28.9375C28.5417 28.7292 28.0833 28.5625 27.625 28.4375C27.125 28.3125 26.5833 28.25 26 28.25C25.4583 28.25 18.9792 29.5833 18.4375 29.5C17.4375 29.0833 8.33333 31.625 7.125 31.125C6.79167 31 6.45833 30.9167 6.125 30.875C5.83333 30.7917 5.54167 30.6667 5.25 30.5C4.5 30.125 3.89583 29.625 3.4375 29C2.97917 28.375 2.625 27.6875 2.375 26.9375C2.08333 26.1458 1.875 25.3333 1.75 24.5C1.625 23.6667 1.5 22.8958 1.375 22.1875C1.75 21.5208 2.10417 20.8333 2.4375 20.125C2.72917 19.4167 2.97917 18.6667 3.1875 17.875C3.4375 17.75 3.6875 17.6458 3.9375 17.5625C4.1875 17.4792 4.45833 17.375 4.75 17.25C4.70833 17.1667 4.6875 17.0625 4.6875 16.9375C4.6875 16.7292 4.75 16.5208 4.875 16.3125C5.04167 16.1042 5.08333 15.8958 5 15.6875C5.91667 14.8542 6.79167 14 7.625 13.125C8.5 12.2083 9.25 11.2083 9.875 10.125C10.5 9.91667 11 9.60417 11.375 9.1875C11.75 8.77083 12.125 8.35417 12.5 7.9375C12.875 7.47917 13.2917 7.08333 13.75 6.75C14.2083 6.375 14.7917 6.14583 15.5 6.0625C15.6667 5.77083 15.8958 5.54167 16.1875 5.375C16.4792 5.16667 16.7708 4.97917 17.0625 4.8125C17.3542 4.64583 17.625 4.45833 17.875 4.25C18.125 4.04167 18.3125 3.75 18.4375 3.375C19.1042 3.375 19.7083 3.25 20.25 3C20.8333 2.75 21.3958 2.47917 21.9375 2.1875C22.4792 1.89583 23.0208 1.625 23.5625 1.375C24.1458 1.125 24.7708 1 25.4375 1C25.6042 1 25.7708 1.02083 25.9375 1.0625C26.1042 1.0625 26.2917 1.08333 26.5 1.125" stroke="black"/>
</svg>
