<svg width="56" height="43" viewBox="0 0 56 43" fill="none" xmlns="http://www.w3.org/2000/svg">
<path d="M25.2188 6.5C25.0104 6.41667 25.7188 7.5625 25.5312 12.125C24.0938 12.875 24.5729 13.4375 24.2812 13.4375C24.1979 13.4375 24.1354 13.4583 24.0938 13.5C24.0521 13.5 23.9896 13.5 23.9062 13.5C23.8646 13.875 23.9062 14.25 24.0312 14.625C24.1979 14.9583 24.4688 15.2292 24.8438 15.4375C24.6771 15.8958 24.5938 16.3958 24.5938 16.9375C24.5938 17.6458 24.6354 18.3542 24.7188 19.0625C24.8438 19.7708 24.9062 20.4792 24.9062 21.1875C24.9062 21.9792 24.8021 22.6042 24.5938 23.0625C25.0104 24.3125 25.2188 25.6458 25.2188 27.0625C25.2188 27.5625 25.1771 28.0625 25.0938 28.5625C25.0521 29.0208 25.0312 29.5208 25.0312 30.0625C25.0312 30.5208 25.1979 30.8958 25.5312 31.1875C25.8646 31.4375 26.0312 31.7917 26.0312 32.25C26.0312 32.4167 26.5833 36.8333 26.5 37M27 37C26.5417 37.25 26.4479 40.8542 26.0312 41.1875C25.6146 41.4792 25.1979 41.7708 24.7812 42.0625M1 10.5C1.33333 10.25 2.36458 10.4167 2.40625 9.875C3.36458 9.45833 4.34375 9.14583 5.34375 8.9375C6.34375 8.72917 7.36458 8.5625 8.40625 8.4375C9.44792 8.3125 10.4688 8.16667 11.4688 8C12.5104 7.83333 13.5312 7.5625 14.5312 7.1875C14.8229 7.22917 15.0938 7.27083 15.3438 7.3125C15.6354 7.3125 15.9271 7.3125 16.2188 7.3125C17.4688 7.3125 18.6979 7.1875 19.9062 6.9375C21.1562 6.64583 22.4271 6.5 23.7188 6.5C24.0521 6.5 24.3854 6.52083 24.7188 6.5625C25.0521 6.60417 25.3854 6.66667 25.7188 6.75C27.3854 6.5 29.0312 6.22917 30.6562 5.9375C32.3229 5.64583 34.0312 5.39583 35.7812 5.1875C36.6146 5.10417 37.4271 5.04167 38.2188 5C39.0521 4.91667 39.8854 4.8125 40.7188 4.6875C41.0104 4.64583 41.2188 4.58333 41.3438 4.5C41.5104 4.375 41.5938 4.14583 41.5938 3.8125C41.9688 3.97917 42.3854 4.0625 42.8438 4.0625C43.5521 4.0625 44.2396 3.9375 44.9062 3.6875C45.5729 3.4375 46.2604 3.3125 46.9688 3.3125C47.1354 3.3125 47.2812 3.33333 47.4062 3.375C47.5312 3.375 47.6562 3.375 47.7812 3.375C48.0729 3.375 48.2188 3.25 48.2188 3C48.2604 2.70833 48.4688 2.52083 48.8438 2.4375C49.1354 2.35417 49.5521 2.29167 50.0938 2.25C50.6354 2.20833 51.1979 2.16667 51.7812 2.125C52.4062 2.04167 52.9688 1.95833 53.4688 1.875C54.0104 1.75 54.4062 1.58333 54.6562 1.375L55.0938 0.6875" stroke="black"/>
</svg>
