<svg width="41" height="36" viewBox="0 0 41 36" fill="none" xmlns="http://www.w3.org/2000/svg">
<path d="M40.4375 29.4374C40.0625 29.854 39.625 30.229 39.125 30.5624C38.6667 30.8957 38.1667 31.2082 37.625 31.4999C37.0833 31.7499 36.5625 32.0415 36.0625 32.3749H35.25C33.5 32.3749 32.1458 31.9582 31.1875 31.1249C30.2708 30.2499 29.5625 29.1874 29.0625 27.9374C28.5625 26.6457 28.1875 25.2707 27.9375 23.8124C27.7292 22.354 30 -10.5 27.9375 10.5C27 17.6874 25.875 21.3124 25.875 21.3124C25.5417 21.854 25.1875 22.3957 24.8125 22.9374C24.4792 23.479 24.0833 23.979 23.625 24.4374C23.2083 24.8957 22.6458 25.2082 21.9375 25.3749C21.8125 25.6665 21.6667 25.9582 21.5 26.2499C21.375 26.5415 21.2917 26.854 21.25 27.1874C20.3333 27.6874 19.5 28.2707 18.75 28.9374C18 29.604 17.25 30.2915 16.5 30.9999C15.75 31.7082 14.9792 32.3957 14.1875 33.0624C13.4375 33.6874 12.5833 34.2082 11.625 34.6249C11.5833 34.5832 11.5 34.5624 11.375 34.5624C10.875 34.5624 10.4167 34.6874 10 34.9374C9.58333 35.1457 9.125 35.2499 8.625 35.2499C8.29167 35.2499 7.97917 35.1874 7.6875 35.0624C7.4375 34.9374 7.16667 34.7915 6.875 34.6249C6.625 34.4582 6.35417 34.3332 6.0625 34.2499C5.77083 34.1665 5.45833 34.1457 5.125 34.1874C4.70833 33.4374 4.14583 32.7499 3.4375 32.1249C2.77083 31.4582 2.35417 30.7082 2.1875 29.8749C2.10417 29.4999 2.04167 29.1249 2 28.7499C2 28.3332 1.95833 27.9165 1.875 27.4999C1.75 26.8749 1.58333 26.2499 1.375 25.6249C1.16667 24.9582 1 24.2915 0.875 23.6249C1.08333 22.4999 1.29167 21.2707 1.5 19.9374C1.66667 18.5624 1.875 17.2082 2.125 15.8749C2.41667 14.4999 2.79167 13.2082 3.25 11.9999C3.75 10.7499 4.375 9.68738 5.125 8.81238L5.0625 8.37488C5.0625 7.70821 5.1875 7.08321 5.4375 6.49988C5.6875 5.91655 5.95833 5.35405 6.25 4.81238C6.54167 4.27071 6.79167 3.72905 7 3.18738C7.20833 2.64571 7.25 2.04154 7.125 1.37488C7.625 1.12488 8.14583 0.916545 8.6875 0.749878" stroke="black"/>
</svg>
