<svg width="29" height="52" viewBox="0 0 29 52" fill="none" xmlns="http://www.w3.org/2000/svg">
<path d="M1 7L1.59375 8.5C3.42708 12.0833 4.82292 15.8125 5.78125 19.6875C6.78125 23.5208 7.65625 27.3958 8.40625 31.3125C8.61458 32.4375 8.80208 33.5625 8.96875 34.6875C9.17708 35.8125 9.40625 36.9583 9.65625 38.125C9.73958 38.375 9.86458 38.6458 10.0312 38.9375C10.1979 39.2292 10.2812 39.5208 10.2812 39.8125C10.2812 40.0625 10.2188 40.3125 10.0938 40.5625C10.3438 40.7292 10.9062 45.0208 11.0312 45.3125C11.1146 45.6042 10.0312 54.3798 11.0312 49.7548C12.3438 49.7548 15.6562 43.75 14.0312 43.125C14.0312 42.5 15.5312 39.0833 15.9062 38.75C15.9479 38.2917 16.0312 37.8542 16.1562 37.4375C16.3229 36.9792 16.4062 36.5208 16.4062 36.0625C16.8229 35.3542 17.1979 34.6875 17.5312 34.0625C17.8646 33.4375 18.0729 32.6875 18.1562 31.8125C18.3646 31.6458 18.4896 31.5208 18.5312 31.4375C18.5729 31.3125 18.7604 31.2917 19.0938 31.375C19.0938 30.25 19.2604 29.1667 19.5938 28.125C19.9688 27.0417 20.4688 26.0208 21.0938 25.0625C21.1771 24.1042 21.3646 23.1458 21.6562 22.1875C21.9896 21.1875 22.3646 20.2083 22.7812 19.25C22.9062 18.9583 23.0729 18.625 23.2812 18.25C23.4896 17.8333 23.5938 17.4583 23.5938 17.125C23.5938 16.9583 23.5521 16.8125 23.4688 16.6875C23.4271 16.5208 23.4062 16.3542 23.4062 16.1875C23.4062 15.8542 23.5312 15.5625 23.7812 15.3125C24.0312 15.0625 24.2604 14.8125 24.4688 14.5625C24.4688 13.6042 24.5729 12.6458 24.7812 11.6875C24.9896 10.7292 25.4062 9.89583 26.0312 9.1875C26.2396 7.77083 26.5104 6.39583 26.8438 5.0625C27.1771 3.6875 27.6562 2.375 28.2812 1.125" stroke="black"/>
</svg>
