<svg width="43" height="54" viewBox="0 0 43 54" fill="none" xmlns="http://www.w3.org/2000/svg">
<path d="M39 45C39.2917 43.8333 40.375 38.9583 41 38C41 38 41.4583 34.7083 42 33.625C42.1667 32.9167 42 28.7083 42 28C42 28 42.2917 25.5625 42 24.1875C41.75 22.7708 41.5833 19.0208 41.5 17.5625C41.2917 15.1458 41.5104 14.3125 41.4688 11.9375C41.3021 11.6042 41.1771 11.2083 41.0938 10.75L40.9062 9.375C40.8646 8.91667 40.7604 8.5 40.5938 8.125C40.4688 7.70833 40.2604 7.41667 39.9688 7.25C40.0938 6.83333 40.1562 6.33333 40.1562 5.75C40.1562 5.20833 40.0938 4.66667 39.9688 4.125C39.8854 3.58333 39.7812 3.04167 39.6562 2.5C39.9896 2.20833 40.2604 1.91667 40.4688 1.625M40.5938 42.1393C39.1354 42.6393 35.6771 51.6667 34.4688 52.5C32.8854 52.5 32 46 31 44.5M5.09375 53.4568C6.40625 53.5 9.34375 49.7917 10.0938 49.375C10.8854 48.9583 14.6667 42.8333 15.5 42.5C16.1667 41.375 17.9062 37.6875 16.9062 36.9375C17.2396 36.5208 17.5729 36.125 17.9062 35.75C18.2396 35.375 18.6354 35.0625 19.0938 34.8125C19.0521 34.7292 19.0312 34.625 19.0312 34.5C19.0312 34.125 19.1354 33.8333 19.3438 33.625C19.5938 33.4167 19.6562 33.0417 19.5312 32.5L19.7188 32.5625C19.9271 32.5625 20.0729 32.5 20.1562 32.375C20.2396 32.25 20.3021 32.1042 20.3438 31.9375C20.4271 31.7708 20.5104 31.625 20.5938 31.5C20.7188 31.3333 20.8854 31.2292 21.0938 31.1875V31.0625C21.0938 30.3125 21.2396 29.6042 21.5312 28.9375C21.8646 28.2708 22.0312 27.5625 22.0312 26.8125C22.0312 26.6042 22.0104 26.4167 21.9688 26.25C21.9271 26.0417 21.8646 25.8333 21.7812 25.625C22.1562 25.2083 22.3854 24.7292 22.4688 24.1875C22.5938 23.6458 22.6562 23.0833 22.6562 22.5C22.6979 21.9167 22.7396 21.3333 22.7812 20.75C22.8229 20.1667 22.4688 19.0625 23.2812 19.0625C23.3646 20.6875 26.7812 34.5 29 39.25C29.2743 39.8373 31.164 45.5417 31.6224 46M5.21875 53.5C4.05208 53.5 1.84375 41.25 1.34375 41.125C1.55208 40.2917 1.65625 39.4583 1.65625 38.625C1.69792 37.75 1.88542 36.9375 2.21875 36.1875C2.17708 35.9792 2.11458 35.7708 2.03125 35.5625C1.98958 35.3542 1.96875 35.1458 1.96875 34.9375C1.96875 34.4792 2.09375 33.9375 2.34375 33.3125C2.59375 32.6875 2.76042 32.1458 2.84375 31.6875C3.17708 30.2292 3.46875 28.7708 3.71875 27.3125C3.96875 25.8542 4.46875 24.4583 5.21875 23.125V21.125C5.71875 20.0417 6.11458 18.8542 6.40625 17.5625C6.69792 16.2708 6.92708 14.9375 7.09375 13.5625C7.30208 12.1875 7.42708 10.8333 7.46875 9.5C7.55208 8.125 7.59375 6.83333 7.59375 5.625V4.125C6.80208 3.5 5.96875 2.9375 5.09375 2.4375C4.26042 1.89583 3.40625 1.39583 2.53125 0.9375C2.07292 1.14583 1.69792 1.4375 1.40625 1.8125C1.15625 2.14583 0.927083 2.52083 0.71875 2.9375" stroke="black"/>
</svg>
