<svg width="47" height="50" viewBox="0 0 47 50" fill="none" xmlns="http://www.w3.org/2000/svg">
<path d="M46.5 42.875C46.0417 42.875 42.5104 41.0833 42.0937 40.875C41.7187 40.6667 41.3437 40.5208 40.9687 40.4375C40.0937 40.9375 39.177 41.1875 38.2187 41.1875C36.927 41.1875 35.677 40.9792 34.4687 40.5625C33.302 40.1042 32.0937 39.7708 30.8437 39.5625C30.4687 38.6875 29.927 37.9792 29.2187 37.4375C28.5104 36.8958 27.7812 36.3958 27.0312 35.9375C26.2812 35.4375 25.5937 34.8958 24.9687 34.3125C24.3437 33.7292 21.75 31 21.5 30C22.5 28.9375 15.1771 22.9792 14.5937 21.9375C14.0521 20.8958 13.5104 19.8542 12.9687 18.8125C12.4271 17.7708 11.8229 16.75 11.1562 15.75L10.0312 15.5C9.65622 15.4167 9.28122 15.3542 8.90622 15.3125C8.86455 14.9792 8.67705 14.75 8.34372 14.625C8.05205 14.5 5.75 10.6667 5.5 10.5M0.499989 49.5625C0.458323 49.2708 3.15622 48.1667 3.15622 47.875C3.15622 46.9167 3.30205 46.0625 3.59372 45.3125C3.88538 44.5208 4.21872 43.7083 4.59372 42.875C5.30205 42.5417 5.94788 42.1875 6.53122 41.8125C7.15622 41.3958 7.57288 40.7917 7.78122 40C8.32288 39.9583 8.76038 39.7917 9.09372 39.5C9.46872 39.1667 9.80205 38.8125 10.0937 38.4375C10.4271 38.0625 10.7604 37.7292 11.0937 37.4375C11.4271 37.1458 11.8854 36.9583 12.4687 36.875C12.4687 36.7917 12.4479 36.7083 12.4062 36.625C12.4062 36.5417 12.4062 36.4583 12.4062 36.375C12.4062 36.0833 12.4687 35.875 12.5937 35.75C12.7187 35.5833 12.8646 35.4583 13.0312 35.375C13.2396 35.25 13.4271 35.1458 13.5937 35.0625C13.8021 34.9792 13.9687 34.8333 14.0937 34.625C14.5521 34.125 21.125 29.0417 21.5 28.5C21.9167 27.9583 25.2187 24.3125 24.2812 23.9375C25.9062 22.8125 27.875 21.25 28.5 21C29.5 19.6667 31.2812 13.9583 32.2812 12.625C33.3229 11.2917 34.4895 10.0833 35.7812 9V8.125C36.4479 7.70833 37.0312 7.22917 37.5312 6.6875C38.0312 6.10417 38.5104 5.52083 38.9687 4.9375C39.427 4.3125 39.8645 3.6875 40.2812 3.0625C40.7395 2.4375 41.2604 1.875 41.8437 1.375" stroke="black"/>
</svg>
