<svg width="30" height="55" viewBox="0 0 30 55" fill="none" xmlns="http://www.w3.org/2000/svg">
<path d="M17.5 54C17.7917 52.75 15.7917 49.0417 16 47.5C16.2083 45.9167 15.7083 42.5417 16 41C16.2917 39.4167 17.0417 35.9167 17.5 34.5C17.9583 33.0417 18.4896 29.5417 19.2812 28.5C19.2812 27.75 21.0937 20.0002 24.1562 16.8752C23.3437 10.9377 24.4062 11.0627 25.9687 8.50024L29.1562 1.37524C28.6979 1.37524 28.1562 1.39608 27.5312 1.43774C26.9062 1.43774 26.3854 1.50024 25.9687 1.62524C25.7604 2.16691 25.5104 2.70858 25.2187 3.25024C24.9687 3.79191 24.6146 4.29191 24.1562 4.75024C24.0312 5.70858 23.7812 6.62524 23.4062 7.50024C23.0312 8.37524 22.6354 9.25024 22.2187 10.1252C21.8021 11.0002 21.4062 11.8752 21.0312 12.7502C20.6562 13.6252 20.4062 14.5419 20.2812 15.5002C19.9479 15.9169 19.6146 16.3752 19.2812 16.8752C18.9896 17.3336 18.7396 17.8336 18.5312 18.3752C18.1562 18.4586 17.6562 18.7086 17.0312 19.1252C16.4479 19.5002 15.9062 19.7919 15.4062 20.0002C15.1979 20.0836 15.1146 20.2919 15.1562 20.6252C15.2396 20.9169 15.1562 21.0627 14.9062 21.0627C14.4479 21.0627 14.0729 21.1669 13.7812 21.3752C13.4896 21.5836 13.1771 21.6877 12.8437 21.6877M1.49998 4.43774C1.49998 7.00024 0.49999 7.00024 1.49999 8.50024C1.58332 9.00024 2.45831 10.5627 2.49998 11.0627C2.54164 11.5211 2.49998 12.2086 2.49998 12.7502C2.49998 13.7502 2.62498 14.4586 2.49998 15.5002C2.41664 16.5002 1.53123 16.4377 2.49998 18.1877C2.49998 19.1252 2.15624 20.1252 3.49999 21.5002C3.79166 22.4169 4.63539 22.2919 5.34373 23.1252H5.59373C5.92706 23.0836 6.21873 23.1461 6.46873 23.3127C6.71873 23.4794 7.01039 23.5627 7.34373 23.5627C7.63539 23.5627 7.86456 23.4586 8.03123 23.2502C8.19789 23.0002 8.40623 22.8752 8.65623 22.8752C8.90623 22.8752 9.09373 22.9169 9.21873 23.0002C9.34373 23.0836 9.44789 23.1252 9.53123 23.1252C9.98956 23.1252 10.5104 22.9586 11.0937 22.6252C11.6771 22.2919 12.6771 22.1044 12.8437 21.6877M12.8437 21.6877C13.0104 21.8127 12.5937 21.6877 12.8437 21.6877Z" stroke="black"/>
</svg>
