<svg width="74" height="43" viewBox="0 0 74 43" fill="none" xmlns="http://www.w3.org/2000/svg">
<path d="M73.4688 32.625C72.8854 32.9167 72.3646 33.25 71.9062 33.625C71.4479 33.9583 70.9688 34.2917 70.4688 34.625C66.8021 35.0833 63.1771 35.6458 59.5938 36.3125C56.0104 36.9792 52.3854 37.5417 48.7188 38C48.2188 38.3333 47.5729 38.5625 46.7812 38.6875C45.9896 38.7708 45.1562 38.8542 44.2812 38.9375C43.4479 38.9792 42.6146 39.0833 41.7812 39.25C40.9479 39.375 40.2188 39.625 39.5938 40C36.8854 40.125 34.2604 40.5833 31.7188 41.375C31.2604 41.25 30.7812 41.1458 30.2812 41.0625C29.8229 40.9792 29.3646 40.9375 28.9062 40.9375C28.5729 40.9375 28.1979 40.9792 27.7812 41.0625C27.3646 41.1042 27.0312 41.2917 26.7812 41.625C25.7812 40.8333 24.5938 40.5417 23.2188 40.75C22.0938 40.25 21.0938 39.625 20.2188 38.875C19.3854 38.125 18.7396 37.1667 18.2812 36C18.3229 35.3333 18.3229 34.8333 18.2812 34.5C18.2396 34.125 17.9479 33.7292 17.4062 33.3125C17.4062 33.0208 17.4896 32.7917 17.6562 32.625C17.8646 32.4583 17.9896 32.2292 18.0312 31.9375C17.8646 31.6458 17.7812 31.2917 17.7812 30.875C17.7812 30.1667 17.9062 29.4583 18.1562 28.75C18.4062 28 18.4479 27.2708 18.2812 26.5625C18.8646 25.6042 19.5312 24.7083 20.2812 23.875C21.0312 23 21.7812 22.1667 22.5312 21.375C23.3229 20.5417 29.5312 15.8333 30.2812 15C31.0729 14.1667 40.0625 11 35.5 13.5M35.5 13.5C35.5 13.5 47.1771 8.02083 47.4688 7.6875C47.7604 7.35417 48.0104 7 48.2188 6.625C48.4271 6.25 48.5312 5.83333 48.5312 5.375C48.5312 4.54167 48.3021 3.85417 47.8438 3.3125C47.4271 2.72917 46.8646 2.27083 46.1562 1.9375C45.4896 1.60417 44.7604 1.375 43.9688 1.25C43.1771 1.125 42.4479 1.0625 41.7812 1.0625C41.2812 1.0625 40.7812 1.08333 40.2812 1.125C39.8229 1.16667 39.3646 1.29167 38.9062 1.5C37.0729 1.33333 35.2396 1.39583 33.4062 1.6875C31.6146 1.9375 29.8229 2.25 28.0312 2.625C26.2812 3 24.5104 3.35417 22.7188 3.6875C20.9271 3.97917 19.1354 4.08333 17.3438 4L16.0312 3.9375C15.8646 4.1875 15.7188 4.375 15.5938 4.5C15.4688 4.625 15.2396 4.72917 14.9062 4.8125C13.5729 5.02083 12.3438 5.20833 11.2188 5.375C10.1354 5.54167 8.96875 5.95833 7.71875 6.625C7.17708 6.58333 6.73958 6.625 6.40625 6.75C6.07292 6.875 5.78125 7.02083 5.53125 7.1875C5.28125 7.35417 5.07292 7.52083 4.90625 7.6875C4.73958 7.85417 4.55208 7.9375 4.34375 7.9375C4.21875 7.9375 4.09375 7.875 3.96875 7.75C3.51042 8.04167 3.17708 8.375 2.96875 8.75C2.71875 9.125 2.30208 9.3125 1.71875 9.3125C1.55208 9.6875 1.46875 10.1458 1.46875 10.6875M35.5 13.5C35.1667 13.7917 27.8125 17.0752 35.5 13.5Z" stroke="black"/>
</svg>
