<svg width="172" height="343" viewBox="0 0 172 343" fill="none" xmlns="http://www.w3.org/2000/svg">
<path d="M171.312 335.438C171.188 336.021 170.917 336.5 170.5 336.875C170.125 337.208 169.667 337.479 169.125 337.688C168.583 337.896 168.021 338.042 167.438 338.125C166.896 338.167 166.396 338.188 165.938 338.188C165.729 338.188 165.521 338.188 165.312 338.188C165.146 338.146 164.958 338.125 164.75 338.125C164.542 338.125 164.438 338.229 164.438 338.438C164.438 338.646 164.333 338.792 164.125 338.875C163.917 338.792 163.708 338.729 163.5 338.688C163.292 338.646 163.083 338.625 162.875 338.625C162.583 338.625 162.292 338.646 162 338.688C161.75 338.729 161.5 338.75 161.25 338.75C160.917 338.75 160.667 338.708 160.5 338.625C160.375 338.542 160.25 338.458 160.125 338.375C160.042 338.25 159.938 338.125 159.812 338C159.729 337.875 159.583 337.771 159.375 337.688C159.083 337.562 158.833 337.542 158.625 337.625C158.458 337.708 158.188 337.583 157.812 337.25C157.312 336.833 156.875 336.333 156.5 335.75C156.167 335.125 155.833 334.479 155.5 333.812C155.167 333.146 154.812 332.479 154.438 331.812C154.062 331.146 153.625 330.562 153.125 330.062H152.625C151.875 330.062 151.354 330.375 151.062 331C150.854 330.875 150.646 330.729 150.438 330.562C150.229 330.354 150 330.188 149.75 330.062C148.792 330.354 147.792 330.604 146.75 330.812C145.708 331.021 144.667 331.125 143.625 331.125H142.75C142.5 331.125 142.229 331.083 141.938 331C141.521 331.167 141.146 331.375 140.812 331.625C140.479 331.833 140.104 331.938 139.688 331.938C139.438 331.938 139.146 331.854 138.812 331.688C138.562 331.688 138.438 331.792 138.438 332C138.479 332.208 138.354 332.312 138.062 332.312H137.5C136.917 332.312 136.333 332.333 135.75 332.375C135.208 332.417 134.646 332.438 134.062 332.438C133.271 332.438 132.458 332.333 131.625 332.125C131.417 332.25 131.188 332.312 130.938 332.312C130.771 332.396 130.646 332.542 130.562 332.75C130.479 332.917 130.396 333.083 130.312 333.25C130.229 333.375 130.104 333.5 129.938 333.625C129.812 333.708 129.625 333.729 129.375 333.688C129.292 334.188 129.083 334.583 128.75 334.875C128.417 335.167 128.25 335.604 128.25 336.188C127.792 336.438 127.417 336.75 127.125 337.125C126.833 337.5 126.542 337.896 126.25 338.312C125.958 338.729 125.646 339.125 125.312 339.5C125.021 339.875 124.646 340.167 124.188 340.375C123.979 340.625 123.917 341.021 124 341.562C123.542 341.938 122.979 342.271 122.312 342.562C121.646 342.854 121.021 343 120.438 343C119.229 343 118.396 342.354 117.938 341.062C117.938 340.646 117.979 340.208 118.062 339.75C118.104 339.25 118.188 338.792 118.312 338.375C118.438 337.917 118.625 337.521 118.875 337.188C119.125 336.812 119.479 336.542 119.938 336.375C119.938 336 119.812 335.75 119.562 335.625C119.312 335.458 119.208 335.188 119.25 334.812C120.375 334.271 121.354 333.562 122.188 332.688C123.021 331.812 123.771 330.896 124.438 329.938C125.146 328.938 125.854 327.938 126.562 326.938C127.271 325.938 128.062 325.042 128.938 324.25V322.938C130.188 321.604 131 320.104 131.375 318.438C131.833 318.354 132.125 318.146 132.25 317.812C132.417 317.479 132.5 317.083 132.5 316.625C132.708 316.625 132.833 316.542 132.875 316.375C132.958 316.167 133.146 316.104 133.438 316.188C133.812 315.188 134.229 314.271 134.688 313.438C135.146 312.604 135.604 311.771 136.062 310.938C136.521 310.062 136.917 309.167 137.25 308.25C137.625 307.333 137.896 306.312 138.062 305.188C138.646 305.146 138.958 304.875 139 304.375C139.083 303.833 139.167 303.354 139.25 302.938C139.875 302.354 140.333 301.667 140.625 300.875C140.958 300.083 141.25 299.271 141.5 298.438C141.75 297.562 142.021 296.708 142.312 295.875C142.646 295 143.104 294.229 143.688 293.562V293.375C143.688 293.167 143.604 293.042 143.438 293C143.271 292.917 143.188 292.771 143.188 292.562C143.229 292.521 143.25 292.479 143.25 292.438C143.75 292.229 144.125 291.896 144.375 291.438C144.625 290.938 145 290.583 145.5 290.375C146.375 291.083 147.146 291.521 147.812 291.688C148.479 291.812 149.354 291.917 150.438 292C150.979 292.583 151.271 293.292 151.312 294.125C151.396 294.917 151.542 295.708 151.75 296.5C152.083 297.833 152.438 299.146 152.812 300.438C153.229 301.688 153.542 302.979 153.75 304.312C153.875 305.104 154.104 305.854 154.438 306.562C154.771 307.271 155 308 155.125 308.75C155.208 309.333 155.208 310 155.125 310.75C155.042 311.458 155.125 312.083 155.375 312.625L155.812 313.625C156.021 314.083 156.188 314.562 156.312 315.062C156.479 315.562 156.625 316.062 156.75 316.562C157.083 317.812 157.375 319.167 157.625 320.625C157.917 322.042 158.354 323.333 158.938 324.5C159.146 324.917 159.458 325.208 159.875 325.375C160.333 325.542 160.833 325.667 161.375 325.75C161.917 325.792 162.438 325.812 162.938 325.812C163.479 325.771 163.938 325.75 164.312 325.75H164.938C165.188 325.75 165.438 325.792 165.688 325.875C165.854 326.208 165.938 326.5 165.938 326.75C165.938 327.25 165.771 327.646 165.438 327.938C165.104 328.229 164.938 328.562 164.938 328.938C164.938 329.146 165.021 329.375 165.188 329.625C165.021 329.583 164.771 329.562 164.438 329.562C163.479 329.562 162.542 329.729 161.625 330.062C161.958 330.771 162.396 331.375 162.938 331.875C163.521 332.333 164.125 332.771 164.75 333.188C165.167 332.854 165.604 332.688 166.062 332.688C166.562 332.688 167.021 332.812 167.438 333.062C167.896 333.271 168.375 333.375 168.875 333.375C169.25 333.375 169.521 333.312 169.688 333.188C170.021 333.562 170.292 333.958 170.5 334.375C170.708 334.75 170.979 335.104 171.312 335.438ZM151.75 325.438C151.667 324.729 151.521 324.229 151.312 323.938C151.146 323.604 151 323.208 150.875 322.75C150.708 322.167 150.583 321.542 150.5 320.875C150.458 320.208 150.375 319.562 150.25 318.938C149.958 317.521 149.625 316.104 149.25 314.688C148.917 313.271 148.479 311.896 147.938 310.562C148.104 310.312 148.188 310.083 148.188 309.875V309.688C147.812 309.271 147.542 308.771 147.375 308.188C147.208 307.562 147.042 306.958 146.875 306.375C146.75 305.75 146.562 305.188 146.312 304.688C146.104 304.146 145.75 303.708 145.25 303.375C145.125 303.625 145.062 303.917 145.062 304.25C145.062 304.542 145.083 304.812 145.125 305.062C145.208 305.312 145.25 305.583 145.25 305.875C144.833 306.083 144.521 306.417 144.312 306.875C144.146 307.292 143.854 307.625 143.438 307.875C143.104 309.208 142.625 310.479 142 311.688C141.375 312.854 140.708 314.021 140 315.188C139.333 316.354 138.688 317.542 138.062 318.75C137.438 319.917 136.938 321.146 136.562 322.438C136.021 322.812 135.646 323.292 135.438 323.875C135.271 324.458 135.188 325.042 135.188 325.625C135.562 325.833 135.979 325.958 136.438 326C136.938 326 137.417 326 137.875 326C138.333 326 138.771 326.042 139.188 326.125C139.604 326.208 139.979 326.417 140.312 326.75C140.854 326.583 141.438 326.479 142.062 326.438C142.729 326.354 143.271 326.167 143.688 325.875C144.521 326.167 145.417 326.312 146.375 326.312C146.875 326.312 147.354 326.271 147.812 326.188C148.312 326.104 148.792 326 149.25 325.875C149.625 325.958 149.917 326.104 150.125 326.312C150.333 326.479 150.646 326.542 151.062 326.5C151.271 326.333 151.396 326.167 151.438 326C151.479 325.792 151.583 325.604 151.75 325.438Z" fill="black"/>
<path d="M49.1443 77.598C50.1988 76.1049 50.6561 75.0354 50.9584 74.2408C50.9987 74.1348 51.0376 74.0298 51.0758 73.9268C51.1773 73.6528 51.2734 73.3935 51.3757 73.1703C51.5018 72.895 51.6523 72.6377 51.8707 72.4077L52.735 68.4903L52.7357 68.4871C53.1491 66.6708 53.3475 65.4779 53.4883 64.6314C53.4989 64.5674 53.5092 64.5054 53.5193 64.4453C53.6585 63.6122 53.7565 63.0535 54.0325 62.5494C54.2344 62.1629 54.3424 61.8106 54.4424 61.4255C54.4621 61.3497 54.4817 61.2713 54.502 61.1906C54.5831 60.8669 54.6739 60.505 54.8158 60.1147L54.8192 60.1054L54.8229 60.0962C55.1806 59.2218 55.442 58.2407 55.6036 57.1498L55.6624 56.7529L56.0626 56.7243C56.2899 56.7081 56.3957 56.6515 56.4426 56.6108C56.4799 56.5785 56.525 56.5184 56.5374 56.369L56.5389 56.3517L56.5415 56.3345C56.6257 55.7875 56.7103 55.3007 56.7954 54.875L56.827 54.7173L56.9446 54.6075C57.5132 54.0768 57.9273 53.455 58.1915 52.7377L58.1955 52.727L58.1999 52.7165C58.5258 51.9425 58.8111 51.1479 59.0558 50.3326C59.3082 49.4496 59.5817 48.5872 59.8763 47.7454L59.8808 47.7325L59.881 47.7325C60.2044 46.8835 60.641 46.122 61.1919 45.4516C61.0547 45.3717 60.9359 45.2593 60.8516 45.1117C60.7575 44.9471 60.7232 44.7685 60.7232 44.598V44.3909L60.7857 44.3284V44.1397L61.0934 44.0115C61.4899 43.8463 61.7747 43.5914 61.9679 43.2407C62.2698 42.6416 62.7318 42.2038 63.3434 41.949L63.6186 41.8343L63.8503 42.0219C64.6935 42.7045 65.3931 43.0904 65.9555 43.2344C66.5954 43.3535 67.4454 43.455 68.5116 43.537L68.7065 43.552L68.8396 43.6953C69.4622 44.3658 69.797 45.1826 69.8469 46.1213C69.9277 46.8826 70.0684 47.6449 70.2693 48.4083L70.2708 48.4143L70.2708 48.4143C70.6018 49.7384 70.9535 51.0418 71.3257 52.3243C71.7497 53.5982 72.0676 54.9137 72.2797 56.2704M49.1443 77.598L71.7857 56.348M49.1443 77.598C49.1373 77.6077 49.1304 77.6175 49.1237 77.6273L49.9437 78.1995L49.9477 78.1938L49.9552 78.1834L49.1443 77.598ZM72.2797 56.2704C72.2797 56.2706 72.2797 56.2707 72.2797 56.2708L71.7857 56.348M72.2797 56.2704C72.2796 56.2703 72.2796 56.2702 72.2796 56.2701L71.7857 56.348M72.2797 56.2704C72.3975 57.0164 72.613 57.7207 72.9256 58.3851C73.2779 59.1337 73.5212 59.9068 73.6539 60.7033L73.6558 60.7148L73.6557 60.7148C73.7464 61.3496 73.7444 62.0599 73.6577 62.8408L73.6573 62.844C73.5826 63.4788 73.6603 64.0081 73.8647 64.451L73.8689 64.4601L73.8688 64.4601L74.3034 65.4536L73.8482 65.6605M71.7857 56.348C71.9107 57.1397 72.1399 57.8897 72.4732 58.598C72.8065 59.3064 73.0357 60.0355 73.1607 60.7855C73.244 61.3689 73.244 62.0355 73.1607 62.7855C73.0774 63.4939 73.1607 64.1189 73.4107 64.6605L73.8482 65.6605M73.8482 65.6605L74.3063 65.4601L74.3049 65.4569M73.8482 65.6605C74.0565 66.1189 74.2232 66.598 74.3482 67.098M74.3049 65.4569L68.1607 78.348C68.369 78.5147 68.6815 78.5772 69.0982 78.5355C69.198 78.4557 70.6984 78.2325 72.2392 78.0032L72.2394 78.0032L72.2395 78.0032L72.2397 78.0031C73.9155 77.7538 75.639 77.4974 75.6607 77.4105M74.3049 65.4569C74.5227 65.9367 74.6972 66.4372 74.8286 66.958M74.3049 65.4569L69.3462 78.9775M74.3482 67.098C74.5149 67.598 74.6607 68.098 74.7857 68.598M74.3482 67.098L74.8333 66.9768C74.8317 66.9705 74.8302 66.9643 74.8286 66.958M74.3482 67.098L74.8226 66.9399C74.8246 66.9459 74.8266 66.952 74.8286 66.958M74.7857 68.598C75.0231 69.4883 75.2394 70.8752 75.4345 72.1267L75.4346 72.1269L75.4347 72.1281C75.5135 72.6333 75.5888 73.1163 75.6607 73.5356M74.7857 68.598L75.2708 68.4768C75.2705 68.4756 75.2702 68.4744 75.2699 68.4733M74.7857 68.598L75.2688 68.4692C75.2692 68.4706 75.2696 68.4719 75.2699 68.4733M75.6607 73.5356C75.9524 74.9523 76.0357 76.5356 75.6607 77.4105M75.6607 73.5356L76.1535 73.4511C76.1531 73.4484 76.1526 73.4457 76.1521 73.443M75.6607 73.5356L76.1504 73.4348C76.151 73.4375 76.1516 73.4402 76.1521 73.443M75.6607 77.4105L76.1203 77.6075C76.1218 77.604 76.1233 77.6004 76.1248 77.5969M75.6607 77.4105L76.1458 77.5318C76.14 77.555 76.1329 77.5767 76.1248 77.5969M76.1248 77.5969C76.0755 77.7206 75.9913 77.7896 75.9647 77.8107C75.9209 77.8454 75.8796 77.8669 75.8571 77.8778C75.8098 77.9007 75.7626 77.9165 75.7299 77.9266C75.6598 77.9482 75.5725 77.969 75.4801 77.9888C75.2914 78.0292 75.0313 78.076 74.7293 78.1264C74.1233 78.2275 73.3192 78.348 72.5156 78.4676L72.314 78.4976C71.5761 78.6074 70.8517 78.7152 70.2852 78.8065C69.9757 78.8564 69.7188 78.9006 69.5349 78.9368C69.4519 78.9531 69.3895 78.9667 69.3462 78.9775M76.1248 77.5969C76.3499 77.0647 76.4214 76.3714 76.4107 75.6686C76.3997 74.9518 76.302 74.1733 76.1521 73.443M69.3462 78.9775L69.4106 78.926C69.3695 78.9588 69.334 78.9756 69.3248 78.9799C69.3114 78.9862 69.3027 78.9893 69.3021 78.9895C69.302 78.9895 69.302 78.9895 69.3022 78.9894C69.3036 78.989 69.3124 78.9862 69.3316 78.9812C69.3362 78.98 69.341 78.9788 69.3462 78.9775ZM69.3462 78.9775L69.2951 79.0183L69.148 79.0331C68.6729 79.0806 68.2038 79.0228 67.8484 78.7385L67.8267 78.7212L67.8072 78.7016C67.6994 78.5938 67.536 78.4959 67.2902 78.4269M69.3462 78.9775L67.2857 77.9105M76.1521 73.443C76.0839 73.0446 76.0112 72.578 75.9343 72.0848C75.7378 70.825 75.5142 69.391 75.2699 68.4733M75.2699 68.4733C75.1434 67.9678 74.9963 67.4627 74.8286 66.958M67.2902 78.4269C67.3327 78.4158 67.3751 78.4044 67.4173 78.3929L67.2857 77.9105M67.2902 78.4269C67.2544 78.4169 67.2167 78.4074 67.1773 78.3986L67.2857 77.9105M67.2902 78.4269C66.8546 78.5413 66.4025 78.6375 65.9339 78.7156M67.2857 77.9105C66.8274 78.0355 66.3482 78.1397 65.8482 78.223M65.9339 78.7156C65.9352 78.7154 65.9364 78.7152 65.9377 78.715L65.8482 78.223M65.9339 78.7156C65.4452 78.8043 64.9372 78.848 64.4107 78.848C63.4884 78.848 62.6142 78.7197 61.7909 78.4599M65.9339 78.7156C65.9328 78.7158 65.9316 78.716 65.9304 78.7162L65.8482 78.223M65.8482 78.223L61.7909 78.4599M61.7909 78.4599C61.8663 78.4161 61.9394 78.3696 62.0099 78.3202L61.7232 77.9105L61.558 78.3825C61.6352 78.4095 61.7128 78.4353 61.7909 78.4599ZM61.7909 78.4599C61.3305 78.7273 60.781 78.8916 60.1602 78.9692L60.1459 78.971L60.1315 78.9719C59.5411 79.0113 58.9963 79.1093 58.4953 79.2634L58.2075 79.352L57.9947 79.1391C57.7232 78.8676 57.4346 78.7127 57.1252 78.6508C56.7432 78.5744 56.3387 78.5355 55.9107 78.5355H54.4732H54.4505L54.4279 78.5335C53.9484 78.4899 53.5007 78.3652 53.0901 78.156M61.7909 78.4599L60.0982 78.473C59.4732 78.5147 58.8899 78.6189 58.3482 78.7855C58.0149 78.4522 57.6399 78.2439 57.2232 78.1605C56.8065 78.0772 56.369 78.0355 55.9107 78.0355H54.4732C54.0149 77.9939 53.5982 77.8689 53.2232 77.6605M53.0901 78.156C53.1365 78.1589 53.1811 78.1605 53.2232 78.1605V77.6605M53.0901 78.156C53.0532 78.1372 53.0166 78.1178 52.9804 78.0976L53.2232 77.6605M53.0901 78.156C52.8678 78.142 52.6018 78.0978 52.35 78.0559L52.3349 78.0534L52.3119 78.0496C51.9884 77.9958 51.648 77.9392 51.313 77.91C50.9672 77.8799 50.6603 77.8824 50.4147 77.9343C50.1745 77.9851 50.0364 78.073 49.9569 78.181L49.9593 78.1776C50.1467 77.9123 50.3165 77.6592 50.471 77.4175C51.0671 77.3358 51.7938 77.4566 52.3869 77.5552L52.387 77.5552C52.7256 77.6115 53.0207 77.6605 53.2232 77.6605M57.2857 29.2158L57.3362 29.7132L57.5031 29.6963L57.626 29.5821L57.2857 29.2158ZM57.2857 29.2158C57.626 29.5821 57.6262 29.5819 57.6265 29.5817L57.6271 29.5811L57.6282 29.58L57.6309 29.5775L57.6375 29.5712C57.6424 29.5664 57.6484 29.5605 57.6554 29.5534C57.6693 29.5392 57.6871 29.5204 57.7081 29.4968C57.7503 29.4495 57.8057 29.3828 57.8692 29.295C57.9965 29.1193 58.1562 28.86 58.3096 28.5037C58.6174 27.7894 58.8946 26.6988 58.848 25.1311L58.8451 25.0336L58.8058 24.9443C58.5827 24.4381 58.3421 24.0397 58.0063 23.7772C57.6505 23.4991 57.2534 23.4228 56.8347 23.4185C56.5176 23.4153 56.1388 23.4547 55.7138 23.4989C55.6085 23.5099 55.5003 23.5211 55.3896 23.5321C54.8142 23.5891 54.1103 23.6463 53.2232 23.6463H53.0055L52.8572 23.8056C52.825 23.8402 52.7935 23.874 52.7625 23.9071C52.3604 24.3368 52.0635 24.6541 51.9315 25.1862C51.8654 25.4527 51.8423 25.7581 51.8328 26.1346C51.8254 26.4253 51.8259 26.7827 51.8266 27.2243C51.8267 27.3572 51.8269 27.4976 51.8269 27.6461C51.8269 28.4211 52.0965 28.9882 52.5845 29.3418C53.0396 29.6716 53.6089 29.7578 54.098 29.7698C54.5348 29.7806 54.9775 29.732 55.3166 29.6948C55.3619 29.6899 55.4054 29.6851 55.4468 29.6807C55.6008 29.6643 55.7161 29.6541 55.8007 29.6516L55.8213 29.679L56.022 29.7099C56.3068 29.7539 56.6429 29.752 56.8878 29.7427C57.0144 29.7378 57.1252 29.7306 57.2045 29.7246C57.2442 29.7215 57.2763 29.7188 57.2989 29.7167L57.3254 29.7143L57.3328 29.7136L57.335 29.7133L57.3358 29.7133L57.336 29.7132L57.3361 29.7132L57.2857 29.2158ZM74.7857 31.1462C76.4289 31.1462 77.7192 31.0304 78.5943 30.5145C79.5228 29.9672 79.8881 29.0438 79.9097 27.7686C80.3447 26.8702 80.1988 25.9504 79.7687 25.1704C79.3271 24.3694 78.5754 23.6852 77.7672 23.2142C76.9636 22.746 76.0386 22.4509 75.2228 22.5069C74.8087 22.5353 74.4021 22.6563 74.0628 22.9145C73.7184 23.1766 73.4791 23.5534 73.3627 24.0269C72.9728 25.6125 73.0407 27.3126 73.2916 28.6158C73.417 29.2672 73.5923 29.8419 73.7936 30.2666C73.8933 30.4769 74.0098 30.6729 74.1461 30.8244C74.2704 30.9626 74.4863 31.1462 74.7857 31.1462Z" stroke="black"/>
</svg>
