<svg width="55" height="93" viewBox="0 0 55 93" fill="none" xmlns="http://www.w3.org/2000/svg">
<path d="M54.3125 85.4375C54.1875 86.0208 53.9167 86.5 53.5 86.875C53.125 87.2083 52.6667 87.4791 52.125 87.6875C51.5833 87.8958 51.0208 88.0416 50.4375 88.125C49.8958 88.1666 49.3958 88.1875 48.9375 88.1875C48.7292 88.1875 48.5208 88.1875 48.3125 88.1875C48.1458 88.1458 47.9583 88.125 47.75 88.125C47.5417 88.125 47.4375 88.2291 47.4375 88.4375C47.4375 88.6458 47.3333 88.7916 47.125 88.875C46.9167 88.7916 46.7083 88.7291 46.5 88.6875C46.2917 88.6458 46.0833 88.625 45.875 88.625C45.5833 88.625 45.2917 88.6458 45 88.6875C44.75 88.7291 44.5 88.75 44.25 88.75C43.9167 88.75 43.6667 88.7083 43.5 88.625C43.375 88.5416 43.25 88.4583 43.125 88.375C43.0417 88.25 42.9375 88.125 42.8125 88C42.7292 87.875 42.5833 87.7708 42.375 87.6875C42.0833 87.5625 41.8333 87.5416 41.625 87.625C41.4583 87.7083 41.1875 87.5833 40.8125 87.25C40.3125 86.8333 39.875 86.3333 39.5 85.75C39.1667 85.125 38.8333 84.4791 38.5 83.8125C38.1667 83.1458 37.8125 82.4791 37.4375 81.8125C37.0625 81.1458 36.625 80.5625 36.125 80.0625H35.625C34.875 80.0625 34.3542 80.375 34.0625 81C33.8542 80.875 33.6458 80.7291 33.4375 80.5625C33.2292 80.3541 33 80.1875 32.75 80.0625C31.7917 80.3541 30.7917 80.6041 29.75 80.8125C28.7083 81.0208 27.6667 81.125 26.625 81.125H25.75C25.5 81.125 25.2292 81.0833 24.9375 81C24.5208 81.1666 24.1458 81.375 23.8125 81.625C23.4792 81.8333 23.1042 81.9375 22.6875 81.9375C22.4375 81.9375 22.1458 81.8541 21.8125 81.6875C21.5625 81.6875 21.4375 81.7916 21.4375 82C21.4792 82.2083 21.3542 82.3125 21.0625 82.3125H20.5C19.9167 82.3125 19.3333 82.3333 18.75 82.375C18.2083 82.4166 17.6458 82.4375 17.0625 82.4375C16.2708 82.4375 15.4583 82.3333 14.625 82.125C14.4167 82.25 14.1875 82.3125 13.9375 82.3125C13.7708 82.3958 13.6458 82.5416 13.5625 82.75C13.4792 82.9166 13.3958 83.0833 13.3125 83.25C13.2292 83.375 13.1042 83.5 12.9375 83.625C12.8125 83.7083 12.625 83.7291 12.375 83.6875C12.2917 84.1875 12.0833 84.5833 11.75 84.875C11.4167 85.1666 11.25 85.6041 11.25 86.1875C10.7917 86.4375 10.4167 86.75 10.125 87.125C9.83333 87.5 9.54167 87.8958 9.25 88.3125C8.95833 88.7291 8.64583 89.125 8.3125 89.5C8.02083 89.875 7.64583 90.1666 7.1875 90.375C6.97917 90.625 6.91667 91.0208 7 91.5625C6.54167 91.9375 5.97917 92.2708 5.3125 92.5625C4.64583 92.8541 4.02083 93 3.4375 93C2.22917 93 1.39583 92.3541 0.9375 91.0625C0.9375 90.6458 0.979167 90.2083 1.0625 89.75C1.10417 89.25 1.1875 88.7916 1.3125 88.375C1.4375 87.9166 1.625 87.5208 1.875 87.1875C2.125 86.8125 2.47917 86.5416 2.9375 86.375C2.9375 86 2.8125 85.75 2.5625 85.625C2.3125 85.4583 2.20833 85.1875 2.25 84.8125C3.375 84.2708 4.35417 83.5625 5.1875 82.6875C6.02083 81.8125 6.77083 80.8958 7.4375 79.9375C8.14583 78.9375 8.85417 77.9375 9.5625 76.9375C10.2708 75.9375 11.0625 75.0416 11.9375 74.25V72.9375C13.1875 71.6041 14 70.1041 14.375 68.4375C14.8333 68.3541 15.125 68.1458 15.25 67.8125C15.4167 67.4791 15.5 67.0833 15.5 66.625C15.7083 66.625 15.8333 66.5416 15.875 66.375C15.9583 66.1666 16.1458 66.1041 16.4375 66.1875C16.8125 65.1875 17.2292 64.2708 17.6875 63.4375C18.1458 62.6041 18.6042 61.7708 19.0625 60.9375C19.5208 60.0625 19.9167 59.1666 20.25 58.25C20.625 57.3333 20.8958 56.3125 21.0625 55.1875C21.6458 55.1458 21.9583 54.875 22 54.375C22.0833 53.8333 22.1667 53.3541 22.25 52.9375C22.875 52.3541 23.3333 51.6666 23.625 50.875C23.9583 50.0833 24.25 49.2708 24.5 48.4375C24.75 47.5625 25.0208 46.7083 25.3125 45.875C25.6458 45 26.1042 44.2291 26.6875 43.5625V43.375C26.6875 43.1666 26.6042 43.0416 26.4375 43C26.2708 42.9166 26.1875 42.7708 26.1875 42.5625C26.2292 42.5208 26.25 42.4791 26.25 42.4375C26.75 42.2291 27.125 41.8958 27.375 41.4375C27.625 40.9375 28 40.5833 28.5 40.375C29.375 41.0833 30.1458 41.5208 30.8125 41.6875C31.4792 41.8125 32.3542 41.9166 33.4375 42C33.9792 42.5833 34.2708 43.2916 34.3125 44.125C34.3958 44.9166 34.5417 45.7083 34.75 46.5C35.0833 47.8333 35.4375 49.1458 35.8125 50.4375C36.2292 51.6875 36.5417 52.9791 36.75 54.3125C36.875 55.1041 37.1042 55.8541 37.4375 56.5625C37.7708 57.2708 38 58 38.125 58.75C38.2083 59.3333 38.2083 60 38.125 60.75C38.0417 61.4583 38.125 62.0833 38.375 62.625L38.8125 63.625C39.0208 64.0833 39.1875 64.5625 39.3125 65.0625C39.4792 65.5625 39.625 66.0625 39.75 66.5625C40.0833 67.8125 40.375 69.1666 40.625 70.625C40.9167 72.0416 41.3542 73.3333 41.9375 74.5C42.1458 74.9166 42.4583 75.2083 42.875 75.375C43.3333 75.5416 43.8333 75.6666 44.375 75.75C44.9167 75.7916 45.4375 75.8125 45.9375 75.8125C46.4792 75.7708 46.9375 75.75 47.3125 75.75H47.9375C48.1875 75.75 48.4375 75.7916 48.6875 75.875C48.8542 76.2083 48.9375 76.5 48.9375 76.75C48.9375 77.25 48.7708 77.6458 48.4375 77.9375C48.1042 78.2291 47.9375 78.5625 47.9375 78.9375C47.9375 79.1458 48.0208 79.375 48.1875 79.625C48.0208 79.5833 47.7708 79.5625 47.4375 79.5625C46.4792 79.5625 45.5417 79.7291 44.625 80.0625C44.9583 80.7708 45.3958 81.375 45.9375 81.875C46.5208 82.3333 47.125 82.7708 47.75 83.1875C48.1667 82.8541 48.6042 82.6875 49.0625 82.6875C49.5625 82.6875 50.0208 82.8125 50.4375 83.0625C50.8958 83.2708 51.375 83.375 51.875 83.375C52.25 83.375 52.5208 83.3125 52.6875 83.1875C53.0208 83.5625 53.2917 83.9583 53.5 84.375C53.7083 84.75 53.9792 85.1041 54.3125 85.4375Z" fill="black"/>
<path d="M42.3165 5.6097C42.1681 5.84573 42.0857 6.10704 42.0693 6.39363C42.0529 6.68023 42.0486 6.94065 42.0565 7.17489C42.067 7.48721 42.0775 7.79954 42.088 8.11186C42.1237 8.39786 42.1463 8.68401 42.1559 8.9703L42.1756 9.55591C42.1297 9.7387 42.0577 9.92178 41.9596 10.1052C41.8616 10.2885 41.7896 10.4716 41.7436 10.6544C41.4114 11.6216 41.2615 12.5867 41.2939 13.5497L41.2965 13.6277C41.1768 13.9415 41.0562 14.2293 40.9348 14.4911C40.8394 14.7526 40.744 15.014 40.6486 15.2755C40.5523 15.5109 40.4829 15.7721 40.4404 16.059C40.3971 16.3198 40.3946 16.6323 40.4329 16.9964C40.0989 17.9115 39.6452 18.7499 39.0716 19.5115C38.4972 20.2471 37.9367 21.0086 37.39 21.796C36.8502 22.0104 36.3516 22.2895 35.8943 22.6332C35.4629 22.9766 35.046 23.359 34.6433 23.7802C33.8448 24.0497 33.0607 24.3581 32.2909 24.7053C31.521 25.0526 30.8333 25.5161 30.2275 26.0959C29.7345 26.1536 29.2424 26.2373 28.7511 26.3471C28.2599 26.4569 27.7834 26.6185 27.3217 26.8321L26.853 26.8375C26.6186 26.8402 26.4476 26.79 26.3399 26.6871C26.0075 26.8732 25.6604 27.0073 25.2984 27.0896C24.9356 27.1458 24.5719 27.176 24.2074 27.1802C23.7387 27.1856 23.2691 27.1649 22.7986 27.1182C22.3533 27.0452 21.895 26.9723 21.4236 26.8996C21.151 26.5382 20.7772 26.2691 20.3024 26.0923C19.8267 25.8894 19.4035 25.699 19.0328 25.5209C18.2426 24.4885 17.6621 23.4927 17.2912 22.5336C16.9195 21.5484 16.5307 20.4463 16.1251 19.2272C16.1649 18.8622 16.2442 18.5098 16.3631 18.17C16.481 17.8041 16.52 17.4131 16.4799 16.997C16.9032 15.6382 17.474 14.408 18.1924 13.3062C18.936 12.1781 19.7855 11.1009 20.7409 10.0745C20.7356 9.91833 20.7573 9.7879 20.8059 9.6832C20.8805 9.57819 20.8883 9.42188 20.8292 9.21426C20.8561 9.23999 20.9086 9.25241 20.9867 9.25152C21.1951 9.24913 21.3235 9.19559 21.3721 9.09089C21.4198 8.96016 21.428 8.81686 21.3967 8.66099C22.314 8.05165 23.1372 7.35226 23.8661 6.56281C24.621 5.77306 25.4845 5.11226 26.4565 4.5804C26.5268 4.34527 26.6504 4.14857 26.8275 3.99033C27.0045 3.83208 27.1416 3.64825 27.2387 3.43885C28.0642 3.19507 28.8075 2.83507 29.4688 2.35884C30.1301 1.88261 30.8322 1.45798 31.5751 1.08497C31.9839 0.84596 32.3692 0.68533 32.7312 0.603079C33.1183 0.494503 33.5314 0.385629 33.9706 0.276457C34.1251 0.222616 34.267 0.181938 34.3963 0.154421C34.5256 0.126905 34.6684 0.112253 34.8246 0.110466C35.2934 0.105104 35.7521 0.190986 36.2009 0.368111C36.6489 0.519209 37.1072 0.592077 37.5759 0.586715C37.7061 0.585226 37.8103 0.584034 37.8884 0.58314C37.9917 0.555922 38.0949 0.528703 38.1982 0.501485C38.6593 1.04299 39.2331 1.45301 39.9198 1.73157C40.0892 2.12018 40.2828 2.45645 40.5008 2.74036C40.7447 3.02398 40.9887 3.30759 41.2327 3.59121C41.4758 3.8488 41.6942 4.14573 41.8878 4.48199C42.1067 4.79193 42.2495 5.16783 42.3165 5.6097Z" fill="black"/>
</svg>
