<svg width="56" height="79" viewBox="0 0 56 79" fill="none" xmlns="http://www.w3.org/2000/svg">
<path d="M55.2909 4.22863V4.20289L55.2883 4.17729C55.2697 3.99697 55.2699 3.84795 55.2743 3.74678C55.2766 3.69632 55.2798 3.65819 55.2823 3.63449C55.2835 3.62265 55.2845 3.61446 55.285 3.61019L55.2851 3.60943L55.2851 3.60925L55.2852 3.60908L55.2852 3.60876L55.2853 3.60818L55.2854 3.60732L55.2855 3.60676L55.2885 3.58736L55.2899 3.56507C55.3309 2.92289 55.1161 2.41584 54.765 2.03228C54.4288 1.66504 53.9858 1.42967 53.5858 1.26636C53.2707 1.13775 52.9449 1.04017 52.6903 0.963898C52.6235 0.94389 52.5615 0.92535 52.506 0.9081C52.3947 0.873512 52.3162 0.846492 52.2625 0.824524L52.1959 0.758335C52.1206 0.683495 52.0181 0.598464 51.8868 0.549347C51.7343 0.492311 51.5543 0.489588 51.3877 0.577469C51.3668 0.588515 51.3473 0.600395 51.3291 0.612812L51.2454 0.613079C51.1137 0.613499 50.9715 0.637149 50.8637 0.655842C50.8374 0.660393 50.812 0.664877 50.7873 0.669246C50.6961 0.685364 50.6136 0.69993 50.5283 0.710583C50.291 0.740235 50.2025 0.712428 50.1778 0.696067L49.9999 0.578281L49.7962 0.624238C49.7962 0.624018 49.7776 0.626424 49.7317 0.625389C49.6786 0.624191 49.6103 0.619083 49.5259 0.610262C49.4233 0.599535 49.324 0.586636 49.2166 0.572688C49.1325 0.561765 49.0434 0.550197 48.9439 0.538525C48.7421 0.514859 48.5124 0.493011 48.3135 0.502153C48.2148 0.506695 48.0955 0.519768 47.9799 0.558593C47.8678 0.596238 47.6973 0.679412 47.5913 0.866332L47.5866 0.874688C47.5805 0.881783 47.5695 0.894091 47.5518 0.912102C47.5056 0.959242 47.4376 1.02142 47.3488 1.09779C47.1716 1.25011 46.9423 1.43245 46.7021 1.62331L46.6964 1.6278C46.4628 1.81344 46.219 2.00718 46.0256 2.17342C45.9283 2.25701 45.836 2.34029 45.7608 2.41688C45.7034 2.47538 45.5968 2.58695 45.5398 2.72104L45.5241 2.75791L45.5145 2.79681C45.5047 2.83668 45.4605 2.96011 45.377 3.15973C45.2988 3.34648 45.1988 3.57064 45.0942 3.7938C44.9895 4.01717 44.8823 4.23528 44.7899 4.41053C44.7436 4.49834 44.7028 4.57218 44.6691 4.62906C44.6317 4.69207 44.6144 4.71496 44.6149 4.71437L44.3884 4.98792L44.5721 5.29185C44.6661 5.44742 45.0086 6.15336 45.4049 6.97013C45.472 7.10859 45.5408 7.25023 45.6101 7.39292C45.8436 7.87355 46.0785 8.35464 46.2712 8.73696C46.3674 8.92789 46.4545 9.09709 46.5264 9.23057C46.5913 9.35095 46.6618 9.47684 46.7204 9.55441L46.8505 9.72675L47.0652 9.75018L47.1194 9.25313L47.0652 9.75019L47.0654 9.7502L47.0661 9.75028L47.069 9.75059L47.0804 9.75184L47.1251 9.75677L47.2961 9.77576C47.4437 9.79225 47.6552 9.81609 47.9107 9.84548C48.4218 9.90428 49.1079 9.98521 49.8092 10.0738C50.5114 10.1625 51.2251 10.2585 51.7926 10.3473C52.0768 10.3918 52.3194 10.4338 52.5035 10.4714C52.6686 10.5051 52.7478 10.5282 52.7708 10.5349C52.7771 10.5367 52.7792 10.5373 52.7778 10.5366L53.0378 10.6656L53.2787 10.5038C53.4422 10.3941 53.6415 10.1871 53.8428 9.90887C54.0515 9.6204 54.2818 9.2284 54.4961 8.72282C54.9254 7.71012 55.2909 6.24087 55.2909 4.22863ZM48.025 8.85203C47.7765 8.82345 47.5693 8.80007 47.4216 8.78356C47.4168 8.77473 47.4118 8.76562 47.4068 8.75621C47.3412 8.63457 47.2588 8.47475 47.1642 8.28697C46.9752 7.91187 46.7431 7.43674 46.5096 6.95595C46.4419 6.81659 46.3735 6.67567 46.3058 6.53596C46.0238 5.95447 45.7521 5.39401 45.5782 5.05428C45.6112 4.99577 45.6437 4.9354 45.6746 4.87681C45.7763 4.6838 45.8906 4.45094 45.9997 4.21817C46.1089 3.98519 46.2148 3.74802 46.2995 3.54577C46.36 3.40103 46.4184 3.25404 46.4565 3.13612C46.4615 3.13076 46.4674 3.12454 46.4744 3.11744C46.5207 3.0703 46.5886 3.00812 46.6774 2.93176C46.8546 2.77944 47.084 2.5971 47.3242 2.40624L47.3298 2.40173C47.5634 2.2161 47.8073 2.02237 48.0007 1.85613C48.0979 1.77254 48.1902 1.68926 48.2654 1.61267C48.2919 1.58568 48.3289 1.54739 48.3666 1.5008C48.4761 1.49658 48.6321 1.5088 48.8274 1.53171C48.8981 1.54001 48.9798 1.55051 49.0637 1.56132C49.1874 1.57722 49.316 1.59377 49.422 1.60484C49.5305 1.61619 49.6687 1.62893 49.8036 1.62473C50.11 1.75322 50.4368 1.72979 50.6523 1.70287C50.7654 1.68874 50.8798 1.66848 50.9732 1.65193C50.9914 1.6487 51.0089 1.64561 51.0253 1.64273C51.1031 1.71317 51.263 1.82583 51.4885 1.79598C51.5992 1.78132 51.6851 1.73708 51.7491 1.6881C51.7597 1.69362 51.77 1.69879 51.7799 1.70363C51.9081 1.76636 52.0651 1.81826 52.2094 1.86309C52.2812 1.88542 52.3546 1.90742 52.429 1.92977C52.6792 2.00483 52.9424 2.08381 53.2078 2.19219C53.55 2.33189 53.836 2.4985 54.0273 2.70749C54.201 2.89719 54.3113 3.1361 54.2929 3.48497C54.2914 3.49719 54.2895 3.51299 54.2875 3.53215C54.2832 3.57375 54.2785 3.63136 54.2753 3.70269C54.2693 3.83969 54.2692 4.02877 54.2909 4.25329C54.288 6.12992 53.9465 7.45731 53.5755 8.33254C53.3888 8.77283 53.1948 9.09855 53.0326 9.32271C52.9727 9.40555 52.9178 9.47352 52.8701 9.52768C52.814 9.51458 52.7576 9.50262 52.7036 9.49158C52.4976 9.44952 52.2377 9.40484 51.9472 9.35936C51.3651 9.26824 50.64 9.17083 49.9346 9.08171C49.2284 8.99248 48.5383 8.91109 48.025 8.85203ZM17.1664 9.77147L17.1664 9.77158L17.1762 9.77744C18.0977 10.3263 19.1478 10.5924 20.3111 10.5887C20.6732 10.5875 20.9597 10.392 21.1588 10.2057C21.3634 10.0142 21.5425 9.76971 21.6937 9.54292C21.7865 9.40374 21.8838 9.24745 21.9719 9.10587C22.0226 9.02441 22.0702 8.94781 22.1123 8.88216C22.2415 8.68019 22.3303 8.56089 22.3896 8.50445C22.5739 8.3466 22.7247 8.13234 22.7271 7.85134C22.729 7.62627 22.6259 7.43833 22.5818 7.3579C22.5795 7.35355 22.5773 7.34952 22.5752 7.34581C22.5159 7.23658 22.5004 7.20523 22.4934 7.17382C22.4933 7.17344 22.4932 7.17302 22.4931 7.17255C22.4912 7.16529 22.4864 7.14612 22.5112 7.09253L22.5644 6.97772L22.5565 6.85146L22.5565 6.85142L22.5565 6.85113L22.5564 6.84986L22.5561 6.8445L22.5548 6.82293L22.5499 6.73937C22.5458 6.6668 22.5401 6.56208 22.5337 6.43409C22.521 6.17788 22.5058 5.82956 22.4956 5.45999C22.4855 5.08954 22.4805 4.70222 22.488 4.36671C22.4957 4.01712 22.5165 3.76704 22.5445 3.6462L22.6255 3.29727L22.3211 3.1084C22.2088 3.03872 21.9891 2.93557 21.7695 2.8325L21.7517 2.82412L21.7162 2.80749C21.4797 2.69647 21.2069 2.5684 20.9406 2.43386C20.6585 2.2913 20.3994 2.1492 20.2082 2.02114C20.1121 1.95675 20.0464 1.90461 20.0069 1.8664C20.003 1.86264 19.9995 1.85924 19.9966 1.85621L19.8611 1.36547L19.3426 1.57479C19.344 1.57421 19.3448 1.57389 19.3448 1.57383C19.3447 1.57357 19.3241 1.58028 19.2698 1.59358C19.2123 1.60767 19.1364 1.62461 19.0459 1.64354C18.8654 1.68127 18.6384 1.72453 18.4082 1.76556C18.1781 1.80657 17.9482 1.84475 17.762 1.87253C17.6688 1.88645 17.5889 1.89739 17.5266 1.90476C17.4629 1.91231 17.4347 1.91395 17.4309 1.91417C17.4306 1.91419 17.4304 1.9142 17.4305 1.9142L17.1487 1.9151C17.1065 1.91293 17.0615 1.91047 17.014 1.90787C16.9629 1.90508 16.909 1.90213 16.853 1.89924C16.7025 1.89146 16.538 1.88417 16.4085 1.88491C16.3473 1.88526 16.2725 1.88735 16.2049 1.89683C16.1761 1.90087 16.1128 1.91072 16.0443 1.93912C16.0416 1.94027 16.0386 1.94153 16.0354 1.94292C15.8215 2.00382 15.6639 2.14889 15.5682 2.32435C15.4686 2.50682 15.4387 2.71292 15.43 2.88298C15.4122 3.22819 15.4747 3.65218 15.5418 4.0337C15.5699 4.19368 15.5987 4.34603 15.6262 4.49145C15.6689 4.71657 15.7083 4.92505 15.7371 5.11941C15.7349 5.1464 15.7229 5.22605 15.6549 5.40355C15.634 5.45806 15.6058 5.52619 15.5741 5.60274C15.5028 5.77503 15.4139 5.98998 15.3508 6.18829C15.2519 6.49925 15.1762 6.87299 15.2355 7.27861C15.2962 7.69421 15.4922 8.09994 15.8646 8.48032L15.9447 8.56217L16.0525 8.60097C16.2411 8.66889 16.3127 8.72435 16.3403 8.75082C16.3635 8.7731 16.3799 8.79627 16.4163 8.87852C16.4207 8.88854 16.4256 8.90004 16.4311 8.91283C16.4677 8.99824 16.5289 9.14113 16.6292 9.28296C16.7515 9.45596 16.9204 9.61718 17.1664 9.77147ZM19.9802 1.83759C19.9802 1.8376 19.9809 1.8385 19.9822 1.8403C19.9807 1.83849 19.9801 1.83759 19.9802 1.83759ZM16.7134 4.88898C16.6829 4.69775 16.6423 4.48268 16.6024 4.27119C16.5758 4.13 16.5495 3.99041 16.5267 3.86058C16.4587 3.47375 16.4174 3.15274 16.4286 2.9343C16.4294 2.91965 16.4304 2.9064 16.4314 2.89446L16.5101 2.88593C16.594 2.88789 16.6942 2.89237 16.8014 2.89791C16.8494 2.90039 16.8993 2.90311 16.9487 2.90581C17.0477 2.91121 17.1451 2.91652 17.223 2.91966C17.2808 2.92198 17.3414 2.92372 17.3912 2.92262C17.4125 2.92215 17.453 2.92088 17.4963 2.91407C17.5008 2.91336 17.5079 2.91223 17.5171 2.91043C17.625 2.90235 17.7701 2.88239 17.9096 2.86157C18.1075 2.83205 18.347 2.79223 18.5837 2.75004C18.8203 2.70787 19.0575 2.66273 19.2505 2.62236C19.2774 2.61675 19.3049 2.61094 19.3325 2.60498C19.4274 2.69342 19.5388 2.77633 19.6516 2.8519C19.8944 3.01455 20.197 3.17853 20.4896 3.32638C20.7692 3.46769 21.054 3.60135 21.2884 3.71137L21.3267 3.72932C21.3966 3.76216 21.459 3.79155 21.5138 3.8176C21.4997 3.98263 21.4922 4.16371 21.4882 4.34452C21.4803 4.70346 21.4856 5.10916 21.496 5.48743C21.5064 5.86657 21.522 6.22266 21.535 6.48369C21.5415 6.61432 21.5473 6.72141 21.5515 6.79601L21.5519 6.80193C21.4813 7.01023 21.4764 7.20823 21.5174 7.39174C21.5566 7.56716 21.6377 7.71629 21.6824 7.79743C21.5279 7.95038 21.3873 8.15989 21.2701 8.34299C21.2124 8.43307 21.1589 8.51918 21.1063 8.60395C21.0267 8.7321 20.9491 8.85717 20.8617 8.98821C20.7216 9.19841 20.5937 9.36491 20.4755 9.4755C20.3601 9.58352 20.3071 9.58853 20.3071 9.5887C19.3063 9.59177 18.4401 9.36501 17.6931 8.92134C17.5458 8.8283 17.4808 8.75529 17.4456 8.70556C17.41 8.65516 17.3921 8.61413 17.3551 8.52934C17.3479 8.51287 17.3399 8.49475 17.331 8.47459C17.2787 8.35598 17.1987 8.18875 17.0329 8.02953C16.8958 7.89788 16.7237 7.79356 16.5094 7.70552C16.3229 7.49242 16.2494 7.30153 16.225 7.13401C16.1962 6.93702 16.2287 6.72743 16.3037 6.49141C16.3553 6.32924 16.4115 6.1946 16.4724 6.04854C16.4864 6.01496 16.5007 5.98077 16.5152 5.94551L16.6445 6.02722C16.7629 5.83992 16.773 5.61848 16.7727 5.48703C16.7725 5.34139 16.7557 5.17961 16.733 5.01907C16.7294 4.97588 16.723 4.93243 16.7134 4.88898ZM45.041 43.248L45.1431 43.095L45.1216 42.9123C45.0318 42.1491 44.8058 41.4734 44.4293 40.9008C44.1251 40.3394 43.7757 39.8367 43.3797 39.3951L42.2712 38.0403C41.9696 37.6233 41.6995 37.1232 41.4642 36.535L41.3868 36.3414L41.1948 36.2602C40.1836 35.8324 39.3555 35.2144 38.7011 34.4061L38.5005 34.1583L38.1912 34.2356L37.7509 34.3457H37.3125C36.6234 34.3457 35.9543 34.2317 35.303 34.0033C34.5395 33.6907 33.7498 33.5332 32.9375 33.5332C32.6602 33.5332 32.3976 33.5563 32.1519 33.6054C31.9255 33.6507 31.6833 33.7167 31.4262 33.8016C30.7262 33.9665 30.0659 34.1316 29.4454 34.2969C28.8093 34.4349 28.1456 34.7032 27.4561 35.0897C26.23 35.6825 25.0663 36.3599 23.9654 37.1221C22.9299 37.839 21.7724 38.3786 20.4896 38.7394L20.2767 38.7992L20.1778 38.9971C20.0418 39.269 19.8548 39.5081 19.6121 39.7161C19.3022 39.9817 19.0683 40.3051 18.9114 40.6797C18.0867 41.118 16.725 41.8694 15.3985 42.6672C13.9971 43.5102 12.5723 44.4413 11.8964 45.1171L11.6963 45.3173L11.7379 45.4838C11.7344 45.4919 11.7305 45.501 11.726 45.5111C11.6836 45.6058 11.6135 45.7388 11.5179 45.9047C11.3283 46.2338 11.0629 46.6508 10.7859 47.0701C10.2314 47.9097 9.65414 48.7235 9.6 48.7957L9.57295 48.8318L9.55279 48.8721C9.45511 49.0674 9.4029 49.2832 9.38371 49.509C7.83567 51.1117 6.4459 52.7952 5.21493 54.5596L5.21355 54.5616C3.97759 56.3516 2.97866 58.351 2.21501 60.5571L2.18222 60.6518L2.18847 60.7519C2.22611 61.3541 2.15095 61.909 1.96856 62.4221C1.74774 62.9976 1.59329 63.5946 1.50503 64.2125L1.48953 64.3209L1.52081 64.4259C2.10565 66.3893 2.67018 68.1667 3.2144 69.7575L3.21577 69.7614C3.77698 71.3587 4.678 73.0055 5.90769 74.7017L5.97949 74.8007L6.08889 74.8554C6.68046 75.1512 7.35419 75.4669 8.10943 75.8026L8.12025 75.8074L8.13128 75.8117C8.80209 76.0726 9.30228 76.4541 9.65563 76.9488L9.77601 77.1173L9.9803 77.1514C10.7288 77.2761 11.4564 77.4009 12.1631 77.5256L12.1789 77.5284L12.1948 77.5301C12.963 77.6155 13.7314 77.6582 14.5 77.6582C15.1072 77.6582 15.7142 77.6148 16.3207 77.5282L16.3378 77.5257L16.3548 77.5221C16.8877 77.4079 17.4036 77.2295 17.9017 76.988C18.1565 77.114 18.453 77.1582 18.75 77.1582H19.5H19.6061L19.7031 77.1151C20.4214 76.7958 21.1587 76.5568 21.9155 76.3975C22.6907 76.2343 23.4655 76.1119 24.2398 76.0304L24.4038 76.0132L24.5254 75.9018C25.4842 75.0228 26.5621 74.3241 27.7613 73.8045C28.9965 73.2692 30.2523 72.7957 31.5285 72.384L31.6433 72.347L31.7286 72.2617C32.3787 71.6115 33.0478 71.0235 33.7357 70.4971C34.4484 69.9831 35.2204 69.5676 36.053 69.2504L36.1909 69.1979L36.2782 69.0789C37.1896 67.8361 38.1215 66.635 39.0739 65.4755L39.0739 65.4756L39.0793 65.4689C40.0682 64.2219 40.8633 62.8463 41.4642 61.3439L41.5069 61.2372L41.4987 61.1226C41.4591 60.5685 41.4809 60.1159 41.5528 59.7562L41.5529 59.7563L41.5544 59.7476C41.6316 59.3233 41.7459 58.9454 41.8944 58.6113L41.8982 58.6026L41.9017 58.5939L42.3941 57.363C42.6051 56.9397 42.8151 56.477 43.024 55.9755L43.0625 55.8832V55.7832V55.6582C43.0625 54.181 43.3417 52.6992 43.9051 51.2101L43.9125 51.1906L43.9183 51.1705C43.9894 50.9214 44.0978 50.6667 44.2466 50.4063C44.4311 50.0834 44.5728 49.7547 44.6683 49.4205L44.6875 49.3532V49.2832V48.3457C44.6875 47.8798 44.6667 47.4139 44.625 46.9482V45.4707C44.625 45.1137 44.6449 44.7125 44.6854 44.266C44.7197 43.8888 44.8383 43.5522 45.041 43.248ZM11.7586 45.4288C11.7583 45.4297 11.758 45.4308 11.7576 45.4322C11.76 45.4199 11.7617 45.4178 11.7586 45.4288Z" stroke="black"/>
</svg>
