<svg width="56" height="79" viewBox="0 0 56 79" fill="none" xmlns="http://www.w3.org/2000/svg">
<path d="M45.041 43.2148L45.1431 43.0618L45.1216 42.8791C45.0318 42.1159 44.8058 41.4402 44.4293 40.8676C44.1251 40.3062 43.7757 39.8035 43.3797 39.3619L42.2712 38.0071C41.9696 37.5901 41.6995 37.09 41.4642 36.5018L41.3868 36.3082L41.1948 36.227C40.1836 35.7992 39.3555 35.1812 38.7011 34.3729L38.5005 34.1251L38.1912 34.2024L37.7509 34.3125H37.3125C36.6234 34.3125 35.9543 34.1985 35.303 33.9701C34.5395 33.6575 33.7498 33.5 32.9375 33.5C32.6602 33.5 32.3976 33.5231 32.1519 33.5722C31.9255 33.6175 31.6833 33.6835 31.4262 33.7684C30.7262 33.9333 30.0659 34.0984 29.4454 34.2637C28.8093 34.4017 28.1456 34.67 27.4561 35.0565C26.23 35.6493 25.0663 36.3267 23.9654 37.0889C22.9299 37.8058 21.7724 38.3454 20.4896 38.7062L20.2767 38.766L20.1778 38.9639C20.0418 39.2358 19.8548 39.4749 19.6121 39.6829C19.3022 39.9485 19.0683 40.2719 18.9114 40.6465C18.0867 41.0847 16.725 41.8362 15.3985 42.634C13.9971 43.477 12.5723 44.4081 11.8964 45.0839L11.6963 45.2841L11.7379 45.4506C11.7344 45.4587 11.7305 45.4678 11.726 45.4779C11.6836 45.5726 11.6135 45.7056 11.5179 45.8715C11.3283 46.2006 11.0629 46.6176 10.7859 47.0369C10.2314 47.8765 9.65414 48.6903 9.6 48.7625L9.57295 48.7985L9.55279 48.8389C9.45511 49.0342 9.4029 49.25 9.3837 49.4758C7.83567 51.0785 6.4459 52.762 5.21493 54.5264L5.21355 54.5284C3.97759 56.3184 2.97866 58.3178 2.21501 60.5239L2.18222 60.6186L2.18847 60.7187C2.22611 61.3209 2.15095 61.8758 1.96857 62.3889C1.74774 62.9643 1.59329 63.5614 1.50503 64.1793L1.48953 64.2877L1.52081 64.3927C2.10565 66.3561 2.67018 68.1335 3.2144 69.7243L3.21577 69.7282C3.77698 71.3255 4.678 72.9723 5.9077 74.6685L5.97949 74.7675L6.08889 74.8222C6.68046 75.118 7.35419 75.4337 8.10943 75.7694L8.12025 75.7742L8.13128 75.7785C8.80209 76.0393 9.30228 76.4209 9.65563 76.9156L9.77601 77.0841L9.9803 77.1182C10.7288 77.2429 11.4564 77.3677 12.1631 77.4924L12.1789 77.4951L12.1948 77.4969C12.963 77.5823 13.7314 77.625 14.5 77.625C15.1072 77.625 15.7142 77.5816 16.3207 77.4949L16.3378 77.4925L16.3548 77.4889C16.8877 77.3747 17.4036 77.1963 17.9017 76.9548C18.1565 77.0808 18.453 77.125 18.75 77.125H19.5H19.6061L19.7031 77.0819C20.4214 76.7626 21.1587 76.5236 21.9155 76.3643C22.6907 76.2011 23.4655 76.0787 24.2398 75.9972L24.4038 75.98L24.5254 75.8686C25.4842 74.9896 26.5621 74.2909 27.7613 73.7713C28.9965 73.236 30.2523 72.7625 31.5285 72.3508L31.6433 72.3138L31.7286 72.2285C32.3787 71.5783 33.0478 70.9903 33.7357 70.4639C34.4484 69.9499 35.2204 69.5344 36.053 69.2172L36.1909 69.1647L36.2782 69.0457C37.1896 67.8028 38.1215 66.6018 39.0739 65.4423L39.0739 65.4424L39.0793 65.4357C40.0682 64.1887 40.8633 62.8131 41.4642 61.3107L41.5069 61.204L41.4987 61.0894C41.4591 60.5353 41.4809 60.0827 41.5528 59.723L41.5529 59.7231L41.5544 59.7144C41.6316 59.2901 41.7459 58.9122 41.8944 58.5781L41.8982 58.5694L41.9017 58.5607L42.3941 57.3299C42.6051 56.9065 42.8151 56.4438 43.024 55.9423L43.0625 55.85V55.75V55.625C43.0625 54.1478 43.3417 52.666 43.9051 51.1769L43.9125 51.1574L43.9183 51.1373C43.9894 50.8882 44.0978 50.6335 44.2466 50.3731C44.4311 50.0502 44.5728 49.7215 44.6683 49.3873L44.6875 49.32V49.25V48.3125C44.6875 47.8466 44.6667 47.3807 44.625 46.915V45.4375C44.625 45.0805 44.6449 44.6793 44.6854 44.2327C44.7197 43.8556 44.8383 43.519 45.041 43.2148ZM11.7586 45.3956C11.7583 45.3965 11.758 45.3976 11.7576 45.399C11.76 45.3867 11.7617 45.3846 11.7586 45.3956Z"/>
</svg>
